<svg width="18" height="18" viewBox="0 0 18 18" fill="none" xmlns="http://www.w3.org/2000/svg">
<path d="M12.5626 0.129883C15.5199 0.129883 17.5001 2.20607 17.5001 5.29419V12.4222C17.5001 15.5016 15.5199 17.5769 12.5626 17.5769H4.99932C2.04206 17.5769 0.0531006 15.5016 0.0531006 12.4222V5.29419C0.0531006 2.20607 2.04206 0.129883 4.99932 0.129883H12.5626ZM11.4024 6.21103C11.1058 5.91356 10.626 5.91356 10.3207 6.21103L8.7766 7.76294L7.22382 6.21103C6.91849 5.91356 6.4387 5.91356 6.1421 6.21103C5.8455 6.50763 5.8455 6.99615 6.1421 7.29187L7.69489 8.84553L6.1421 10.3896C5.8455 10.6949 5.8455 11.1747 6.1421 11.4704C6.2904 11.6187 6.49104 11.6981 6.68296 11.6981C6.8836 11.6981 7.07552 11.6187 7.22382 11.4704L8.7766 9.92724L10.3294 11.4704C10.4777 11.6283 10.6696 11.6981 10.8615 11.6981C11.0622 11.6981 11.2541 11.6187 11.4024 11.4704C11.699 11.1747 11.699 10.6949 11.4024 10.3983L9.84959 8.84553L11.4024 7.29187C11.699 6.99615 11.699 6.50763 11.4024 6.21103Z" fill="#DF5203"/>
</svg>
