<svg width="500" height="500" viewBox="0 0 500 500" fill="none" xmlns="http://www.w3.org/2000/svg">
<path d="M293.11 51.3H160.09V255.26H293.11V51.3Z" fill="#DBDBDB"/>
<path d="M223.51 59.47H167.34V150.19H223.51V59.47Z" fill="white"/>
<path d="M285.86 59.47H229.69V150.19H285.86V59.47Z" fill="white"/>
<path d="M223.51 156.37H167.34V247.09H223.51V156.37Z" fill="white"/>
<path d="M285.86 156.37H229.69V247.09H285.86V156.37Z" fill="white"/>
<path d="M191.6 51.3H160.09V343.1H191.6V51.3Z" fill="#EBEBEB"/>
<path d="M185.62 65.1702L185.87 96.7202L185.95 128.27L186.12 191.37L185.96 254.47L185.87 286.02L185.62 317.57L185.38 286.02L185.29 254.47L185.12 191.37L185.29 128.27L185.38 96.7202L185.62 65.1702Z" fill="white"/>
<path d="M171.16 72.49L171.4 100.66L171.54 128.83L171.66 185.17L171.54 241.52L171.4 269.69L171.16 297.86L170.91 269.69L170.77 241.52L170.66 185.17L170.77 128.83L170.91 100.66L171.16 72.49Z" fill="white"/>
<path d="M178.39 79.1401L178.63 112.13L178.72 145.11L178.89 211.09L178.72 277.06L178.63 310.05L178.39 343.03L178.15 310.05L178.06 277.06L177.89 211.09L178.06 145.11L178.15 112.13L178.39 79.1401Z" fill="white"/>
<path d="M165.78 66.8401L166.02 101.36L166.11 135.88L166.28 204.93L166.11 273.98L166.02 308.51L165.78 343.03L165.53 308.51L165.44 273.98L165.28 204.93L165.44 135.88L165.53 101.36L165.78 66.8401Z" fill="white"/>
<path d="M261.6 343.1H293.11L293.11 51.3001H261.6L261.6 343.1Z" fill="#EBEBEB"/>
<path d="M267.57 65.1702L267.82 96.7202L267.91 128.27L268.07 191.37L267.91 254.47L267.82 286.02L267.57 317.57L267.33 286.02L267.24 254.47L267.08 191.37L267.24 128.27L267.33 96.7202L267.57 65.1702Z" fill="white"/>
<path d="M282.04 72.49L282.29 100.66L282.43 128.83L282.54 185.17L282.43 241.52L282.29 269.69L282.04 297.86L281.8 269.69L281.66 241.52L281.54 185.17L281.66 128.83L281.8 100.66L282.04 72.49Z" fill="white"/>
<path d="M274.81 79.1401L275.05 112.13L275.14 145.11L275.31 211.09L275.14 277.06L275.05 310.05L274.81 343.03L274.56 310.05L274.48 277.06L274.31 211.09L274.48 145.11L274.57 112.13L274.81 79.1401Z" fill="white"/>
<path d="M287.42 66.8401L287.67 101.36L287.75 135.88L287.92 204.93L287.75 273.98L287.67 308.51L287.42 343.03L287.18 308.51L287.09 273.98L286.92 204.93L287.09 135.88L287.18 101.36L287.42 66.8401Z" fill="white"/>
<path d="M412.4 353.91H438.88V342.72H412.4V353.91Z" fill="#EBEBEB"/>
<path d="M427.18 368.02H453.66V356.83H427.18V368.02Z" fill="#EBEBEB"/>
<path d="M127.79 271.04H154.27V259.85H127.79V271.04Z" fill="#EBEBEB"/>
<path d="M142.55 285.15H169.03V273.96H142.55V285.15Z" fill="#EBEBEB"/>
<path d="M327.15 175.9H353.63V164.71H327.15V175.9Z" fill="#EBEBEB"/>
<path d="M341.93 190.01H368.41V178.82H341.93V190.01Z" fill="#EBEBEB"/>
<path d="M356.65 175.9H383.13V164.71H356.65V175.9Z" fill="#EBEBEB"/>
<path d="M46.34 368.02H72.82V356.83H46.34V368.02Z" fill="#EBEBEB"/>
<path d="M61.12 73.48H87.6V62.29H61.12V73.48Z" fill="#EBEBEB"/>
<path d="M46.34 87.5901H72.82V76.4001H46.34V87.5901Z" fill="#EBEBEB"/>
<path d="M412.4 73.48H438.88V62.29H412.4V73.48Z" fill="#EBEBEB"/>
<path d="M395.25 333.57H427.5L445.96 241.54L416.43 227.97L395.25 333.57Z" fill="#DBDBDB"/>
<path d="M302.93 333.57H395.25L416.43 227.97H324.11L302.93 333.57Z" fill="#EBEBEB"/>
<path d="M411.81 385.62H461.24V284.19H411.81V385.62Z" fill="#DBDBDB"/>
<path d="M279.21 385.62H292.71L312.83 284.2H279.21V385.62Z" fill="#DBDBDB"/>
<path d="M384.64 385.62H411.8V284.19H384.64V385.62Z" fill="#EBEBEB"/>
<path d="M252.05 385.62H279.21V284.19H252.05V385.62Z" fill="#EBEBEB"/>
<path d="M279.2 385.63H384.64V333.58H279.2V385.63Z" fill="#EBEBEB"/>
<path d="M279.2 333.79H384.64V311.08H279.2V333.79Z" fill="#EBEBEB"/>
<path d="M405.15 284.2L394.9 284L384.65 283.87H384.34V284.19L384.22 296.06V307.93C384.22 315.84 384.16 323.75 384.22 331.66C384.28 339.57 384.22 347.49 384.35 355.4C384.48 363.31 384.53 371.23 384.7 379.14C384.86 371.233 384.973 363.32 385.04 355.4C385.14 347.49 385.15 339.58 385.18 331.66C385.21 323.74 385.18 315.84 385.18 307.93L385.13 296.06L385 284.2L384.69 284.51L394.94 284.38L405.15 284.2Z" fill="#DBDBDB"/>
<path d="M279.21 284.2C278.99 292.14 278.9 300.08 278.81 308.02L278.69 331.85L278.81 355.68L278.95 367.59L279.21 379.51L279.46 367.59L279.6 355.68L279.72 331.85L279.6 308C279.52 300.08 279.42 292.14 279.21 284.2Z" fill="#DBDBDB"/>
<path d="M279.21 333.57C287.99 333.79 296.78 333.88 305.57 333.97L331.93 334.09L358.29 333.97L371.47 333.83L384.65 333.57L371.47 333.32L358.29 333.18L331.93 333.06L305.57 333.18C296.78 333.26 288 333.36 279.21 333.57Z" fill="#DBDBDB"/>
<path d="M279.21 311.07C287.99 311.28 296.78 311.38 305.57 311.47L331.93 311.58L358.29 311.47L371.47 311.32L384.65 311.07L371.47 310.82L358.29 310.68L331.93 310.56L305.57 310.68C296.78 310.76 288 310.86 279.21 311.07Z" fill="#DBDBDB"/>
<path d="M442.45 385.62L443.12 393.84L444.68 412.82H451.84L453.4 393.84L454.07 385.62H442.45Z" fill="#C7C7C7"/>
<path d="M454.07 385.62H442.45L443.12 393.84H453.4L454.07 385.62Z" fill="#A6A6A6"/>
<path d="M392.42 385.62L393.09 393.84L394.65 412.82H401.81L403.37 393.84L404.04 385.62H392.42Z" fill="#C7C7C7"/>
<path d="M404.04 385.62H392.42L393.09 393.84H403.37L404.04 385.62Z" fill="#A6A6A6"/>
<path d="M309.43 385.62L310.1 393.84L311.66 412.82H318.81L320.38 393.84L321.04 385.62H309.43Z" fill="#C7C7C7"/>
<path d="M321.04 385.62H309.43L310.1 393.84H320.38L321.04 385.62Z" fill="#A6A6A6"/>
<path d="M259.38 385.62L260.05 393.84L261.61 412.82H268.77L270.33 393.84L271 385.62H259.38Z" fill="#C7C7C7"/>
<path d="M259.38 385.62L260.05 393.84H270.33L271 385.62H259.38Z" fill="#A6A6A6"/>
<path d="M105.8 60.52H56.69V109.63H105.8V60.52Z" fill="white"/>
<path d="M54.13 58V112.22H108.35V58H54.13ZM105.8 109.66H56.69V60.52H105.8V109.66Z" fill="#DBDBDB"/>
<path d="M102.26 100.13V83.1501H63.98V100.13H102.26Z" fill="#EBEBEB"/>
<path d="M91.05 94.88V75.27H71.44V94.88H91.05Z" fill="#C7C7C7"/>
<path d="M110.44 57.97H108.35V112.19H110.44V57.97Z" fill="#C7C7C7"/>
<path d="M105.8 130.25H56.69V179.36H105.8V130.25Z" fill="white"/>
<path d="M77.95 138.11H65.13V175.15H77.95V138.11Z" fill="#C7C7C7"/>
<path d="M54.13 127.7V181.92H108.35V127.7H54.13ZM105.8 179.36H56.69V130.25H105.8V179.36Z" fill="#DBDBDB"/>
<path d="M91.05 145H71.44V164.61H91.05V145Z" fill="#EBEBEB"/>
<path d="M110.44 127.7H108.35V181.92H110.44V127.7Z" fill="#C7C7C7"/>
<path d="M105.8 199.99H56.69V249.1H105.8V199.99Z" fill="white"/>
<path d="M89.08 206.68H62.13V222.79H89.08V206.68Z" fill="#EBEBEB"/>
<path d="M54.13 197.43V251.65H108.35V197.43H54.13ZM105.8 249.1H56.69V200H105.8V249.1Z" fill="#DBDBDB"/>
<path d="M91.05 214.74H71.44V234.35H91.05V214.74Z" fill="#C7C7C7"/>
<path d="M110.44 197.43H108.35V251.65H110.44V197.43Z" fill="#C7C7C7"/>
<path d="M38.76 412.82L91.57 412.58L144.38 412.49L250 412.33L355.62 412.49L408.43 412.58L461.24 412.82L408.43 413.07L355.62 413.16L250 413.32L144.38 413.16L91.57 413.07L38.76 412.82Z" fill="#263238"/>
<path d="M250 473.53C306.107 473.53 351.59 469.147 351.59 463.74C351.59 458.333 306.107 453.95 250 453.95C193.893 453.95 148.41 458.333 148.41 463.74C148.41 469.147 193.893 473.53 250 473.53Z" fill="#EBEBEB"/>
<path d="M124.14 304.79C120.43 301.15 115.63 296.79 109.95 298.32C104.61 299.8 102.57 305.63 101.61 310.48C100.38 316.74 99.42 323.06 98.43 329.37C97.44 335.68 96.43 342.1 95.56 348.48C95.05 352.08 94.56 355.68 94.03 359.28L93.28 364.68C93.04 366.45 92.74 368.21 92.64 369.99C92.64 370.56 93.5 370.64 93.64 370.1C94.33 367.1 94.64 363.98 95.05 360.93C95.46 357.88 95.94 354.8 96.39 351.73C97.28 345.65 98.2 339.56 99.11 333.48C100.02 327.4 100.98 321.31 101.95 315.23C102.78 310.07 103.17 303.67 107.74 300.23C108.978 299.381 110.412 298.862 111.906 298.722C113.401 298.582 114.906 298.826 116.28 299.43C119.28 300.58 121.69 302.73 124.04 304.86C124.051 304.863 124.063 304.863 124.074 304.861C124.086 304.859 124.097 304.855 124.106 304.848C124.116 304.842 124.124 304.833 124.13 304.823C124.135 304.813 124.139 304.802 124.14 304.79Z" fill="#263238"/>
<path d="M119.06 301.07C119.06 301.07 111.47 298.34 107.72 303.88C103.97 309.42 108.46 323.5 143.01 331.45C141.998 320.647 139.189 310.088 134.7 300.21C127.29 284.06 114.09 290.18 119.06 301.07Z" fill="#FF2150"/>
<path d="M141 329.15C140.474 328.181 139.893 327.243 139.26 326.34L137.51 323.68C137.06 323.02 136.61 322.36 136.15 321.68C136.184 321.515 136.207 321.348 136.22 321.18L136.34 320.28C136.42 319.64 136.52 318.99 136.61 318.34C136.7 317.69 136.81 317.06 136.94 316.42C137.02 315.74 137.171 315.069 137.39 314.42C137.39 314.32 137.25 314.27 137.24 314.42C137.166 314.807 137.062 315.188 136.93 315.56C136.85 315.85 136.77 316.14 136.7 316.43C136.533 317.097 136.373 317.763 136.22 318.43C136.09 319.04 135.97 319.65 135.87 320.26C135.82 320.56 135.77 320.85 135.73 321.15C135.12 320.27 134.49 319.4 133.84 318.55C132.01 316.13 130.07 313.8 128.06 311.55C128.06 311.55 128.06 311.55 128.06 311.49C128.24 307.86 128.15 304.27 128.96 300.69C128.96 300.6 128.83 300.54 128.81 300.64C127.893 304.005 127.459 307.483 127.52 310.97C126.8 310.17 126.07 309.37 125.33 308.58C123.65 306.77 121.94 304.98 120.18 303.24C120.165 303.231 120.147 303.227 120.129 303.229C120.111 303.231 120.094 303.239 120.082 303.252C120.069 303.264 120.061 303.281 120.059 303.299C120.057 303.317 120.061 303.335 120.07 303.35C122.98 306.48 125.75 309.75 128.44 313.07C126.331 313.037 124.221 313.113 122.12 313.3C119.78 313.48 117.45 313.78 115.12 314.1C115.02 314.1 115.05 314.27 115.12 314.25C117.441 313.918 119.777 313.711 122.12 313.63C124.38 313.53 126.62 313.63 128.87 313.63C130.33 315.43 131.77 317.247 133.19 319.08H133C132.47 319.08 131.94 319.08 131.41 319.08C130.36 319.08 129.3 319.17 128.26 319.26C126.114 319.431 123.983 319.748 121.88 320.21C121.859 320.21 121.838 320.218 121.823 320.233C121.808 320.248 121.8 320.269 121.8 320.29C121.8 320.311 121.808 320.332 121.823 320.347C121.838 320.362 121.859 320.37 121.88 320.37C124 320.13 126.13 319.93 128.26 319.85C129.26 319.85 130.26 319.85 131.32 319.85H132.91C133.202 319.891 133.5 319.864 133.78 319.77C134.71 320.98 135.64 322.18 136.56 323.4C137.3 324.4 138.02 325.34 138.73 326.32C139.44 327.3 140.11 328.42 140.92 329.32C141 329.31 141.06 329.22 141 329.15Z" fill="#263238"/>
<path d="M122.36 308.92C121.137 308.76 119.903 308.7 118.67 308.74C117.44 308.74 116.2 308.74 114.97 308.82C114.958 308.816 114.945 308.814 114.932 308.816C114.919 308.817 114.907 308.822 114.897 308.829C114.886 308.837 114.877 308.847 114.871 308.858C114.865 308.869 114.862 308.882 114.862 308.895C114.862 308.908 114.865 308.921 114.871 308.932C114.877 308.944 114.886 308.953 114.897 308.961C114.907 308.968 114.919 308.973 114.932 308.974C114.945 308.976 114.958 308.975 114.97 308.97C116.22 308.88 117.47 308.86 118.72 308.88C119.97 308.9 121.14 309.01 122.35 308.98L122.36 308.92Z" fill="#263238"/>
<path d="M133.21 311.7C133.35 310.52 133.5 309.34 133.75 308.18C133.755 308.168 133.756 308.155 133.754 308.142C133.753 308.129 133.748 308.117 133.741 308.106C133.733 308.096 133.724 308.087 133.712 308.081C133.701 308.075 133.688 308.072 133.675 308.072C133.662 308.072 133.649 308.075 133.638 308.081C133.627 308.087 133.617 308.096 133.609 308.106C133.602 308.117 133.597 308.129 133.596 308.142C133.594 308.155 133.596 308.168 133.6 308.18C133.42 309.34 133.2 310.5 133.03 311.66C132.94 312.24 132.86 312.83 132.79 313.41C132.683 313.953 132.637 314.506 132.65 315.06C132.65 315.086 132.661 315.112 132.679 315.131C132.698 315.149 132.724 315.16 132.75 315.16C132.777 315.16 132.802 315.149 132.821 315.131C132.839 315.112 132.85 315.086 132.85 315.06C132.955 314.519 133.015 313.971 133.03 313.42C133.08 312.82 133.14 312.26 133.21 311.7Z" fill="#263238"/>
<path d="M130.94 298.63C130.64 299.77 130.34 300.94 130.12 302.11C130.02 302.7 129.93 303.3 129.85 303.89C129.735 304.466 129.695 305.054 129.73 305.64C129.73 305.69 129.81 305.69 129.82 305.64C129.959 305.092 130.05 304.534 130.09 303.97C130.17 303.4 130.26 302.82 130.36 302.25C130.57 301.05 130.78 299.85 131.09 298.67C131.11 298.58 131 298.53 130.94 298.63Z" fill="#263238"/>
<path d="M85.94 368.72C85.75 366.54 85.54 364.37 85.31 362.19C84.85 357.89 84.33 353.593 83.75 349.3C83.17 345.02 82.62 340.74 81.94 336.48C81.6819 334.5 81.24 332.548 80.62 330.65C80.3962 329.835 79.9887 329.083 79.4288 328.45C78.8689 327.817 78.1714 327.321 77.39 327C73.33 325.59 70.58 329.81 68.94 332.79C68.94 332.88 69.02 332.95 69.08 332.87C70.08 331.45 72.78 327.49 75.86 327.67C77.94 327.8 79.6 329.26 80.59 334.44C83.08 347.33 85.31 373.5 85.59 375.21C85.72 376.12 86.37 376.08 86.37 375.11C86.37 373 86.12 370.85 85.94 368.72Z" fill="#263238"/>
<path d="M70 331.21C70 331.21 73.55 318.66 65.7 324.93C52.66 335.38 52.19 358.1 52.19 358.1C52.19 358.1 75.44 344.59 78.33 335.69C82.64 322.42 70 331.21 70 331.21Z" fill="#FF2150"/>
<path d="M74.44 337.37C72.61 337.74 70.76 337.98 68.92 338.24L66.31 338.61C65.72 338.69 65.12 338.75 64.53 338.82C66.26 336.44 68.01 334.06 69.67 331.63C69.6779 331.62 69.6836 331.608 69.6869 331.595C69.6902 331.582 69.6909 331.569 69.689 331.556C69.6872 331.543 69.6828 331.53 69.6761 331.519C69.6694 331.508 69.6605 331.498 69.65 331.49C69.6395 331.482 69.6276 331.476 69.6148 331.473C69.6021 331.47 69.5889 331.469 69.5759 331.471C69.5629 331.473 69.5504 331.477 69.5391 331.484C69.5278 331.491 69.5179 331.5 69.51 331.51C68.1346 332.934 66.8393 334.433 65.63 336L64.63 333.09C64.24 331.97 63.81 330.85 63.53 329.69C63.53 329.6 63.35 329.64 63.38 329.74C63.7 330.89 63.92 332.06 64.23 333.21C64.54 334.36 64.86 335.43 65.23 336.51C64.38 337.62 63.56 338.75 62.77 339.89C62.37 338.76 61.87 337.66 61.52 336.51C61.5113 336.493 61.4968 336.48 61.4791 336.473C61.4614 336.465 61.4417 336.465 61.4236 336.471C61.4055 336.477 61.3901 336.489 61.3803 336.505C61.3705 336.522 61.3668 336.541 61.37 336.56C61.79 337.83 62.01 339.15 62.37 340.43C61.84 341.21 61.31 341.99 60.8 342.78C59.86 344.23 58.97 345.71 58.11 347.2C58.0419 347.228 57.9845 347.277 57.9467 347.34C57.9088 347.403 57.8924 347.477 57.9 347.55C56.44 350.09 55.04 352.67 53.66 355.27C53.66 355.36 53.75 355.43 53.8 355.34C55.18 352.77 56.71 350.27 58.31 347.82C58.5577 347.747 58.8125 347.7 59.07 347.68L59.88 347.5C60.48 347.37 61.07 347.22 61.67 347.07C62.85 346.77 64.02 346.5 65.21 346.29C65.31 346.29 65.27 346.12 65.21 346.14C63.8 346.41 62.39 346.57 60.97 346.73L59 347H58.9C59.74 345.733 60.5867 344.473 61.44 343.22C62.29 341.99 63.16 340.78 64.03 339.58C64.84 339.46 65.64 339.25 66.43 339.1L69.13 338.57C70.93 338.22 72.72 337.82 74.53 337.52C74.58 337.5 74.54 337.35 74.44 337.37Z" fill="#263238"/>
<path d="M60.47 338.6C60.36 338.27 60.26 337.94 60.15 337.6C59.9347 336.907 59.7577 336.203 59.62 335.49C59.62 335.39 59.45 335.44 59.47 335.54C59.62 336.24 59.79 336.95 59.95 337.66C60.0983 338.368 60.3023 339.064 60.56 339.74C60.5653 339.758 60.574 339.774 60.5856 339.789C60.5972 339.803 60.6116 339.815 60.6278 339.824C60.6441 339.833 60.6619 339.838 60.6803 339.84C60.6987 339.842 60.7173 339.84 60.735 339.835C60.7527 339.83 60.7693 339.821 60.7836 339.809C60.798 339.798 60.8099 339.783 60.8188 339.767C60.8276 339.751 60.8331 339.733 60.835 339.715C60.837 339.696 60.8353 339.678 60.83 339.66C60.73 339.31 60.58 339 60.47 338.6Z" fill="#263238"/>
<path d="M76.82 334.46C75.76 334.62 74.69 334.69 73.62 334.79C72.55 334.89 71.49 335.03 70.43 335.19C70.37 335.19 70.37 335.29 70.43 335.28C71.5 335.21 72.56 335.13 73.63 334.99C74.7 334.85 75.75 334.69 76.82 334.62C76.92 334.61 76.91 334.45 76.82 334.46Z" fill="#263238"/>
<path d="M103.05 352.83C102.63 343.59 102.05 334.37 101.12 325.16C100.66 320.58 100.12 316 99.49 311.44C98.9169 306.958 98.0348 302.521 96.85 298.16C96.0339 294.765 94.5257 291.575 92.42 288.79C91.3844 287.436 90.0215 286.367 88.4593 285.685C86.8971 285.003 85.1871 284.729 83.49 284.89C79.49 285.39 76.19 287.94 73.38 290.71C70.22 293.81 67.32 297.2 64.38 300.52C63.64 301.36 62.9 302.21 62.17 303.06C62.1554 303.076 62.1478 303.097 62.1487 303.118C62.1496 303.14 62.1591 303.16 62.175 303.175C62.1909 303.189 62.212 303.197 62.2336 303.196C62.2551 303.195 62.2754 303.186 62.29 303.17C65.15 299.88 68.12 296.69 71.23 293.64C74.1 290.81 77.07 287.73 81.05 286.56C82.8977 285.968 84.8772 285.923 86.75 286.43C88.2427 286.9 89.5869 287.752 90.65 288.9C92.7727 291.356 94.2778 294.284 95.04 297.44C97.53 305.93 98.42 314.84 99.34 323.61C100.26 332.38 100.91 341.45 101.34 350.4C101.77 359.35 102.14 368.4 103.01 377.4C103.11 378.51 103.26 379.61 103.4 380.71C103.49 381.46 104.64 381.46 104.58 380.71C103.89 371.39 103.46 362.11 103.05 352.83Z" fill="#263238"/>
<path d="M72.87 291.71C72.87 291.71 78.14 281.94 71.87 278.81C65.6 275.68 44.81 299 38.71 333C38.71 333 72.41 318.09 83.86 303.23C95.31 288.37 82.33 285.13 72.87 291.71Z" fill="#FF2150"/>
<path d="M77.82 299.65C74.03 299.65 70.2601 299.36 66.4701 299.39L68.6 297C69.6722 295.918 70.6742 294.769 71.6 293.56C71.66 293.48 71.5401 293.37 71.4701 293.43C70.4421 294.316 69.4827 295.279 68.6 296.31C67.6 297.31 66.71 298.31 65.77 299.31C64.32 300.88 62.9001 302.47 61.4901 304.07C61.4901 303.91 61.4901 303.76 61.4901 303.61V301.61C61.4901 300.32 61.4901 299.04 61.4901 297.75C61.4901 295.15 61.49 292.53 61.69 289.93C61.69 289.83 61.5401 289.84 61.5401 289.93C61.3601 292.54 61.09 295.14 60.96 297.76C60.9 299.04 60.86 300.33 60.85 301.61C60.85 302.27 60.85 302.94 60.85 303.61C60.85 303.97 60.85 304.35 60.85 304.73L60.18 305.47C57.18 308.92 54.2901 312.47 51.4901 316.13C51.4901 315.93 51.4901 315.73 51.4901 315.53C51.4901 315.13 51.4001 314.73 51.3601 314.33C51.2601 313.46 51.14 312.59 51.01 311.73C50.88 310.87 50.76 310.1 50.62 309.29C50.48 308.48 50.2501 307.46 50.18 306.54C50.18 306.519 50.1716 306.498 50.1566 306.483C50.1416 306.468 50.1213 306.46 50.1 306.46C50.0788 306.46 50.0585 306.468 50.0435 306.483C50.0285 306.498 50.0201 306.519 50.0201 306.54C50.182 307.456 50.2889 308.381 50.34 309.31C50.42 310.14 50.5 310.98 50.57 311.81C50.64 312.64 50.7201 313.48 50.8101 314.31L50.93 315.51C50.93 315.71 50.93 315.91 51 316.11C51.0209 316.279 51.0753 316.442 51.16 316.59L49.7201 318.47C47.8101 321 45.9401 323.56 44.0601 326.11C44.0001 326.19 44.06 326.3 44.17 326.22C45.95 323.9 47.7801 321.63 49.6301 319.37C51.0201 319.43 52.43 319.37 53.82 319.31C55.21 319.25 56.7401 319.31 58.2001 319.31C58.3001 319.31 58.3001 319.15 58.2001 319.16L53.82 319.21C52.48 319.21 51.12 319.15 49.82 319.21C51.45 317.21 53.1 315.26 54.75 313.3L56.5601 311.15C57.1197 311.23 57.6862 311.25 58.25 311.21H60.25L63.9901 311.16C66.5601 311.16 69.13 311.03 71.7 311.02C71.7121 311.024 71.7251 311.026 71.7379 311.024C71.7508 311.023 71.763 311.018 71.7736 311.011C71.7842 311.003 71.7928 310.993 71.7988 310.982C71.8048 310.971 71.8079 310.958 71.8079 310.945C71.8079 310.932 71.8048 310.919 71.7988 310.908C71.7928 310.896 71.7842 310.887 71.7736 310.879C71.763 310.872 71.7508 310.867 71.7379 310.866C71.7251 310.864 71.7121 310.865 71.7 310.87C69.13 310.87 66.55 310.73 63.98 310.66L60.2401 310.57H58.2401C57.8701 310.57 57.4801 310.57 57.09 310.57C58.51 308.89 59.92 307.21 61.34 305.57C61.3739 305.547 61.4015 305.516 61.42 305.48C62.8 303.85 64.1801 302.22 65.5801 300.6L66.1501 299.94C70.0801 300.07 74 299.81 77.93 299.89C77.93 299.81 77.92 299.65 77.82 299.65Z" fill="#263238"/>
<path d="M75.8801 306.35H75.0001C74.9815 306.35 74.9637 306.357 74.9506 306.37C74.9374 306.383 74.9301 306.401 74.9301 306.42C74.9301 306.438 74.9374 306.456 74.9506 306.469C74.9637 306.482 74.9815 306.49 75.0001 306.49H75.9201C76.0001 306.5 76.0001 306.35 75.8801 306.35Z" fill="#263238"/>
<path d="M73.84 306.36L70.2 306.28L68.38 306.22C67.8189 306.15 67.2512 306.15 66.69 306.22C66.6793 306.225 66.6702 306.232 66.6638 306.242C66.6574 306.252 66.654 306.263 66.654 306.275C66.654 306.287 66.6574 306.298 66.6638 306.308C66.6702 306.318 66.6793 306.325 66.69 306.33C67.2485 306.448 67.8201 306.492 68.39 306.46H70.21C71.42 306.46 72.64 306.46 73.85 306.46C74 306.51 73.94 306.36 73.84 306.36Z" fill="#263238"/>
<path d="M63.25 317.73C60.7874 317.318 58.2968 317.094 55.8 317.06V317.11C58.27 317.35 60.8 317.48 63.21 317.88C63.31 317.9 63.35 317.74 63.25 317.73Z" fill="#263238"/>
<path d="M53.12 306.89C53.12 306.67 53.12 306.45 53.04 306.24C52.98 305.75 52.9 305.24 52.83 304.78C52.68 303.85 52.52 302.93 52.34 302.01C52.34 301.92 52.18 301.95 52.19 302.01C52.31 303.01 52.41 303.92 52.5 304.88L52.62 306.28C52.6068 306.734 52.671 307.187 52.81 307.62C52.8293 307.648 52.856 307.669 52.8871 307.683C52.9181 307.696 52.9523 307.7 52.9857 307.695C53.0191 307.69 53.0503 307.675 53.0758 307.653C53.1014 307.631 53.1201 307.602 53.13 307.57C53.1739 307.345 53.1705 307.113 53.12 306.89Z" fill="#263238"/>
<path d="M102.71 279.17C101.51 276.92 99.97 273.96 96.96 274.17C94.48 274.32 93.36 276.86 92.82 278.95C91.18 285.44 91.07 292.28 90.75 298.95C90.07 312.95 89.46 327.05 89.38 341.12C89.38 345.02 89.38 348.917 89.38 352.81C89.38 356.81 89.38 360.81 89.66 364.81C89.66 364.887 89.6906 364.961 89.7449 365.015C89.7993 365.069 89.8731 365.1 89.95 365.1C90.0269 365.1 90.1007 365.069 90.1551 365.015C90.2095 364.961 90.24 364.887 90.24 364.81C90.24 361.41 90.15 358.01 90.13 354.61C90.11 351.21 90.13 347.97 90.2 344.61C90.3067 337.89 90.4867 331.17 90.74 324.45C90.98 317.77 91.28 311.1 91.56 304.45C91.7 301.117 91.8433 297.783 91.99 294.45C92.14 291.22 92.28 287.99 92.65 284.77C92.86 282.97 93.12 281.17 93.5 279.4C93.6829 278.079 94.2184 276.832 95.05 275.79C95.6266 275.224 96.3855 274.881 97.1913 274.823C97.9971 274.764 98.7976 274.993 99.45 275.47C100.817 276.464 101.891 277.808 102.56 279.36C102.63 279.34 102.76 279.26 102.71 279.17Z" fill="#263238"/>
<path d="M101.9 278.1C101.9 278.1 99.42 269.36 104.9 273.73C114 281 114.33 296.83 114.33 296.83C114.33 296.83 98.14 287.42 96.12 281.22C93.12 272 101.9 278.1 101.9 278.1Z" fill="#FF2150"/>
<path d="M110.92 290.34L110.46 289.62C110.48 289.374 110.48 289.126 110.46 288.88V287.75C110.46 287.01 110.49 286.27 110.55 285.53C110.55 285.43 110.39 285.44 110.39 285.53C110.39 286.25 110.32 286.98 110.3 287.7C110.3 288.06 110.3 288.43 110.3 288.79C110.3 288.93 110.3 289.09 110.3 289.26C109.67 288.26 109.01 287.26 108.3 286.33L107.7 285.51C107.62 284.558 107.62 283.602 107.7 282.65C107.7 281.65 107.7 280.65 107.76 279.6C107.76 279.5 107.61 279.51 107.61 279.6C107.61 280.65 107.52 281.71 107.47 282.77C107.405 283.521 107.385 284.276 107.41 285.03C105.84 282.9 104.19 280.85 102.51 278.81C102.45 278.74 102.33 278.81 102.39 278.91C103.39 280.22 104.39 281.58 105.39 282.91C103.48 282.47 101.55 282.21 99.61 281.91C99.51 281.91 99.47 282.05 99.61 282.06C101.61 282.37 103.67 282.89 105.7 283.33C106.47 284.42 107.24 285.52 108 286.62L108.92 287.97H108.83L108.2 287.88C107.76 287.83 107.31 287.79 106.86 287.76C105.92 287.69 104.99 287.64 104.05 287.59C103.95 287.59 103.96 287.74 104.05 287.74C104.97 287.74 105.88 287.83 106.8 287.93L108.25 288.11L108.88 288.18H109.06L110.62 290.47C111.54 291.82 112.35 293.27 113.33 294.58C113.39 294.66 113.49 294.58 113.45 294.5C112.688 293.066 111.843 291.677 110.92 290.34Z" fill="#263238"/>
<path d="M106.89 280.47C106.89 280.13 106.89 279.79 106.89 279.47C106.862 278.752 106.888 278.034 106.97 277.32C106.975 277.308 106.976 277.295 106.974 277.282C106.973 277.269 106.968 277.257 106.961 277.246C106.953 277.236 106.944 277.227 106.932 277.221C106.921 277.215 106.908 277.212 106.895 277.212C106.882 277.212 106.869 277.215 106.858 277.221C106.847 277.227 106.837 277.236 106.829 277.246C106.822 277.257 106.817 277.269 106.816 277.282C106.814 277.295 106.816 277.308 106.82 277.32C106.82 278.02 106.74 278.73 106.71 279.44C106.71 279.79 106.71 280.15 106.71 280.5V281C106.68 281.169 106.68 281.341 106.71 281.51C106.715 281.523 106.724 281.534 106.736 281.542C106.747 281.55 106.761 281.554 106.775 281.554C106.789 281.554 106.803 281.55 106.814 281.542C106.826 281.534 106.835 281.523 106.84 281.51C106.87 281.355 106.87 281.195 106.84 281.04L106.89 280.47Z" fill="#263238"/>
<path d="M104.89 284.09C104.28 283.98 103.67 283.95 103.06 283.9C102.45 283.85 101.73 283.79 101.06 283.7C100.95 283.7 100.93 283.85 101.06 283.85C102.34 283.94 103.61 284.16 104.89 284.21C104.94 284.21 105 284.1 104.89 284.09Z" fill="#263238"/>
<path d="M103.09 325.81C99.68 323.25 96.62 319.58 92.09 319.4C88.31 319.25 85.66 322.1 84.15 325.27C83.384 326.953 82.765 328.7 82.3 330.49C81.6334 332.877 80.99 335.28 80.37 337.7C79.1834 342.453 78.1834 347.243 77.37 352.07C76.91 354.76 76.48 357.45 76.14 360.16C75.7076 362.905 75.4438 365.673 75.35 368.45C75.3582 368.55 75.4009 368.643 75.4707 368.715C75.5406 368.787 75.6333 368.832 75.7328 368.842C75.8323 368.853 75.9324 368.829 76.0159 368.774C76.0994 368.718 76.1609 368.636 76.19 368.54C76.66 366.28 76.85 363.94 77.19 361.65C77.53 359.36 77.88 357.05 78.27 354.76C79.0367 350.173 79.94 345.607 80.98 341.06C81.98 336.78 82.91 332.43 84.3 328.26C85.3 325.26 86.88 321.77 90.11 320.7C95.02 319.06 99.49 323.22 103.11 325.92C103.06 326 103.17 325.87 103.09 325.81Z" fill="#263238"/>
<path d="M99.56 323.36C99.56 323.36 96.43 314.36 100.97 312.64C107.77 310.01 125.58 330.07 122.1 360.8C122.1 360.8 108.33 353.22 98.17 344.7C88.01 336.18 85.41 325 89.89 322.15C94.37 319.3 99.56 323.36 99.56 323.36Z" fill="#FF2150"/>
<path d="M120 354.22C119.526 353.146 118.971 352.11 118.34 351.12C117.76 350.07 117.17 349.02 116.57 347.98C115.38 345.98 114.21 343.93 113 341.92L112.4 340.92C112.4 340.8 112.4 340.68 112.48 340.56C112.54 340.27 112.61 339.97 112.68 339.67C112.83 339.01 112.95 338.33 113.07 337.67C113.32 336.36 113.55 335.02 113.9 333.73C113.9 333.64 113.77 333.6 113.75 333.73C113.47 335.05 113.05 336.34 112.66 337.63C112.47 338.26 112.27 338.89 112.1 339.53C112.04 339.75 111.99 339.97 111.93 340.19C110.47 337.79 108.93 335.41 107.37 333.1C107.482 332.779 107.536 332.44 107.53 332.1C107.58 331.66 107.63 331.21 107.69 330.76C107.81 329.76 107.92 328.76 108.07 327.76C108.33 325.78 108.69 323.814 109.15 321.87C109.144 321.855 109.134 321.842 109.121 321.832C109.107 321.823 109.091 321.818 109.075 321.818C109.059 321.818 109.043 321.823 109.029 321.832C109.016 321.842 109.006 321.855 109 321.87C108.51 323.81 108 325.74 107.61 327.71C107.43 328.71 107.26 329.63 107.13 330.6C107.06 331.09 107.01 331.6 106.96 332.06C106.96 332.21 106.96 332.36 106.9 332.5C106.41 331.81 105.9 331.11 105.4 330.43C103.83 328.36 102.2 326.34 100.56 324.33C100.49 324.26 100.36 324.33 100.43 324.42C103.243 328.025 105.828 331.802 108.17 335.73L109.51 337.9L109.06 337.84C108.49 337.77 107.9 337.73 107.33 337.68L103.85 337.38C101.53 337.19 99.21 337.05 96.85 336.8C96.75 336.8 96.72 336.95 96.85 336.96C99.19 337.23 101.53 337.6 103.85 337.96C105 338.13 106.15 338.28 107.3 338.43C108.172 338.607 109.06 338.698 109.95 338.7C110.86 340.18 111.78 341.7 112.68 343.14C112.48 343.14 112.27 343.14 112.07 343.14H108.76C107.26 343.14 105.76 343.14 104.28 343.14C104.18 343.14 104.19 343.29 104.28 343.29C105.79 343.29 107.28 343.39 108.81 343.47C109.53 343.47 110.25 343.55 110.96 343.6L112.04 343.67C112.35 343.735 112.67 343.735 112.98 343.67C113.75 344.93 114.53 346.18 115.31 347.44C116.09 348.7 116.74 349.76 117.47 350.91C118.162 352.136 118.945 353.309 119.81 354.42C120 354.36 120.08 354.31 120 354.22Z" fill="#263238"/>
<path d="M113.48 329.37C113.342 330.359 113.138 331.338 112.87 332.3C112.61 333.3 112.32 334.3 112 335.25C111.995 335.263 111.992 335.277 111.992 335.29C111.993 335.304 111.996 335.318 112.002 335.33C112.008 335.343 112.016 335.354 112.026 335.363C112.037 335.373 112.049 335.379 112.062 335.384C112.076 335.388 112.089 335.389 112.103 335.388C112.117 335.386 112.13 335.382 112.142 335.375C112.154 335.368 112.165 335.359 112.173 335.347C112.181 335.336 112.187 335.323 112.19 335.31C112.49 334.31 112.76 333.37 113 332.38C113.24 331.39 113.4 330.38 113.64 329.38C113.66 329.3 113.49 329.27 113.48 329.37Z" fill="#263238"/>
<path d="M103.37 335.38C103.164 335.196 102.896 335.096 102.62 335.1L101.32 334.92C100.52 334.81 99.71 334.72 98.9 334.63C97.23 334.43 95.55 334.27 93.9 334.06C93.8 334.06 93.77 334.2 93.9 334.21C95.49 334.4 97.06 334.64 98.64 334.85L100.96 335.15L102.08 335.28C102.515 335.28 102.948 335.351 103.36 335.49C103.37 335.53 103.43 335.43 103.37 335.38Z" fill="#263238"/>
<path d="M113.46 348.89C112.67 348.83 111.87 348.8 111.08 348.78H109.87H109.3C109.051 348.81 108.799 348.81 108.55 348.78C108.44 348.78 108.43 348.95 108.55 348.93C108.783 348.905 109.017 348.905 109.25 348.93H109.88L111.08 349.01C111.87 349.01 112.67 349.1 113.46 349.1C113.55 349.07 113.55 348.9 113.46 348.89Z" fill="#263238"/>
<path d="M118.31 345.46C118.4 345.01 118.49 344.56 118.57 344.1C118.73 343.22 118.89 342.33 119.06 341.45C119.06 341.35 118.93 341.32 118.9 341.45C118.71 342.31 118.51 343.18 118.32 344.04C118.22 344.47 118.13 344.9 118.04 345.33C117.99 345.53 117.95 345.73 117.91 345.93C117.847 346.137 117.823 346.354 117.84 346.57C117.84 346.64 117.96 346.7 118.01 346.57C118.178 346.222 118.28 345.845 118.31 345.46Z" fill="#263238"/>
<path d="M71.72 365.01L72.67 375.91L75.93 412.7H104.74L108.81 375.91L110.01 365.01H71.72Z" fill="#455A64"/>
<path d="M71.72 365.01L72.67 375.91H108.81L110.01 365.01H71.72Z" fill="#263238"/>
<path d="M68.87 370.88H112.87V362.04H68.87V370.88Z" fill="#455A64"/>
<path d="M207.88 376.78C207.88 376.78 186.88 418.83 186.88 418.87C185.14 427.55 183.78 435.2 183.44 439.22C183.434 439.243 183.434 439.267 183.44 439.29C183.256 440.222 183.294 441.185 183.55 442.1C183.55 442.1 183.55 442.1 183.55 442.16C185.78 444.43 254.8 460.32 257.39 460.06C259.98 459.8 259.46 452.4 257.27 449.64C255.08 446.88 231.43 429 231.43 429L252 386.86L207.88 376.78Z" fill="#AD6359"/>
<path d="M256.41 460.07C253.82 460.32 185.84 444.43 183.61 442.16V442.1C183.359 441.184 183.322 440.223 183.5 439.29C183.495 439.267 183.495 439.243 183.5 439.22C183.84 435.22 185.2 427.55 186.93 418.86C186.93 418.86 189.63 413.47 191.93 408.79L235.47 420.73L231.47 428.98C231.47 428.98 254.12 446.89 256.32 449.64C258.52 452.39 259 459.82 256.41 460.07Z" fill="#EBEBEB"/>
<path d="M257.35 459C254.72 459.2 185.55 441.56 183.35 439.22C182.5 438.34 184.48 428.11 187.23 415.82L187.32 415.44L232.08 426.32L231.87 427.07C231.87 427.07 255.33 445.66 257.48 448.5C259.63 451.34 260 458.77 257.35 459Z" fill="#263238"/>
<path d="M257.25 456.08C245.66 452.82 198.61 440.77 186.91 438.43C186.81 438.43 186.8 438.43 186.91 438.5C198.33 441.98 245.47 453.65 257.22 456.27C257.45 456.33 257.49 456.15 257.25 456.08Z" fill="white"/>
<path d="M235.57 428.12C231.2 426.12 225.41 425.37 221.07 427.74C220.9 427.83 221.07 428.07 221.2 428.06C225.946 427.765 230.709 427.976 235.41 428.69C235.481 428.698 235.552 428.68 235.611 428.641C235.67 428.601 235.713 428.541 235.732 428.473C235.751 428.405 235.745 428.331 235.716 428.267C235.686 428.202 235.634 428.15 235.57 428.12Z" fill="white"/>
<path d="M238.38 431C234.01 429 228.21 428.25 223.87 430.62C223.71 430.71 223.87 430.95 224 430.94C228.746 430.645 233.509 430.856 238.21 431.57C238.282 431.581 238.355 431.566 238.417 431.528C238.479 431.489 238.524 431.429 238.545 431.359C238.566 431.29 238.56 431.215 238.53 431.149C238.5 431.083 238.446 431.03 238.38 431Z" fill="white"/>
<path d="M241.18 433.8C236.81 431.8 231.02 431.05 226.68 433.42C226.51 433.51 226.68 433.75 226.8 433.74C231.546 433.443 236.31 433.657 241.01 434.38C241.08 434.384 241.15 434.365 241.207 434.324C241.264 434.284 241.306 434.225 241.326 434.158C241.346 434.09 241.342 434.018 241.316 433.953C241.289 433.888 241.241 433.834 241.18 433.8Z" fill="white"/>
<path d="M259 456.75C260.11 457.54 258.79 461.63 257.81 461.75C256.83 461.87 181.49 442.29 180.28 441.68C179.07 441.07 180.71 436.58 182.28 436.73C183.85 436.88 259 456.75 259 456.75Z" fill="#FF2150"/>
<path d="M196.76 426.06C192.38 422.27 186.49 429.06 190.87 432.86C195.25 436.66 201.14 429.85 196.76 426.06Z" fill="white"/>
<path d="M192.08 405.43L242.55 418.16C242.55 418.16 289.6 333.25 288.55 311.67C287.1 281.87 252.15 190.37 252.15 190.37H210.3C210.3 190.37 238.07 289.32 238.43 305.97C238.62 314.68 192.08 405.43 192.08 405.43Z" fill="#37474F"/>
<path d="M244.71 407.92C242.02 406.85 217.99 399.92 200.07 396.12C200.046 396.12 200.023 396.13 200.006 396.146C199.989 396.163 199.98 396.186 199.98 396.21C199.98 396.234 199.989 396.257 200.006 396.274C200.023 396.291 200.046 396.3 200.07 396.3C205.71 398.3 241.33 407.66 244.67 408.12C244.74 408.14 244.83 408 244.71 407.92Z" fill="#263238"/>
<path d="M241.91 284.72C238.59 270.72 235.08 256.82 231.28 242.97C227.48 229.12 223.52 215.17 219.13 201.43C218.59 199.76 218.03 198.08 217.49 196.43C217.474 196.376 217.437 196.33 217.388 196.303C217.338 196.275 217.279 196.269 217.225 196.285C217.171 196.301 217.125 196.338 217.098 196.387C217.07 196.437 217.064 196.496 217.08 196.55C221 210.23 224.98 223.89 228.7 237.62C232.42 251.35 235.99 265.12 239.34 278.94C240.167 282.373 240.983 285.8 241.79 289.22C242.717 292.744 243.432 296.32 243.93 299.93C244.347 303.38 244.113 306.877 243.24 310.24C242.286 313.54 241.041 316.749 239.52 319.83C233.52 332.93 227.487 346.033 221.42 359.14C215.42 372.29 214.42 375.28 208.65 388.53C207.93 390.18 207.22 391.82 206.53 393.48C206.48 393.59 206.64 393.68 206.69 393.57C213.29 380.57 214.31 377.45 220.44 364.24C226.57 351.03 232.75 337.65 238.87 324.33C241.63 318.33 244.87 312.2 245.29 305.48C245.72 298.47 243.52 291.44 241.91 284.72Z" fill="#263238"/>
<path d="M240.46 393.41C240.46 393.41 242.08 439.7 242.08 439.74C242.34 448.59 242.73 456.35 243.31 460.34C243.305 460.363 243.305 460.387 243.31 460.41C243.348 461.357 243.598 462.282 244.04 463.12C244.04 463.12 244.04 463.17 244.1 463.18C246.79 464.88 317.61 464.84 320.1 464.01C322.59 463.18 320.39 456.07 317.64 453.88C314.89 451.69 287.75 439.58 287.75 439.58L285.7 393.32L240.46 393.41Z" fill="#AD6359"/>
<path d="M241.75 430.23C241.75 430.23 242.08 439.7 242.08 439.74C242.34 448.59 242.73 456.35 243.31 460.34C243.305 460.363 243.305 460.387 243.31 460.41C243.447 461.339 243.692 462.248 244.04 463.12C244.04 463.12 244.04 463.17 244.1 463.18C246.79 464.88 317.61 464.84 320.1 464.01C322.59 463.18 320.39 456.07 317.64 453.88C314.89 451.69 287.75 439.58 287.75 439.58L287.55 429.93L241.75 430.23Z" fill="#EBEBEB"/>
<path d="M320.12 463.92C317.62 464.73 246.23 463.62 243.54 461.85C242.54 461.19 242.06 450.78 241.89 438.19V437.79L288 438V438.78C288 438.78 315.13 451.43 317.89 453.69C320.65 455.95 322.63 463.13 320.12 463.92Z" fill="#263238"/>
<path d="M319.36 461.14C307.36 460.66 258.77 459.85 246.84 460.29C246.74 460.29 246.74 460.36 246.84 460.36C258.75 461.1 307.32 461.52 319.35 461.36C319.61 461.34 319.61 461.15 319.36 461.14Z" fill="white"/>
<path d="M291.79 439C287.06 438 281.26 438.68 277.59 442C277.45 442.13 277.59 442.33 277.79 442.28C282.348 440.89 287.041 439.992 291.79 439.6C291.856 439.583 291.915 439.544 291.957 439.49C291.999 439.435 292.022 439.369 292.022 439.3C292.022 439.231 291.999 439.165 291.957 439.11C291.915 439.056 291.856 439.017 291.79 439Z" fill="white"/>
<path d="M295.17 441.09C290.45 440.09 284.65 440.77 280.98 444.09C280.83 444.22 280.98 444.42 281.17 444.38C285.728 442.989 290.421 442.087 295.17 441.69C295.25 441.69 295.326 441.658 295.382 441.602C295.438 441.546 295.47 441.469 295.47 441.39C295.47 441.31 295.438 441.234 295.382 441.178C295.326 441.122 295.25 441.09 295.17 441.09Z" fill="white"/>
<path d="M298.56 443.2C293.84 442.2 288.03 442.88 284.36 446.2C284.22 446.32 284.36 446.52 284.56 446.48C289.117 445.085 293.81 444.187 298.56 443.8C298.64 443.8 298.716 443.768 298.772 443.712C298.828 443.656 298.86 443.58 298.86 443.5C298.86 443.42 298.828 443.344 298.772 443.288C298.716 443.232 298.64 443.2 298.56 443.2Z" fill="white"/>
<path d="M321.25 461.38C322.52 461.89 322.18 466.18 321.25 466.51C320.32 466.84 242.5 465.29 241.18 464.97C239.86 464.65 240.42 459.91 241.96 459.7C243.5 459.49 321.25 461.38 321.25 461.38Z" fill="#FF2150"/>
<path d="M253.55 446C248.41 443.33 244.26 451.31 249.4 454C254.54 456.69 258.69 448.64 253.55 446Z" fill="white"/>
<path d="M247.88 190.33C247.7 191.19 237.27 232.43 235.96 233.21C234.49 234.08 273.87 287.07 278.54 313.08C281.54 329.72 288.34 426.7 288.34 426.7H238.17C238.17 426.7 233.26 344.34 231.61 317.2C230.97 306.67 189.94 261.47 186.56 226.71C185.56 216.46 193.88 190.29 193.88 190.29L247.88 190.33Z" fill="#37474F"/>
<path d="M236.9 387.47C236.31 373.83 235.76 360.16 234.77 346.53C234.21 338.82 233.1 331.34 232.34 323.64C232.34 323.24 231.97 323.14 231.98 323.56C232.34 337.26 233.47 350.81 234.2 364.5C234.93 378.19 235.63 381.39 236.4 395.03C236.84 402.75 237.22 410.48 237.82 418.19C237.827 418.21 237.839 418.227 237.856 418.24C237.873 418.252 237.894 418.259 237.915 418.259C237.936 418.259 237.957 418.252 237.974 418.24C237.991 418.227 238.003 418.21 238.01 418.19C238 404.48 237.5 401.16 236.9 387.47Z" fill="#263238"/>
<path d="M278.59 313.7C278.161 310.086 277.463 306.509 276.5 303C275.467 299.608 274.104 296.326 272.43 293.2C269.01 286.64 265.12 280.29 261.37 273.92C257.62 267.55 253.71 261.03 249.75 254.67C247.523 251.103 245.283 247.537 243.03 243.97C240.76 240.36 238.34 236.84 235.98 233.3C235.89 233.16 235.67 233.3 235.76 233.43C239.6 239.87 243.4 246.33 247.24 252.77C251.08 259.21 254.86 265.67 258.65 272.14C262.44 278.61 266.11 284.87 269.65 291.32C271.411 294.387 272.923 297.59 274.17 300.9C275.341 304.33 276.192 307.862 276.71 311.45C278.04 319.79 279.14 328.18 280.82 336.45C280.82 336.56 281.01 336.53 281 336.45C280.5 328.86 279.6 321.25 278.59 313.7Z" fill="#263238"/>
<path d="M283.94 418.05C281.07 417.68 259.19 416.92 240.89 417.7C240.87 417.707 240.853 417.719 240.84 417.736C240.828 417.754 240.821 417.774 240.821 417.795C240.821 417.816 240.828 417.837 240.84 417.854C240.853 417.871 240.87 417.884 240.89 417.89C246.89 418.42 280.55 418.65 283.89 418.26C284 418.25 284.07 418.07 283.94 418.05Z" fill="#263238"/>
<path d="M242.52 230.35C237.393 232.213 232.437 234.518 227.71 237.24C227.675 237.261 227.649 237.294 227.637 237.333C227.624 237.371 227.626 237.413 227.642 237.451C227.657 237.488 227.686 237.519 227.722 237.537C227.759 237.555 227.801 237.56 227.84 237.55C232.84 235.41 237.92 233.36 242.79 230.94C242.868 230.904 242.929 230.839 242.959 230.758C242.989 230.677 242.986 230.588 242.95 230.51C242.914 230.432 242.849 230.371 242.768 230.341C242.687 230.311 242.598 230.314 242.52 230.35Z" fill="#263238"/>
<path d="M244 196.17C244 196 243.68 195.96 243.68 196.17C243.683 201.74 243.406 207.307 242.85 212.85C242.62 215.42 240.55 229.62 236.09 228.58C235.35 228.41 234.96 227.68 234.85 226.58C234.868 225.111 235.067 223.65 235.44 222.23C235.93 219.23 236.33 216.23 236.59 213.23C237.105 207.635 237.045 202.002 236.41 196.42C236.402 196.388 236.383 196.36 236.356 196.34C236.33 196.319 236.298 196.308 236.265 196.308C236.232 196.308 236.2 196.319 236.174 196.34C236.147 196.36 236.128 196.388 236.12 196.42C236.248 204.173 235.793 211.925 234.76 219.61C234.2 223.31 232.34 228.87 236.21 229.44C240.08 230.01 242.69 220.7 243.21 218.15C244.422 210.888 244.688 203.5 244 196.17Z" fill="#263238"/>
<path d="M236.23 228.94C235.831 229.897 235.497 230.879 235.23 231.88C234.938 232.653 234.796 233.474 234.81 234.3C234.81 234.46 235.04 234.47 235.12 234.37C235.565 233.636 235.902 232.841 236.12 232.01C236.45 231.1 236.81 230.2 237.12 229.28C237.126 229.174 237.098 229.069 237.04 228.98C236.983 228.891 236.898 228.823 236.799 228.785C236.7 228.747 236.592 228.742 236.489 228.77C236.387 228.797 236.296 228.857 236.23 228.94Z" fill="#263238"/>
<path d="M238.32 330.4C237.86 323.4 237.88 315.99 234.9 309.48C233.313 306.313 231.488 303.271 229.44 300.38C227.4 297.28 225.4 294.153 223.44 291C215.52 278.42 207.95 265.59 201.02 252.43C197.69 246.09 194.61 239.56 192.94 232.56C191.3 225.201 190.989 217.609 192.02 210.14C192.25 208.28 192.51 206.43 192.82 204.58C192.82 204.45 192.64 204.39 192.61 204.53C190.994 211.643 190.438 218.955 190.96 226.23C191.721 233.181 193.68 239.948 196.75 246.23C199.8 252.85 203.44 259.23 207.02 265.55C210.707 272.083 214.513 278.553 218.44 284.96C222.34 291.32 226.44 297.56 230.51 303.82C232.583 306.779 234.201 310.031 235.31 313.47C236.204 317.056 236.717 320.726 236.84 324.42C237.84 339.93 241.78 391.47 243.16 406.9C243.34 408.9 243.51 410.82 243.69 412.77C243.69 412.95 243.97 412.94 243.96 412.77C243.35 397.28 239.35 345.85 238.32 330.4Z" fill="#263238"/>
<path d="M210.66 203.89C210.66 203.78 210.48 203.82 210.47 203.89C210.33 208.2 210.47 212.64 208.79 216.71C207.27 220.44 204.22 223.06 200.79 225.02C198.802 226.13 196.756 227.131 194.66 228.02C194.51 228.08 194.57 228.32 194.73 228.27C198.73 227.01 202.73 225.64 206.04 223C209.57 220.17 211.11 216.06 211.29 211.62C211.343 209.029 211.132 206.439 210.66 203.89Z" fill="#263238"/>
<path d="M245.81 137C249.03 145.14 269.67 174.41 283.15 175.79C296.89 177.21 326.63 157.17 329.78 155.09C331.84 153.74 317.9 129.74 314.7 131.75C306.08 137.18 285.8 150.82 281.92 148.96C273.77 145.07 267.49 139.65 255.76 131.96C247.58 126.59 242.26 128 245.81 137Z" fill="#AD6359"/>
<path d="M347.41 143.44C340.73 150.31 330.18 155.58 326.8 156C323.42 156.42 312.22 137 313.54 133.78C314.86 130.56 328.6 113.07 334.61 111.93C340.62 110.79 351.75 139 347.41 143.44Z" fill="#AD6359"/>
<path d="M338.31 116.68C338.31 116.68 331.86 119.56 329.78 120.68C328 121.61 324.44 123.77 325.16 127.21C325.88 130.65 330.63 128.93 330.97 128.82C330.69 128.98 325.86 131.95 326.97 135.33C328.08 138.71 332.6 136.41 332.89 136.26C332.77 136.39 342.66 129.26 345.1 130.85C347.85 132.68 345.7 144.78 345.73 144.85C345.76 144.92 367.3 127.71 365.83 123.79C364.08 119.1 349.65 130.07 349.65 130.07C349.65 130.07 352.48 126.86 351.72 124.17C351.32 122.79 348.77 122.17 348.77 122.17C349.327 121.65 349.731 120.987 349.938 120.254C350.144 119.52 350.145 118.744 349.94 118.01C349.28 116.13 346.82 115.82 346.82 115.82C346.82 115.82 364.53 109.82 360.27 105.03C357.66 102.09 339.57 110.2 334.64 111.93C334.61 111.93 338.82 113.6 338.31 116.68Z" fill="#AD6359"/>
<path d="M348.81 122.12C348.88 122.12 348.86 122 348.81 122C342.208 122.003 335.824 124.365 330.81 128.66C330.64 128.82 330.64 129.13 330.81 128.97C334.34 126.21 343.36 122.93 348.81 122.12Z" fill="#263238"/>
<path d="M333.12 136.64C338.07 132.49 340.66 131.76 346.92 130.4C347 130.4 346.97 130.27 346.92 130.26C344.578 130.02 342.212 130.342 340.02 131.2C337.238 132.264 334.812 134.091 333.02 136.47C332.9 136.56 333 136.73 333.12 136.64Z" fill="#263238"/>
<path d="M329.78 120.65C328.73 121.229 327.751 121.927 326.86 122.73C325.896 123.516 325.169 124.555 324.76 125.73C324.573 126.376 324.638 127.069 324.94 127.67C325.235 128.264 325.679 128.77 326.23 129.14C326.89 129.557 327.66 129.766 328.44 129.74C328.8 129.38 329.19 129.03 329.59 128.74L330.05 129.54C329.529 129.704 328.986 129.785 328.44 129.78C327.903 130.303 327.42 130.879 327 131.5C326.606 132.056 326.334 132.689 326.201 133.358C326.069 134.026 326.079 134.715 326.23 135.38C326.418 136.071 326.812 136.688 327.36 137.15C327.93 137.599 328.635 137.842 329.36 137.84C330.011 137.827 330.655 137.712 331.27 137.5C331.595 136.918 331.98 136.371 332.42 135.87L333.08 136.65L333.15 136.57L335.21 134.25L332.53 135.78C331.576 136.371 330.49 136.715 329.37 136.78C328.871 136.789 328.384 136.627 327.989 136.322C327.595 136.016 327.316 135.585 327.2 135.1C327.082 134.576 327.075 134.032 327.18 133.505C327.285 132.978 327.5 132.479 327.81 132.04C328.431 131.066 329.204 130.198 330.1 129.47L332.1 127.8L329.64 128.66C329.145 128.857 328.614 128.948 328.081 128.925C327.549 128.903 327.027 128.768 326.55 128.53C326.088 128.26 325.706 127.874 325.44 127.41C325.185 126.946 325.111 126.405 325.23 125.89C325.553 124.781 326.163 123.777 327 122.98C327.851 122.118 328.782 121.337 329.78 120.65Z" fill="#263238"/>
<path d="M332.48 135.87C332.04 136.371 331.655 136.917 331.33 137.5C331.959 137.274 332.565 136.989 333.14 136.65L332.48 135.87Z" fill="#263238"/>
<path d="M329.59 128.7C329.19 129.03 328.8 129.38 328.44 129.7C328.986 129.705 329.529 129.624 330.05 129.46L329.59 128.7Z" fill="#263238"/>
<path d="M315.55 130.91C315.55 130.91 323.15 106.62 331.19 114.24C333.58 116.51 340.68 128.66 338.27 130.13C335.15 132.04 331.27 127.52 329.27 124.29C329.27 124.29 327.85 132.92 321.55 133.72C320.388 133.854 319.211 133.662 318.152 133.166C317.092 132.67 316.191 131.889 315.55 130.91Z" fill="#AD6359"/>
<path d="M330.48 113.65C331.521 114.429 332.444 115.356 333.22 116.4C334.018 117.425 334.75 118.501 335.41 119.62C336.757 121.849 337.908 124.191 338.85 126.62C339.102 127.261 339.26 127.934 339.32 128.62C339.351 129.018 339.293 129.417 339.15 129.79C339.076 129.997 338.968 130.189 338.83 130.36C338.685 130.522 338.517 130.66 338.33 130.77C337.659 131.168 336.867 131.31 336.1 131.17C335.394 131.034 334.718 130.777 334.1 130.41C332.955 129.693 331.941 128.787 331.1 127.73C330.264 126.715 329.505 125.638 328.83 124.51L329.66 124.34C329.458 125.318 329.167 126.275 328.79 127.2C328.424 128.118 327.965 128.995 327.42 129.82C326.864 130.641 326.19 131.375 325.42 132C324.664 132.621 323.794 133.089 322.86 133.38C323.731 132.974 324.528 132.426 325.22 131.76C325.89 131.093 326.468 130.339 326.94 129.52C327.409 128.698 327.8 127.834 328.11 126.94C328.416 126.053 328.637 125.139 328.77 124.21L328.93 123.06L329.6 124.06C330.29 125.111 331.052 126.114 331.88 127.06C332.664 128.01 333.596 128.827 334.64 129.48C335.081 129.804 335.597 130.009 336.14 130.075C336.683 130.142 337.234 130.068 337.74 129.86C338.52 129.46 338.24 128.07 337.87 126.93C337.5 125.79 336.96 124.57 336.45 123.4C335.94 122.23 335.39 121.06 334.8 119.93C333.692 117.627 332.235 115.508 330.48 113.65Z" fill="#263238"/>
<path d="M326.76 158.12L310.36 133.4C307.694 133.396 305.065 134.027 302.69 135.24C295.55 138.62 283.35 148.24 281.53 147.56C278.58 146.56 267.74 138.94 258.2 132.07C248.66 125.2 235.2 122.07 246.5 141.15C257.8 160.23 274.37 175.15 281.5 177.15C286.18 178.46 310.33 171.96 321.85 164.69C324.263 163.205 326.019 160.855 326.76 158.12Z" fill="#FF2150"/>
<path d="M319.09 163.53C318.295 162.466 317.56 161.357 316.89 160.21C316.25 159.21 315.58 158.21 314.95 157.21C313.56 155.03 312.16 152.85 310.78 150.66C309.4 148.47 308.03 146.3 306.67 144.1C305.31 141.9 303.91 139.76 302.67 137.51C302.663 137.5 302.659 137.489 302.657 137.478C302.654 137.466 302.654 137.454 302.657 137.442C302.659 137.431 302.664 137.42 302.67 137.41C302.677 137.4 302.685 137.392 302.695 137.385C302.705 137.378 302.716 137.374 302.728 137.372C302.739 137.369 302.751 137.369 302.763 137.372C302.774 137.374 302.785 137.379 302.795 137.385C302.805 137.392 302.813 137.4 302.82 137.41C304.46 139.41 305.9 141.54 307.36 143.66C308.82 145.78 310.18 147.87 311.53 150.01C312.88 152.15 314.23 154.41 315.53 156.64C316.16 157.71 316.75 158.81 317.34 159.9C318.035 161.037 318.653 162.22 319.19 163.44C319.22 163.53 319.14 163.59 319.09 163.53Z" fill="#263238"/>
<path opacity="0.1" d="M278.58 175.88C270.48 171.5 256.43 157.93 246.5 141.15C241.61 132.89 241.36 128.8 243.43 127.36L278.58 175.88Z" fill="black"/>
<path d="M187.59 214.87L262.24 217.97C262.56 217.67 265.36 216.57 264.93 206.36C263.93 183.12 256.37 141.56 251.71 132.58C250.847 130.774 249.632 129.157 248.138 127.825C246.644 126.493 244.899 125.471 243.006 124.82C241.113 124.168 239.109 123.9 237.112 124.03C235.114 124.161 233.162 124.688 231.37 125.58C227.14 128.01 223.21 131.25 218.15 138.21C205.73 155.33 191.95 185.87 187.15 202.75C185.11 209.74 187.44 214.66 187.59 214.87Z" fill="#FF2150"/>
<path opacity="0.1" d="M238.49 210.46C245.81 210.76 253.07 211.06 260.34 211.46L259.93 211.91L258.29 200.6L258.53 200.92C257.207 200.241 256.074 199.244 255.23 198.02C254.411 196.817 253.784 195.495 253.37 194.1C252.931 192.735 252.62 191.332 252.44 189.91C252.241 188.496 252.147 187.068 252.16 185.64L252.54 186.06L235.33 185.12L235.7 184.83L235.04 187.48C234.8 188.36 234.46 189.22 234.18 190.08C233.9 190.94 233.45 191.76 233.07 192.6L232.37 193.78C232.26 193.98 232.14 194.18 232.02 194.37L231.6 194.92C230.535 196.446 229.096 197.672 227.42 198.48C225.721 199.251 223.814 199.434 222 199L222.2 198.91L216.4 209.53L238.49 210.46ZM221.89 198.77L221.94 198.66H222.09C223.826 199.004 225.627 198.773 227.22 198C228.813 197.207 230.172 196.01 231.16 194.53L231.55 194C231.67 193.81 231.78 193.62 231.89 193.42L232.55 192.27C232.9 191.45 233.29 190.64 233.55 189.8C233.81 188.96 234.13 188.11 234.35 187.24L234.96 184.63L235.03 184.32H235.33L252.55 185.16H252.94V185.56C252.94 186.945 253.041 188.329 253.24 189.7C253.424 191.058 253.729 192.396 254.15 193.7C254.549 195.006 255.138 196.246 255.9 197.38C256.651 198.487 257.665 199.39 258.85 200.01L259.06 200.12V200.34L260.63 211.66L260.7 212.13H260.22C252.85 211.74 245.47 211.28 238.14 210.83L216.32 209.46L221.89 198.77Z" fill="black"/>
<path d="M226.11 127.29C207.8 129.69 182.55 136.87 174.47 142.45C168.81 146.37 155.97 173.54 153.66 181.66C152.66 185.16 178.18 197.29 180.22 193.98C182.66 189.98 194.02 158.7 195.22 158.56C196.42 158.42 217.05 147.32 229.84 138.4C243.88 128.63 233.29 126.35 226.11 127.29Z" fill="#AD6359"/>
<path d="M152.37 181.05L184.86 190.35C186.735 188.088 188.1 185.448 188.86 182.61C190.86 174.98 192 164.06 193.28 162.61C195.36 160.27 218.09 147.81 228.05 141.56C238.01 135.31 245.36 123.17 223.45 126.45C201.54 129.73 177.24 138 171.67 142.07C167.75 144.95 158.55 160.07 153.36 170.32C151.18 174.62 152.37 181.05 152.37 181.05Z" fill="#FF2150"/>
<path d="M208.71 153C210.65 151.86 212.61 150.74 214.57 149.64C216.77 148.4 218.99 147.197 221.23 146.03C223.41 144.89 225.63 143.86 227.84 142.79C228 142.71 228.14 142.98 227.98 143.07C225.13 144.6 222.31 146.2 219.49 147.8C221 147.27 222.49 146.8 224.05 146.29C224.062 146.285 224.076 146.283 224.089 146.284C224.102 146.284 224.115 146.288 224.127 146.293C224.14 146.299 224.15 146.307 224.159 146.316C224.168 146.326 224.175 146.338 224.18 146.35C224.185 146.363 224.187 146.376 224.186 146.389C224.186 146.402 224.183 146.415 224.177 146.427C224.171 146.44 224.163 146.45 224.154 146.459C224.144 146.468 224.132 146.475 224.12 146.48C222.3 147.13 220.46 147.72 218.61 148.3L216.61 149.45C212.78 151.6 206.89 154.07 208.71 153Z" fill="#263238"/>
<path d="M155.38 173C156.674 173.305 157.95 173.686 159.2 174.14C160.33 174.49 161.47 174.82 162.6 175.14C165.06 175.93 167.53 176.7 169.99 177.5C172.45 178.3 174.9 179.09 177.35 179.91C179.8 180.73 182.25 181.46 184.64 182.41C184.73 182.41 184.64 182.59 184.64 182.58C182.11 182.11 179.64 181.38 177.15 180.69C174.66 180 172.29 179.27 169.88 178.49C167.47 177.71 164.99 176.84 162.56 175.96C161.4 175.53 160.24 175.07 159.09 174.61C157.829 174.179 156.596 173.668 155.4 173.08C155.28 173.08 155.31 173 155.38 173Z" fill="#263238"/>
<path d="M243.43 142.46C243.43 142.46 234.71 127.97 227.07 126.26L215.7 127.78C215.7 127.78 213.41 127.92 213.11 126.41C212.35 122.68 217.56 117.11 225.8 113.7C233.34 110.59 246.03 114.93 254.05 119.44C261.76 123.78 265.05 129.83 261.1 134.57C257.15 139.31 243.43 142.46 243.43 142.46Z" fill="#FF2150"/>
<path opacity="0.1" d="M244.92 140.14C244.92 140.14 256.17 135.84 258.2 132.07C260.23 128.3 253.2 122.37 248.38 119.52C240.95 115.1 235.38 114.19 229.72 117.31C224.06 120.43 244.92 140.14 244.92 140.14Z" fill="black"/>
<path d="M237.88 108.41C237.366 110.134 236.697 111.807 235.88 113.41C235.07 114.59 231.65 114.89 231.65 114.89C231.65 114.89 234.56 117.28 235.59 117.4C236.62 117.52 239.02 115.64 239.02 115.64C239.02 115.64 236.21 119.02 234.78 118.73C233.89 118.55 236.78 119.64 236.78 119.64C237.778 119.928 238.847 119.835 239.78 119.38C241.14 118.61 237.88 108.41 237.88 108.41Z" fill="#263238"/>
<path d="M258.76 110C258.3 114 260.76 117.5 264.21 117.91C267.66 118.32 270.88 115.44 271.34 111.48C271.8 107.52 269.34 103.98 265.9 103.57C262.46 103.16 259.23 106 258.76 110Z" fill="#455A64"/>
<path d="M256.69 110C256.18 114.4 258.89 118.34 262.75 118.8C266.61 119.26 270.17 116.05 270.69 111.64C271.21 107.23 268.5 103.3 264.63 102.84C260.76 102.38 257.21 105.57 256.69 110Z" fill="#C7C7C7"/>
<path d="M246.27 139.61C241.82 139.86 236.27 133.24 235.27 127.76C235.21 127.39 236.83 124.22 238.62 120.27C239.7 117.87 240.84 115.18 241.71 112.64L256.29 121.93C254.299 124.789 252.667 127.883 251.43 131.14C251.316 131.492 251.232 131.853 251.18 132.22C250.09 135.65 248.27 139.49 246.27 139.61Z" fill="#AD6359"/>
<path d="M256.33 121.93C254.344 124.791 252.716 127.884 251.48 131.14C251.361 131.491 251.277 131.853 251.23 132.22L251.17 132.39C250.611 132.28 250.062 132.123 249.53 131.92C240.33 128.49 241.32 117.32 242.12 112.92L256.33 121.93Z" fill="#263238"/>
<path d="M240.71 94.9999C237.96 100.59 238.33 118.08 241.9 122.54C247.07 129.01 256.9 131.14 262.76 124.61C268.42 118.27 267.54 95.4899 263.43 91.2899C257.37 85.1199 244.76 86.7599 240.71 94.9999Z" fill="#AD6359"/>
<path d="M253.1 104.87C253.605 104.737 254.102 104.577 254.59 104.39C255.137 104.288 255.635 104.011 256.01 103.6C256.109 103.446 256.152 103.262 256.132 103.08C256.112 102.898 256.03 102.729 255.9 102.6C255.62 102.383 255.287 102.245 254.935 102.199C254.584 102.154 254.227 102.202 253.9 102.34C253.196 102.528 252.585 102.965 252.18 103.57C252.088 103.714 252.041 103.882 252.045 104.053C252.05 104.224 252.104 104.39 252.203 104.529C252.302 104.669 252.44 104.775 252.6 104.836C252.759 104.897 252.934 104.909 253.1 104.87Z" fill="#263238"/>
<path d="M265.05 105.12C264.538 105.007 264.034 104.864 263.54 104.69C262.991 104.615 262.482 104.362 262.09 103.97C261.988 103.82 261.939 103.639 261.952 103.458C261.964 103.276 262.038 103.105 262.16 102.97C262.434 102.742 262.763 102.591 263.115 102.533C263.467 102.475 263.827 102.512 264.16 102.64C264.871 102.793 265.499 103.207 265.92 103.8C266.018 103.94 266.072 104.105 266.074 104.276C266.076 104.446 266.028 104.613 265.934 104.756C265.84 104.898 265.706 105.009 265.548 105.074C265.39 105.139 265.217 105.155 265.05 105.12Z" fill="#263238"/>
<path d="M254.29 118.76C254.57 119.05 254.84 119.43 255.29 119.48C255.728 119.48 256.16 119.388 256.56 119.21C256.56 119.21 256.64 119.21 256.56 119.27C256.387 119.499 256.156 119.677 255.89 119.785C255.624 119.892 255.333 119.925 255.05 119.88C254.813 119.811 254.601 119.674 254.441 119.485C254.281 119.297 254.179 119.066 254.15 118.82C254.16 118.75 254.25 118.72 254.29 118.76Z" fill="#263238"/>
<path d="M255.61 115.27C255.899 115.743 256.282 116.15 256.737 116.467C257.191 116.784 257.707 117.003 258.25 117.11C258.722 117.218 259.208 117.252 259.69 117.21H259.97H260.23C260.292 117.2 260.348 117.17 260.391 117.125C260.435 117.08 260.462 117.022 260.47 116.96C260.475 116.92 260.475 116.88 260.47 116.84V116.73C260.52 115.83 260.47 114.45 260.47 114.45C260.8 114.62 262.47 115.45 262.47 114.94C262.46 110.851 262.035 106.773 261.2 102.77C261.2 102.741 261.188 102.713 261.168 102.692C261.147 102.671 261.119 102.66 261.09 102.66C261.061 102.66 261.033 102.671 261.012 102.692C260.992 102.713 260.98 102.741 260.98 102.77C260.98 106.55 261.62 110.3 261.67 114.1C261.077 113.802 260.444 113.593 259.79 113.48C259.66 113.48 259.95 116.15 259.9 116.56C259.155 116.618 258.406 116.525 257.698 116.286C256.99 116.047 256.338 115.667 255.78 115.17C255.64 115.09 255.54 115.17 255.61 115.27Z" fill="#263238"/>
<path d="M259.17 116.74C258.658 117.377 257.99 117.87 257.23 118.17C256.805 118.31 256.345 118.31 255.92 118.17C254.99 117.9 254.99 117.04 255.18 116.31C255.28 115.92 255.428 115.544 255.62 115.19C256.609 116.071 257.852 116.614 259.17 116.74Z" fill="#263238"/>
<path d="M257.23 118.17C256.805 118.31 256.345 118.31 255.92 118.17C254.99 117.9 254.99 117.04 255.18 116.31C255.682 116.34 256.159 116.541 256.532 116.879C256.905 117.218 257.151 117.673 257.23 118.17Z" fill="#FF97B8"/>
<path d="M252.39 107.43C252.717 107.349 253.054 107.315 253.39 107.33C253.73 107.34 254.067 107.401 254.39 107.51C254.725 107.632 255.037 107.811 255.31 108.04C255.579 108.292 255.791 108.599 255.93 108.94L256.17 109.56L255.52 109.41C255.053 109.307 254.578 109.25 254.1 109.24C253.608 109.22 253.119 109.327 252.68 109.55C253.008 109.107 253.496 108.809 254.04 108.72C254.581 108.61 255.139 108.61 255.68 108.72L255.27 109.19C255.037 108.691 254.642 108.286 254.15 108.04C253.59 107.768 252.999 107.563 252.39 107.43Z" fill="#263238"/>
<path d="M254 110.3C254.517 110.243 255.025 110.118 255.51 109.93C255.62 109.88 256.06 109.63 256.05 109.55C256.026 109.293 255.965 109.04 255.87 108.8C256.032 109.02 256.144 109.273 256.2 109.54C256.148 109.678 256.068 109.804 255.965 109.909C255.862 110.014 255.737 110.096 255.6 110.15C255.089 110.34 254.537 110.392 254 110.3Z" fill="#263238"/>
<path d="M265.34 107.78C265.064 107.7 264.776 107.669 264.49 107.69C264.192 107.701 263.898 107.762 263.62 107.87C263.305 107.999 263.022 108.195 262.789 108.443C262.556 108.692 262.379 108.987 262.27 109.31L262.05 109.93L262.63 109.78C263.032 109.675 263.445 109.614 263.86 109.6C264.297 109.578 264.731 109.683 265.11 109.9C264.977 109.69 264.803 109.509 264.599 109.368C264.394 109.227 264.163 109.129 263.92 109.08C263.45 108.97 262.96 108.97 262.49 109.08L262.84 109.55C263.035 109.063 263.387 108.655 263.84 108.39C264.312 108.125 264.816 107.92 265.34 107.78Z" fill="#263238"/>
<path d="M264 110.66C263.548 110.604 263.107 110.482 262.69 110.3C262.6 110.3 262.21 110 262.22 109.92C262.242 109.664 262.295 109.412 262.38 109.17C262.237 109.4 262.139 109.654 262.09 109.92C262.132 110.048 262.2 110.167 262.29 110.268C262.379 110.37 262.488 110.452 262.61 110.51C263.047 110.7 263.532 110.752 264 110.66Z" fill="#263238"/>
<path d="M242 109.54C242 109.54 238.94 103.48 236.25 104.49C233.56 105.5 235.3 113.91 238.08 115.42C238.42 115.642 238.802 115.793 239.203 115.863C239.603 115.933 240.014 115.921 240.409 115.827C240.805 115.733 241.177 115.561 241.504 115.319C241.831 115.077 242.105 114.771 242.31 114.42L242 109.54Z" fill="#AD6359"/>
<path d="M236.81 106.89V106.96C238.75 108.09 239.56 110.16 240.03 112.24C239.94 112.017 239.803 111.816 239.628 111.651C239.452 111.486 239.243 111.361 239.015 111.285C238.787 111.209 238.545 111.183 238.305 111.21C238.066 111.237 237.836 111.315 237.63 111.44C237.57 111.44 237.63 111.56 237.63 111.56C238.008 111.496 238.398 111.55 238.743 111.717C239.089 111.884 239.375 112.154 239.56 112.49C239.869 113.051 240.114 113.644 240.29 114.26C240.36 114.46 240.71 114.41 240.67 114.19C241.1 111.52 239.59 107.56 236.81 106.89Z" fill="#263238"/>
<path d="M238.86 109.17C242 108.93 245.53 99.28 245.53 99.28L244.99 104.86C246.639 103.968 248.08 102.738 249.22 101.25C250.169 99.6277 250.634 97.7679 250.56 95.89C252.406 98.0086 254.614 99.7828 257.08 101.13C258.4 101.78 267.39 103.79 267.52 103.13C267.91 101.23 266.52 94.13 264.25 91.88C261.69 89.25 255.25 85.15 248.62 86.25C243.33 87.14 243.03 91.03 241.42 93.46C241.42 93.46 237.27 95.61 236.79 97.04C235.77 100.15 237.71 109.26 238.86 109.17Z" fill="#263238"/>
<path d="M239.46 105C239.46 105 239.46 96.2799 242.39 91.6699C245.61 86.5499 255.55 85.6699 259.62 88.5199C259.62 88.5199 252.42 85.3499 245.8 92.2999C243.01 95.2299 242.34 105.44 242.34 105.44L239.46 105Z" fill="#C7C7C7"/>
<path d="M247.27 110C247 114.42 243.63 117.82 239.74 117.58C235.85 117.34 232.93 113.58 233.21 109.12C233.49 104.66 236.85 101.3 240.74 101.54C244.63 101.78 247.55 105.54 247.27 110Z" fill="#C7C7C7"/>
<path d="M245.24 109.59C244.99 113.59 241.96 116.59 238.47 116.4C234.98 116.21 232.35 112.78 232.6 108.8C232.85 104.82 235.88 101.8 239.37 101.99C242.86 102.18 245.49 105.61 245.24 109.59Z" fill="#455A64"/>
<path d="M241.79 109.45C241.644 110.189 241.289 110.871 240.766 111.413C240.243 111.955 239.575 112.335 238.842 112.508C238.109 112.681 237.341 112.638 236.631 112.386C235.921 112.134 235.299 111.682 234.839 111.085C234.379 110.489 234.101 109.772 234.038 109.022C233.974 108.271 234.129 107.518 234.482 106.853C234.836 106.188 235.374 105.638 236.031 105.271C236.689 104.903 237.438 104.733 238.19 104.78C239.285 104.924 240.279 105.497 240.954 106.372C241.628 107.247 241.929 108.354 241.79 109.45Z" fill="#37474F"/>
<path d="M244.92 140.14C244.92 140.14 239.68 121.82 228.37 117.2L227.07 126.26C227.07 126.26 234.07 128.09 243.43 142.46L244.92 140.14Z" fill="#FF2150"/>
<path d="M223.87 125.59C226.043 125.978 228.108 126.824 229.93 128.07C231.772 129.268 233.47 130.674 234.99 132.26C236.53 133.832 237.966 135.502 239.29 137.26L241.2 139.96L242.99 142.74L243.2 143.05L243.53 142.98C246.01 142.424 248.449 141.699 250.83 140.81C252.028 140.387 253.197 139.886 254.33 139.31C255.474 138.753 256.559 138.083 257.57 137.31C255.367 138.517 253.036 139.473 250.62 140.16C249.42 140.53 248.21 140.85 246.99 141.16C245.77 141.47 244.55 141.75 243.33 141.98L243.87 142.22L242.09 139.36C241.46 138.44 240.81 137.52 240.15 136.61C239.49 135.7 238.75 134.85 238.01 134.01C237.27 133.17 236.5 132.34 235.66 131.59C234.033 130.033 232.215 128.689 230.25 127.59C229.76 127.31 229.25 127.07 228.74 126.83C228.23 126.59 227.74 126.4 227.16 126.23C226.107 125.834 224.995 125.618 223.87 125.59Z" fill="#263238"/>
<path d="M216 127.74C218 127.67 219.93 127.46 221.79 127.22C223.574 126.984 225.343 126.65 227.09 126.22C225.09 126.29 223.16 126.49 221.3 126.73C219.517 126.973 217.748 127.31 216 127.74Z" fill="#263238"/>
<path d="M240.79 136.79C239.508 140.414 238.538 144.141 237.89 147.93C237.43 150.57 236.97 160.24 239.96 160.35C242.95 160.46 239.12 153.59 239.06 148.44C239 143.29 240.91 139.84 241.55 136.86L240.79 136.79Z" fill="#FF2150"/>
<g opacity="0.1">
<path d="M240.79 136.79C239.508 140.414 238.538 144.141 237.89 147.93C237.43 150.57 236.97 160.24 239.96 160.35C242.95 160.46 239.12 153.59 239.06 148.44C239 143.29 240.91 139.84 241.55 136.86L240.79 136.79Z" fill="black"/>
</g>
<path d="M251.65 137.85C252.157 141.299 252.368 144.785 252.28 148.27C252.23 150.71 250.94 159.38 248.28 158.96C245.62 158.54 250.22 153.09 251.18 148.52C252.14 143.95 251.05 140.52 250.99 137.78L251.65 137.85Z" fill="#FF2150"/>
<g opacity="0.1">
<path d="M251.65 137.85C252.157 141.299 252.368 144.785 252.28 148.27C252.23 150.71 250.94 159.38 248.28 158.96C245.62 158.54 250.22 153.09 251.18 148.52C252.14 143.95 251.05 140.52 250.99 137.78L251.65 137.85Z" fill="black"/>
</g>
<path d="M187.4 220.7C182.1 220.7 167.75 213.29 167.1 212.95L167.33 212.51C167.5 212.59 183.97 221.1 188.16 220.13C190.05 219.68 191.98 218.25 194.22 216.59C199.66 212.59 206.43 207.54 218.13 211.81C219.13 212.17 220.13 212.57 221.23 212.98C231.08 216.73 244.56 221.86 249.23 210.56C251.23 205.71 249.56 200.64 247.8 195.27C246.66 191.8 245.48 188.21 245.41 184.71C245.35 181.79 246.56 177.61 247.95 172.71C250.55 163.71 253.5 153.44 249.37 147.71C245.397 142.106 241.725 136.294 238.37 130.3C235.97 125.72 239.18 112.93 239.37 112.39L239.85 112.51C239.85 112.64 236.55 125.66 238.85 130.06C242.173 136.035 245.815 141.826 249.76 147.41C254.04 153.35 251.06 163.71 248.42 172.86C247.1 177.47 245.85 181.86 245.9 184.66C245.96 188.08 247.13 191.66 248.26 195.08C249.98 200.29 251.75 205.69 249.69 210.71C244.86 222.46 231.11 217.22 221.08 213.4C220 212.99 218.97 212.6 217.98 212.24C206.53 208.06 199.88 212.99 194.54 216.95C192.26 218.64 190.28 220.11 188.29 220.57C188 220.649 187.701 220.692 187.4 220.7Z" fill="#263238"/>
<path d="M249.63 148.05C249.3 144.47 253.63 140.44 257.51 136.88C259.202 135.405 260.783 133.808 262.24 132.1C264.71 128.92 266.5 118.37 266.51 118.26L267.01 118.34C266.93 118.78 265.19 129.12 262.63 132.41C261.162 134.139 259.564 135.754 257.85 137.24C254.09 140.72 249.85 144.67 250.13 148L249.63 148.05Z" fill="#263238"/>
<path d="M143.48 192L177.82 205.17C178.82 205.47 179.44 206.34 179.1 207.17L173.1 221.06C172.845 221.471 172.456 221.781 171.999 221.939C171.542 222.098 171.045 222.094 170.59 221.93L136.26 208.75C135.21 208.46 134.64 207.58 134.97 206.81L140.97 192.92C141.214 192.496 141.599 192.172 142.058 192.003C142.517 191.835 143.02 191.834 143.48 192Z" fill="#37474F"/>
<path d="M142.75 193.63L177.08 206.8C178.08 207.1 178.71 207.97 178.37 208.75L172.37 222.64C172.113 223.049 171.724 223.357 171.267 223.514C170.81 223.67 170.314 223.666 169.86 223.5L135.53 210.33C134.53 210.03 133.9 209.16 134.24 208.39L140.24 194.5C140.494 194.088 140.883 193.776 141.34 193.618C141.797 193.459 142.295 193.464 142.75 193.63Z" fill="#455A64"/>
<path d="M142.53 198.35C143.3 198.82 144.14 198.66 144.4 198C144.499 197.606 144.463 197.19 144.298 196.818C144.133 196.447 143.849 196.141 143.49 195.95C142.73 195.48 141.89 195.64 141.63 196.3C141.53 196.693 141.564 197.108 141.728 197.48C141.891 197.851 142.173 198.158 142.53 198.35Z" fill="#263238"/>
<path d="M174.684 217.227L181.948 220.483L182.881 218.403L175.617 215.146L174.684 217.227Z" fill="#FF2150"/>
<path d="M165.08 228C164.163 227.93 163.29 227.582 162.575 227.003C161.861 226.425 161.339 225.642 161.08 224.76C159.721 225.548 158.129 225.834 156.58 225.57C153.88 224.97 153.58 220.47 153.58 220.47C151.999 220.988 150.299 221.02 148.7 220.56C146.17 219.73 145.27 215.23 145.27 215.23C143.553 214.906 142.009 213.976 140.92 212.61C138.17 208.84 140.81 202.22 142.46 197.99C144.11 193.76 152.71 183.32 154.15 181.17L181.36 191.46C181.36 191.46 179.36 212.46 176.75 217.2C174.54 221.19 168.62 228.16 165.08 228Z" fill="#AD6359"/>
<path d="M161.18 224.8C164.54 221.16 166.65 216.73 169.01 212.42C169.013 212.402 169.01 212.383 169.002 212.366C168.993 212.349 168.98 212.336 168.963 212.327C168.947 212.318 168.928 212.315 168.91 212.317C168.891 212.319 168.874 212.327 168.86 212.34C166.57 216.65 163.45 220.45 160.98 224.66C160.961 224.687 160.954 224.719 160.96 224.751C160.965 224.783 160.983 224.812 161.01 224.83C161.037 224.849 161.069 224.856 161.101 224.85C161.133 224.845 161.161 224.827 161.18 224.8Z" fill="#263238"/>
<path d="M153.69 220.58C154.371 219.676 154.932 218.688 155.36 217.64C155.89 216.56 156.36 215.48 156.87 214.38C157.85 212.193 158.77 209.98 159.63 207.74C159.63 207.64 159.52 207.55 159.48 207.66C158.48 209.84 157.48 212.01 156.48 214.15C155.95 215.22 155.41 216.28 154.86 217.35C154.276 218.317 153.803 219.347 153.45 220.42C153.449 220.449 153.456 220.477 153.469 220.503C153.482 220.529 153.502 220.551 153.526 220.567C153.55 220.583 153.577 220.592 153.606 220.595C153.635 220.597 153.664 220.592 153.69 220.58Z" fill="#263238"/>
<path d="M145.32 215.18C145.928 214.358 146.391 213.438 146.69 212.46C147.11 211.46 147.54 210.46 147.98 209.46C148.84 207.46 149.71 205.46 150.65 203.46C150.65 203.36 150.55 203.28 150.5 203.38C149.5 205.38 148.55 207.38 147.6 209.38C147.14 210.38 146.68 211.38 146.23 212.38C145.732 213.246 145.393 214.194 145.23 215.18C145.236 215.186 145.243 215.191 145.25 215.195C145.258 215.198 145.266 215.2 145.275 215.2C145.283 215.2 145.292 215.198 145.3 215.195C145.307 215.191 145.314 215.186 145.32 215.18Z" fill="#263238"/>
<path d="M322 79.54C321.556 83.728 319.959 87.7108 317.386 91.045C314.813 94.3793 311.366 96.9343 307.427 98.4257C303.489 99.9172 299.213 100.287 295.077 99.4929C290.941 98.6992 287.107 96.7735 284 93.93L272.57 95.6L278.27 85.76C276.837 82.2819 276.297 78.5003 276.7 74.76C277.334 68.7529 280.328 63.2435 285.024 59.4441C287.349 57.5627 290.022 56.1578 292.89 55.3095C295.758 54.4612 298.766 54.1862 301.74 54.5C304.714 54.8139 307.598 55.7105 310.226 57.1388C312.854 58.567 315.175 60.4989 317.056 62.824C318.937 65.1492 320.342 67.8222 321.19 70.6903C322.039 73.5584 322.314 76.5656 322 79.54Z" fill="white"/>
<path d="M322 79.5401C321.552 83.7324 319.961 87.721 317.4 91.0701C316.765 91.9069 316.077 92.7019 315.34 93.4501C314.581 94.1647 313.78 94.8326 312.94 95.4501C309.554 98.012 305.526 99.5868 301.3 100C300.249 100.09 299.194 100.11 298.14 100.06C297.083 100.03 296.03 99.9201 294.99 99.7301C290.792 98.9617 286.892 97.036 283.73 94.1701L284 94.2501L272.63 96.0001L271.8 96.1301L272.22 95.4001L277.88 85.5401V85.9301C276.206 81.8573 275.736 77.3896 276.526 73.0576C277.316 68.7257 279.333 64.7116 282.338 61.4923C285.342 58.2731 289.208 55.9839 293.475 54.8969C297.742 53.8099 302.232 53.9706 306.41 55.3601C309.698 56.476 312.695 58.3143 315.18 60.7401C317.663 63.1551 319.566 66.1013 320.748 69.3574C321.929 72.6134 322.357 76.0948 322 79.5401ZM322 79.5401C322.363 76.1127 321.934 72.6479 320.747 69.4123C319.56 66.1768 317.646 63.2569 315.152 60.8775C312.659 58.4981 309.653 56.7228 306.365 55.6882C303.078 54.6536 299.597 54.3874 296.19 54.9101C292.816 55.4173 289.601 56.686 286.79 58.6201C284.014 60.5744 281.697 63.1098 280 66.0501C278.323 69.0013 277.335 72.2933 277.11 75.6801C276.901 79.0612 277.448 82.4463 278.71 85.5901L278.8 85.8001L278.69 85.9801L272.96 95.8001L272.55 95.2001L283.95 93.6101H284.1L284.22 93.7101C287.257 96.5573 291.029 98.5003 295.11 99.3201C296.128 99.5314 297.161 99.6585 298.2 99.7001C299.235 99.7751 300.275 99.7751 301.31 99.7001C303.388 99.5396 305.434 99.092 307.39 98.3701C309.358 97.6461 311.208 96.6352 312.88 95.3701C313.72 94.753 314.522 94.0851 315.28 93.3701C316.007 92.6243 316.685 91.8327 317.31 91.0001C319.898 87.6843 321.521 83.7188 322 79.5401Z" fill="#263238"/>
<path d="M309 81.4601C306.445 84.8797 303.185 87.7103 299.44 89.7601C295.695 87.7103 292.435 84.8797 289.88 81.4601C286.52 77.0101 286.68 70.0401 291.5 68.5301C296.82 66.8601 299.44 74.8701 299.44 74.8701C299.44 74.8701 302.09 66.8101 307.38 68.5301C312.17 70.0901 312.35 77.0001 309 81.4601Z" fill="#FF2150"/>
<path d="M232.35 61.52C232.208 62.2661 231.847 62.9531 231.314 63.4937C230.78 64.0342 230.098 64.404 229.354 64.5559C228.61 64.7079 227.837 64.6352 227.135 64.3471C226.432 64.0589 225.831 63.5684 225.407 62.9377C224.984 62.3071 224.758 61.5649 224.758 60.8054C224.757 60.0459 224.983 59.3035 225.405 58.6724C225.828 58.0413 226.428 57.5501 227.131 57.2613C227.833 56.9724 228.606 56.8989 229.35 57.05C230.339 57.2482 231.209 57.8294 231.771 58.6668C232.333 59.5042 232.541 60.5298 232.35 61.52Z" fill="#455A64"/>
<path d="M235.941 42.5862L233.072 42.0405L229.477 60.9416L232.345 61.4873L235.941 42.5862Z" fill="#455A64"/>
<path d="M245.56 58.3698C245.418 59.1137 245.059 59.799 244.528 60.3388C243.997 60.8787 243.318 61.2491 242.576 61.403C241.835 61.557 241.064 61.4877 240.362 61.2038C239.66 60.92 239.058 60.4344 238.632 59.8084C238.206 59.1824 237.975 58.4441 237.968 57.6868C237.961 56.9295 238.179 56.1873 238.594 55.5538C239.009 54.9204 239.603 54.4242 240.3 54.1281C240.997 53.8319 241.766 53.749 242.51 53.8898C243.005 53.9834 243.476 54.1736 243.897 54.4495C244.318 54.7254 244.68 55.0815 244.964 55.4976C245.247 55.9137 245.445 56.3815 245.548 56.8744C245.65 57.3672 245.654 57.8754 245.56 58.3698Z" fill="#455A64"/>
<path d="M249.148 39.4304L246.28 38.8848L242.685 57.7859L245.553 58.3315L249.148 39.4304Z" fill="#455A64"/>
<path d="M249.15 39.4599L232.6 44.5599L233.08 42.0299L249.63 36.9399L249.15 39.4599Z" fill="#455A64"/>
<path d="M248.25 44.2299L231.69 49.32L232.17 46.7999L248.73 41.7L248.25 44.2299Z" fill="#455A64"/>
<path d="M215.302 101.513C216.454 101.271 217.191 100.142 216.95 98.9909C216.709 97.8396 215.58 97.1019 214.428 97.3432C213.277 97.5846 212.539 98.7136 212.781 99.865C213.022 101.016 214.151 101.754 215.302 101.513Z" fill="#455A64"/>
<path d="M222.532 91.572L221.167 90.6802L215.302 99.6534L216.667 100.545L222.532 91.572Z" fill="#455A64"/>
<path d="M224.13 101.76C223.894 102.105 223.562 102.374 223.175 102.532C222.788 102.69 222.363 102.73 221.953 102.648C221.543 102.566 221.166 102.365 220.869 102.07C220.573 101.776 220.369 101.4 220.285 100.991C220.2 100.581 220.238 100.156 220.393 99.7675C220.549 99.3793 220.815 99.0454 221.159 98.8076C221.503 98.5697 221.909 98.4384 222.327 98.4299C222.745 98.4214 223.157 98.5362 223.51 98.7599C223.752 98.9128 223.96 99.1128 224.122 99.3479C224.285 99.583 224.399 99.8484 224.456 100.128C224.514 100.408 224.515 100.697 224.459 100.977C224.403 101.258 224.291 101.524 224.13 101.76Z" fill="#455A64"/>
<path d="M230.027 92.7522L228.663 91.8604L222.798 100.834L224.162 101.725L230.027 92.7522Z" fill="#455A64"/>
<path d="M230 92.7799L220.38 91.8899L221.17 90.6899L230.78 91.5799L230 92.7799Z" fill="#455A64"/>
<path d="M228.52 95.04L218.91 94.15L219.69 92.95L229.31 93.84L228.52 95.04Z" fill="#455A64"/>
<path d="M206.84 86.1C206.737 86.6466 206.474 87.1503 206.084 87.5473C205.695 87.9443 205.196 88.2168 204.652 88.3302C204.107 88.4437 203.541 88.3929 203.026 88.1845C202.51 87.976 202.068 87.6192 201.755 87.1592C201.442 86.6992 201.273 86.1567 201.269 85.6005C201.265 85.0443 201.426 84.4994 201.731 84.0347C202.037 83.5701 202.474 83.2066 202.986 82.9903C203.499 82.7741 204.064 82.7148 204.61 82.82C205.34 82.9605 205.985 83.3846 206.402 83.9994C206.82 84.6142 206.978 85.3695 206.84 86.1Z" fill="#455A64"/>
<path d="M209.471 72.2158L207.369 71.8159L204.73 85.6872L206.832 86.0871L209.471 72.2158Z" fill="#455A64"/>
<path d="M217.313 70.0019L215.21 69.6021L214.448 73.6102L216.55 74.0101L217.313 70.0019Z" fill="#455A64"/>
<path d="M217.22 70.5299L207.02 73.6599L207.38 71.7999L217.57 68.6699L217.22 70.5299Z" fill="#455A64"/>
<path d="M216.55 74.0199L206.36 77.1499L206.71 75.2999L216.91 72.1699L216.55 74.0199Z" fill="#455A64"/>
</svg>
