<svg width="14" height="20" viewBox="0 0 14 20" fill="none" xmlns="http://www.w3.org/2000/svg">
<path fill-rule="evenodd" clip-rule="evenodd" d="M0.644775 7C0.644775 3.13 3.55238 0 7.14741 0C10.7424 0 13.65 3.13 13.65 7C13.65 11.17 9.54409 16.92 7.8627 19.11C7.49112 19.59 6.81299 19.59 6.44141 19.11C4.75072 16.92 0.644775 11.17 0.644775 7ZM4.82504 7C4.82504 8.38 5.86546 9.5 7.14741 9.5C8.42935 9.5 9.46978 8.38 9.46978 7C9.46978 5.62 8.42935 4.5 7.14741 4.5C5.86546 4.5 4.82504 5.62 4.82504 7Z" fill="white"/>
</svg>
