<svg width="109" height="42" viewBox="0 0 109 42" fill="none" xmlns="http://www.w3.org/2000/svg">
<g clip-path="url(#clip0_406_543)">
<path opacity="0.987" fill-rule="evenodd" clip-rule="evenodd" d="M73.1228 -0.0595093C75.3043 -0.0595093 77.486 -0.0595093 79.6676 -0.0595093C79.6676 11.959 79.6676 23.9776 79.6676 35.9962C77.486 35.9962 75.3043 35.9962 73.1228 35.9962C73.1228 23.9776 73.1228 11.959 73.1228 -0.0595093Z" fill="white"/>
<path opacity="0.978" fill-rule="evenodd" clip-rule="evenodd" d="M-0.0595703 35.9962C-0.0595703 30.2448 -0.0595703 24.4933 -0.0595703 18.7419C0.919647 13.5771 3.93421 10.2254 8.9841 8.68672C13.6145 7.65245 17.6206 8.7829 21.0027 12.0781C24.8816 8.38172 29.3638 7.40992 34.4492 9.1627C38.6599 11.0514 41.1786 14.284 42.0054 18.8608C42.0649 24.5725 42.0848 30.2843 42.0649 35.9962C39.8833 35.9962 37.7017 35.9962 35.5201 35.9962C35.54 30.6413 35.5201 25.2865 35.4606 19.9318C34.5898 16.1537 32.2298 14.5473 28.3804 15.1125C26.4566 15.767 25.1675 17.056 24.513 18.9798C24.3368 24.6464 24.2773 30.3186 24.3345 35.9962C22.1132 35.9962 19.8921 35.9962 17.6708 35.9962C17.7273 30.3592 17.6678 24.7267 17.4923 19.0988C16.612 16.4764 14.7874 15.0881 12.0185 14.934C9.29815 15.1236 7.51322 16.5119 6.66368 19.0988C6.4881 24.7267 6.42861 30.3592 6.48519 35.9962C4.30361 35.9962 2.12201 35.9962 -0.0595703 35.9962Z" fill="white"/>
<path opacity="0.979" fill-rule="evenodd" clip-rule="evenodd" d="M56.9393 8.2702C63.0244 8.28641 67.4471 10.9836 70.2074 16.3619C71.416 19.2868 71.7135 22.3013 71.0998 25.4056C64.4752 25.3659 57.8512 25.4056 51.2276 25.5246C52.8873 28.318 55.3466 29.5674 58.6053 29.2729C60.2398 29.0242 61.628 28.3103 62.7701 27.131C65.3084 27.0715 67.847 27.0516 70.3858 27.0715C69.0514 30.7265 66.5923 33.3246 63.0081 34.8657C58.1035 36.7351 53.5023 36.1798 49.2046 33.1998C43.9712 28.6812 42.5234 23.1479 44.8613 16.5999C47.337 11.5649 51.3631 8.78833 56.9393 8.2702ZM56.5824 14.934C59.8658 14.6912 62.3251 15.9803 63.9601 18.8013C59.7154 18.9004 55.4712 18.8807 51.2276 18.7418C52.4239 16.6314 54.2089 15.3622 56.5824 14.934Z" fill="white"/>
<path opacity="0.973" fill-rule="evenodd" clip-rule="evenodd" d="M108.941 20.2888C108.941 21.5184 108.941 22.7481 108.941 23.9776C107.679 30.4947 103.792 34.4414 97.279 35.8177C91.672 36.4358 87.17 34.512 83.7729 30.0464C80.7583 25.2053 80.5601 20.2471 83.178 15.172C86.6768 9.79918 91.6151 7.59776 97.9929 8.5677C104.136 10.1685 107.785 14.0754 108.941 20.2888ZM96.803 13.149C98.1521 13.1292 99.5008 13.149 100.849 13.2085C99.9997 13.9386 99.1866 14.712 98.4094 15.5289C97.9299 15.2962 97.434 15.0979 96.922 14.934C96.8037 14.3442 96.7641 13.7492 96.803 13.149ZM94.1851 14.934C95.0222 14.9133 95.8552 14.9529 96.684 15.053C96.7038 16.4021 96.684 17.7508 96.6245 19.0988C94.612 18.2927 93.1047 18.848 92.1026 20.7648C91.5338 22.668 92.1089 24.1157 93.8281 25.1081C95.3842 25.6145 96.7129 25.2773 97.8144 24.0966C98.1282 23.6716 98.3265 23.1956 98.4094 22.6687C98.4293 20.3671 98.4888 18.0665 98.5879 15.7669C101.99 17.9335 103.081 20.948 101.86 24.8106C100.32 28.0305 97.7618 29.518 94.1851 29.2729C90.8989 28.6047 88.8561 26.6412 88.0568 23.3827C87.7772 18.8599 89.8199 16.0437 94.1851 14.934Z" fill="white"/>
</g>
<defs>
<clipPath id="clip0_406_543">
<rect width="109" height="41.8865" fill="white"/>
</clipPath>
</defs>
</svg>
