<svg width="73" height="32" viewBox="0 0 73 32" fill="none" xmlns="http://www.w3.org/2000/svg">
<g clip-path="url(#clip0_609_473)">
<path opacity="0.99" fill-rule="evenodd" clip-rule="evenodd" d="M12.3204 1.53709C11.5217 2.72528 10.7789 3.95099 10.0918 5.21422C8.61441 7.73216 7.12874 10.2486 5.63471 12.7635C7.13342 15.2695 8.63769 17.7673 10.1475 20.257C9.4373 21.5104 8.71302 22.7548 7.9747 23.9899C5.73068 20.2547 3.52069 16.494 1.34473 12.7078C3.5054 8.97136 5.68754 5.24782 7.89113 1.53709C9.37301 1.4629 10.8494 1.4629 12.3204 1.53709Z" fill="#FEC700"/>
<path opacity="0.988" fill-rule="evenodd" clip-rule="evenodd" d="M12.3203 1.53711C14.4901 5.28661 16.6629 9.03801 18.8388 12.7914C17.4553 15.1499 16.0717 17.5085 14.6882 19.8671C14.5796 20.0557 14.4961 20.2507 14.4374 20.4521C15.1183 24.0326 15.824 27.6076 16.5546 31.177C16.536 31.1956 16.5174 31.2142 16.4989 31.2327C15.0734 28.8462 13.662 26.4505 12.2646 24.0456C10.8351 23.9899 9.40507 23.9713 7.97461 23.9899C8.71293 22.7548 9.43721 21.5105 10.1475 20.2571C11.621 17.7653 13.0881 15.2675 14.5489 12.7635C13.0708 10.2376 11.585 7.72121 10.0917 5.21424C10.7788 3.95101 11.5216 2.7253 12.3203 1.53711Z" fill="#004C92"/>
<path opacity="0.989" fill-rule="evenodd" clip-rule="evenodd" d="M20.176 4.54541C20.5244 4.561 20.868 4.59814 21.2067 4.65684C23.7455 7.52495 26.2712 10.4035 28.7838 13.2925C31.4488 10.4047 34.1138 7.51681 36.7788 4.62898C37.094 4.60116 37.4097 4.59187 37.7259 4.60112C37.6859 10.4139 37.6673 16.2267 37.6702 22.0396C36.576 22.0926 35.4803 22.1112 34.3831 22.0954C34.3924 18.5668 34.3831 15.0382 34.3552 11.5097C32.5161 13.5437 30.6682 15.568 28.8117 17.5825C27.0752 15.6325 25.3389 13.6825 23.6024 11.7325C23.5746 15.1682 23.5653 18.6039 23.5746 22.0396C22.4603 22.0396 21.346 22.0396 20.2317 22.0396C20.1848 16.2084 20.1662 10.377 20.176 4.54541Z" fill="white"/>
<path opacity="0.987" fill-rule="evenodd" clip-rule="evenodd" d="M40.4003 4.60114C43.836 4.59185 47.2717 4.60114 50.7074 4.629C51.4165 4.79303 52.02 5.1366 52.5181 5.65971C54.0252 7.43827 54.4338 9.44398 53.7438 11.6768C53.1807 12.9085 52.2615 13.7534 50.9859 14.2118C50.6566 14.322 50.3223 14.4149 49.9831 14.4904C47.9032 14.5183 45.8232 14.5276 43.7431 14.5183C43.7431 17.0254 43.7431 19.5325 43.7431 22.0397C42.6288 22.0397 41.5145 22.0397 40.4003 22.0397C40.4003 16.2268 40.4003 10.414 40.4003 4.60114ZM45.0802 7.49827C46.6032 7.48897 48.1261 7.49827 49.6488 7.52613C51.1133 8.12372 51.5125 9.13588 50.8467 10.5626C50.4998 10.9915 50.082 11.335 49.5931 11.5933C47.662 11.6506 45.7307 11.6785 43.7988 11.6768C43.7803 10.3025 43.7617 8.92829 43.7431 7.55399C44.1991 7.57215 44.6448 7.55354 45.0802 7.49827Z" fill="white"/>
<path opacity="0.988" fill-rule="evenodd" clip-rule="evenodd" d="M55.276 4.60132C60.4017 4.60132 65.5273 4.60132 70.653 4.60132C70.653 5.62274 70.653 6.64419 70.653 7.6656C68.6468 7.65 66.6411 7.66855 64.6359 7.72131C64.6315 12.4942 64.6131 17.2671 64.5802 22.0398C63.5033 22.0398 62.4257 22.0398 61.3488 22.0398C61.3956 17.2671 61.4329 12.4943 61.4602 7.72131C59.4172 7.72131 57.3747 7.72131 55.3317 7.72131C55.2796 6.68263 55.2611 5.6426 55.276 4.60132Z" fill="white"/>
</g>
<defs>
<clipPath id="clip0_609_473">
<rect width="71.314" height="30.5871" fill="white" transform="translate(0.871094 0.89624)"/>
</clipPath>
</defs>
</svg>
