<svg width="500" height="500" viewBox="0 0 500 500" fill="none" xmlns="http://www.w3.org/2000/svg">
<path d="M359.22 369.44L353.2 370.55L351.85 376.9L350.5 370.55L344.48 369.43L350.48 367.97L351.85 361.97L353.22 367.97L359.22 369.44Z" fill="#EBEBEB"/>
<path d="M414.81 169.25L408.79 170.36L407.44 176.71L406.1 170.36L400.07 169.25L406.07 167.78L407.44 161.79L408.81 167.78L414.81 169.25Z" fill="#EBEBEB"/>
<path d="M214.92 141.84L208.9 142.95L207.55 149.3L206.21 142.95L200.19 141.83L206.18 140.37L207.55 134.37L208.93 140.37L214.92 141.84Z" fill="#EBEBEB"/>
<path d="M430.59 186.62L427.22 187.24L426.47 190.79L425.72 187.24L422.35 186.62L425.7 185.8L426.47 182.45L427.24 185.8L430.59 186.62Z" fill="#EBEBEB"/>
<path d="M176.87 203.11L173.51 203.73L172.75 207.28L172 203.73L168.64 203.11L171.99 202.29L172.75 198.94L173.52 202.29L176.87 203.11Z" fill="#EBEBEB"/>
<path d="M162.03 325.17L158.66 325.79L157.91 329.34L157.16 325.79L153.79 325.17L157.14 324.35L157.91 321L158.68 324.35L162.03 325.17Z" fill="#EBEBEB"/>
<path d="M253.65 108L250.28 108.62L249.53 112.17L248.78 108.62L245.41 108L248.77 107.18L249.53 103.83L250.3 107.18L253.65 108Z" fill="#EBEBEB"/>
<path d="M326.79 351.44L323.43 352.06L322.68 355.61L321.92 352.06L318.56 351.44L321.91 350.62L322.68 347.27L323.44 350.62L326.79 351.44Z" fill="#EBEBEB"/>
<path d="M376.31 199.07L372.95 199.69L372.2 203.24L371.44 199.69L368.08 199.07L371.43 198.25L372.2 194.9L372.96 198.25L376.31 199.07Z" fill="#EBEBEB"/>
<path d="M312 325.17C311.779 325.221 311.582 325.344 311.44 325.522C311.299 325.699 311.222 325.919 311.222 326.145C311.222 326.372 311.299 326.592 311.44 326.769C311.582 326.946 311.779 327.07 312 327.12C312.221 327.07 312.418 326.946 312.56 326.769C312.701 326.592 312.778 326.372 312.778 326.145C312.778 325.919 312.701 325.699 312.56 325.522C312.418 325.344 312.221 325.221 312 325.17Z" fill="#EBEBEB"/>
<path d="M334.23 139.88C333.965 139.88 333.71 139.985 333.523 140.173C333.335 140.361 333.23 140.615 333.23 140.88C333.23 141.145 333.335 141.4 333.523 141.587C333.71 141.775 333.965 141.88 334.23 141.88C334.495 141.88 334.75 141.775 334.937 141.587C335.125 141.4 335.23 141.145 335.23 140.88C335.23 140.615 335.125 140.361 334.937 140.173C334.75 139.985 334.495 139.88 334.23 139.88Z" fill="#EBEBEB"/>
<path d="M100.73 290.08C100.509 290.13 100.312 290.254 100.17 290.431C100.029 290.609 99.9522 290.828 99.9522 291.055C99.9522 291.282 100.029 291.502 100.17 291.679C100.312 291.856 100.509 291.98 100.73 292.03C100.951 291.98 101.148 291.856 101.29 291.679C101.431 291.502 101.508 291.282 101.508 291.055C101.508 290.828 101.431 290.609 101.29 290.431C101.148 290.254 100.951 290.13 100.73 290.08Z" fill="#EBEBEB"/>
<path d="M158.85 157.7C158.585 157.7 158.33 157.806 158.143 157.993C157.955 158.181 157.85 158.435 157.85 158.7C157.85 158.965 157.955 159.22 158.143 159.407C158.33 159.595 158.585 159.7 158.85 159.7C159.115 159.7 159.37 159.595 159.557 159.407C159.745 159.22 159.85 158.965 159.85 158.7C159.85 158.435 159.745 158.181 159.557 157.993C159.37 157.806 159.115 157.7 158.85 157.7Z" fill="#EBEBEB"/>
<path d="M428.12 158C427.937 158 427.762 158.073 427.632 158.202C427.503 158.332 427.43 158.507 427.43 158.69C427.43 158.873 427.503 159.049 427.632 159.178C427.762 159.307 427.937 159.38 428.12 159.38C428.303 159.38 428.479 159.307 428.608 159.178C428.737 159.049 428.81 158.873 428.81 158.69C428.81 158.507 428.737 158.332 428.608 158.202C428.479 158.073 428.303 158 428.12 158Z" fill="#EBEBEB"/>
<path d="M146.29 375.72C146.107 375.72 145.931 375.793 145.802 375.922C145.673 376.052 145.6 376.227 145.6 376.41C145.6 376.593 145.673 376.769 145.802 376.898C145.931 377.028 146.107 377.1 146.29 377.1C146.473 377.1 146.649 377.028 146.778 376.898C146.907 376.769 146.98 376.593 146.98 376.41C146.98 376.227 146.907 376.052 146.778 375.922C146.649 375.793 146.473 375.72 146.29 375.72Z" fill="#EBEBEB"/>
<path d="M85.56 204.86C85.377 204.86 85.2015 204.933 85.0721 205.062C84.9427 205.192 84.87 205.367 84.87 205.55C84.87 205.733 84.9427 205.909 85.0721 206.038C85.2015 206.167 85.377 206.24 85.56 206.24C85.743 206.24 85.9185 206.167 86.0479 206.038C86.1773 205.909 86.25 205.733 86.25 205.55C86.25 205.367 86.1773 205.192 86.0479 205.062C85.9185 204.933 85.743 204.86 85.56 204.86Z" fill="#EBEBEB"/>
<path d="M124.23 359.38C123.734 359.38 123.258 359.577 122.908 359.928C122.557 360.279 122.36 360.754 122.36 361.25C122.36 361.746 122.557 362.222 122.908 362.572C123.258 362.923 123.734 363.12 124.23 363.12C124.726 363.12 125.202 362.923 125.552 362.572C125.903 362.222 126.1 361.746 126.1 361.25C126.1 360.754 125.903 360.279 125.552 359.928C125.202 359.577 124.726 359.38 124.23 359.38Z" fill="#EBEBEB"/>
<path d="M71.22 190.49C70.724 190.49 70.2484 190.687 69.8977 191.038C69.547 191.388 69.35 191.864 69.35 192.36C69.35 192.856 69.547 193.332 69.8977 193.682C70.2484 194.033 70.724 194.23 71.22 194.23C71.7159 194.23 72.1916 194.033 72.5423 193.682C72.893 193.332 73.09 192.856 73.09 192.36C73.09 191.864 72.893 191.388 72.5423 191.038C72.1916 190.687 71.7159 190.49 71.22 190.49Z" fill="#EBEBEB"/>
<path d="M77.59 356.81L64.47 357.09L57.81 357.2C55.58 357.25 53.34 357.2 51.11 357.26H50.67V356.81L50.61 345.62V345.12H51.11L64.35 345.18C68.77 345.18 73.18 345.3 77.59 345.35H77.87V345.62C77.87 347.52 77.78 349.41 77.74 351.27L77.59 356.81ZM77.59 356.81L77.45 351.16C77.45 349.29 77.34 347.45 77.32 345.62L77.59 345.89C73.18 345.94 68.77 346.05 64.35 346.06L51.11 346.12L51.61 345.62V356.81L51.16 356.36C53.34 356.36 55.52 356.36 57.71 356.42L64.29 356.53L77.59 356.81Z" fill="#EBEBEB"/>
<path d="M62.82 370.92L49.7 371.2L43.04 371.31C40.81 371.36 38.57 371.31 36.34 371.37H35.9V370.92L35.84 359.73V359.23H36.34L49.58 359.29C53.99 359.29 58.41 359.41 62.82 359.46H63.1V359.73C63.1 361.63 63.02 363.52 62.97 365.38L62.82 370.92ZM62.82 370.92L62.68 365.27C62.68 363.4 62.57 361.56 62.55 359.73L62.82 360C58.41 360.05 53.99 360.16 49.58 360.17L36.34 360.23L36.84 359.73L36.79 370.92L36.34 370.47C38.52 370.47 40.7 370.47 42.89 370.53L49.47 370.64L62.82 370.92Z" fill="#EBEBEB"/>
<path d="M356 166.43L342.87 166.71L336.21 166.82C333.99 166.87 331.75 166.82 329.52 166.88H329.07V166.43L329.02 155.24V154.74H329.52L342.76 154.8C347.17 154.8 351.59 154.91 356 154.96H356.27V155.23C356.27 157.13 356.19 159.02 356.14 160.89L356 166.43ZM356 166.43L355.86 160.78C355.81 158.92 355.74 157.08 355.73 155.24L356 155.52C351.59 155.52 347.17 155.68 342.76 155.68L329.52 155.74L330.02 155.24L330 166.43L329.56 165.99C331.74 165.99 333.92 165.99 336.1 165.99L342.68 166.11L356 166.43Z" fill="#EBEBEB"/>
<path d="M341.26 180.54L328.13 180.82L321.47 180.93C319.25 180.93 317.01 180.93 314.78 180.99H314.33V180.54L314.28 169.35V168.85H314.79L328.03 168.92C332.44 168.92 336.85 169.03 341.27 169.08H341.54V169.35C341.54 171.25 341.45 173.14 341.41 175.01L341.26 180.54ZM341.26 180.54L341.12 174.89C341.07 173.03 341 171.19 340.98 169.35L341.26 169.63C336.84 169.68 332.43 169.79 328.02 169.79L314.78 169.85L315.28 169.35L315.22 180.54L314.78 180.1C316.96 180.1 319.13 180.1 321.32 180.15L327.9 180.27L341.26 180.54Z" fill="#EBEBEB"/>
<path d="M326.54 166.43L313.42 166.71L306.76 166.82C304.53 166.87 302.29 166.82 300.06 166.88H299.62V166.43L299.56 155.24V154.74H300.06L313.3 154.8C317.72 154.8 322.13 154.91 326.54 154.96H326.82V155.23C326.82 157.13 326.73 159.02 326.69 160.89L326.54 166.43ZM326.54 166.43L326.4 160.78C326.4 158.92 326.29 157.08 326.27 155.24L326.54 155.52C322.13 155.52 317.72 155.68 313.3 155.68L300.06 155.74L300.56 155.24L300.51 166.43L300.06 165.99C302.24 165.99 304.42 165.99 306.61 165.99L313.19 166.11L326.54 166.43Z" fill="#EBEBEB"/>
<path d="M463.66 370.92L450.53 371.2L443.87 371.31C441.65 371.36 439.41 371.31 437.18 371.37H436.73V370.92L436.68 359.73V359.23H437.18L450.42 359.29C454.83 359.29 459.25 359.41 463.66 359.46H463.93V359.73C463.93 361.63 463.85 363.52 463.8 365.38L463.66 370.92ZM463.66 370.92L463.52 365.27C463.52 363.4 463.4 361.56 463.39 359.73L463.66 360C459.25 360.05 454.83 360.16 450.42 360.17L437.18 360.23L437.68 359.73L437.62 370.92L437.18 370.47C439.36 370.47 441.54 370.47 443.72 370.53L450.3 370.64L463.66 370.92Z" fill="#EBEBEB"/>
<path d="M448.89 55.5201L435.76 55.8001L429.1 55.9101C426.88 55.9601 424.64 55.9101 422.41 55.9701H422V55.5201V44.3301V43.8301H422.51L435.75 43.8901C440.16 43.8901 444.57 44.0101 448.99 44.0601H449.26V44.3301C449.26 46.2301 449.17 48.1201 449.13 49.9901L448.89 55.5201ZM448.89 55.5201L448.75 49.8701C448.7 48.0001 448.63 46.1601 448.61 44.3301L448.89 44.6001C444.47 44.6601 440.06 44.7601 435.65 44.7701L422.41 44.8301L422.91 44.3301L422.85 55.5201L422.41 55.0801C424.59 55.0801 426.76 55.0801 428.95 55.1301L435.53 55.2401L448.89 55.5201Z" fill="#EBEBEB"/>
<path d="M463.66 69.6302L450.53 69.9102L443.87 70.0202C441.65 70.0202 439.41 70.0202 437.18 70.0802H436.73V69.6302L436.68 58.4402V57.9402H437.18L450.42 58.0002C454.83 58.0002 459.25 58.1202 463.66 58.1702H463.93V58.4402C463.93 60.3402 463.85 62.2302 463.8 64.1002L463.66 69.6302ZM463.66 69.6302L463.52 64.0002C463.52 62.1302 463.4 60.2902 463.39 58.4602L463.66 58.7302C459.25 58.7902 454.83 58.8902 450.42 58.9002L437.18 58.9602L437.68 58.4602L437.62 69.6502L437.18 69.2102C439.36 69.2102 441.54 69.2102 443.72 69.2102L450.3 69.3202L463.66 69.6302Z" fill="#EBEBEB"/>
<path d="M77.59 55.5201L64.47 55.8001L57.81 55.9101C55.58 55.9601 53.34 55.9101 51.11 55.9701H50.67V55.5201L50.61 44.3301V43.8301H51.11L64.35 43.8901C68.77 43.8901 73.18 44.0101 77.59 44.0601H77.87V44.3301C77.87 46.2301 77.78 48.1201 77.74 49.9901L77.59 55.5201ZM77.59 55.5201L77.45 49.8701C77.45 48.0001 77.34 46.1601 77.32 44.3301L77.59 44.6001C73.18 44.6601 68.77 44.7601 64.35 44.7701L51.11 44.8301L51.61 44.3301V55.5201L51.16 55.0801C53.34 55.0801 55.52 55.0801 57.71 55.1301L64.29 55.2401L77.59 55.5201Z" fill="#EBEBEB"/>
<path d="M243.13 117.45H62V125.23H243.13V117.45Z" fill="#EBEBEB"/>
<path d="M88.33 155.84H81.28L78.45 125.22H88.33V155.84Z" fill="#EBEBEB"/>
<path d="M216.79 155.84H223.85L226.68 125.22H216.79V155.84Z" fill="#EBEBEB"/>
<path d="M78.45 125.23H88.33V135.77H79.42L78.45 125.23Z" fill="#DBDBDB"/>
<path d="M226.68 125.23L225.7 135.77H216.79V125.23H226.68Z" fill="#DBDBDB"/>
<path d="M127.59 70.7902C119.59 81.6702 111.17 94.3102 109.13 107.96C109.13 108.16 109.44 108.23 109.48 108.03C110.397 104.309 111.573 100.657 113 97.1002C118.28 95.6402 123.47 94.4502 126.24 89.2002C129.01 83.9502 128.71 76.7802 128.18 70.9102C128.18 70.6002 127.75 70.5802 127.59 70.7902Z" fill="#EBEBEB"/>
<path d="M113.12 97.0001C116.73 88.9001 121.36 80.7701 127.26 74.1001C127.26 74.1001 127.36 74.1001 127.32 74.1701C123.637 78.9143 120.406 83.9932 117.67 89.3401C120.33 86.6401 123.25 84.2201 125.77 81.3401C125.77 81.3401 125.9 81.3401 125.85 81.4201C123.35 84.4201 120.61 87.6901 117.35 89.9201C116.48 91.5301 115.59 93.1501 114.7 94.7701C114.92 94.6401 115.15 94.5301 115.37 94.4201V94.4801C115.13 94.6101 114.88 94.7401 114.62 94.8501C114.2 95.6101 113.78 96.3801 113.34 97.1501C113.28 97.3201 113 97.1701 113.12 97.0001Z" fill="#A6A6A6"/>
<path d="M115.8 94.17C117.973 92.964 120.046 91.5863 122 90.05C122.06 90.05 122.13 90.05 122.08 90.13C120.195 91.7594 118.128 93.1654 115.92 94.32C115.91 94.3279 115.899 94.3338 115.887 94.3373C115.875 94.3408 115.862 94.3419 115.849 94.3405C115.837 94.3391 115.825 94.3353 115.814 94.3292C115.803 94.3231 115.793 94.3149 115.785 94.305C115.777 94.2952 115.771 94.2839 115.768 94.2718C115.764 94.2597 115.763 94.247 115.765 94.2344C115.766 94.2219 115.77 94.2098 115.776 94.1987C115.782 94.1877 115.79 94.1779 115.8 94.17Z" fill="#A6A6A6"/>
<path d="M108.25 107.83C108.25 108 108.55 108 108.54 107.83C108.54 103.33 108.54 98.8302 108.62 94.3002C109.77 91.9802 112.24 90.6902 113.96 88.8302C115.197 87.4733 116.271 85.9764 117.16 84.3702C119.228 80.5426 120.494 76.3335 120.88 72.0002C121.36 67.2002 119.53 51.3302 117.51 51.8802C116.45 52.1702 113.05 60.0202 112.15 62.6202C110.706 66.8928 109.652 71.2874 109 75.7502C107.31 86.3202 107.45 97.1902 108.25 107.83Z" fill="#EBEBEB"/>
<path d="M108.22 88.44C108.46 82.75 109.75 77.01 110.95 71.44C112.24 65.5 113.75 59.9 116.81 54.6C116.81 54.51 117.01 54.6 116.96 54.69C114.92 58.8142 113.341 63.1503 112.25 67.62C112.45 67.3 112.7 66.99 112.92 66.69C113 66.57 113.2 66.69 113.11 66.81C112.837 67.2894 112.519 67.7415 112.16 68.16C111.16 72.41 110.35 76.76 109.7 81.09L109.85 80.93C109.85 80.93 109.94 80.93 109.91 80.93C109.88 80.93 109.74 81.21 109.66 81.36C109.33 83.56 109.03 85.75 108.72 87.93C112.736 84.7032 115.882 80.523 117.87 75.77C116.194 80.8384 112.956 85.2457 108.62 88.36C108.54 88.95 108.46 89.53 108.37 90.11C108.37 90.24 108.16 90.2 108.17 90.11C108.17 89.59 108.17 89.11 108.17 88.55C108.168 88.5289 108.171 88.5076 108.18 88.4883C108.189 88.469 108.203 88.4523 108.22 88.44Z" fill="#A6A6A6"/>
<path d="M110.06 80.2002C113.127 75.8616 115.804 71.2603 118.06 66.4502C118.06 66.4502 118.18 66.4502 118.16 66.4502C116.37 71.4935 113.683 76.1719 110.23 80.2602C110.14 80.4002 110 80.2902 110.06 80.2002Z" fill="#A6A6A6"/>
<path d="M114 65.35C115.24 63.16 116.55 61.02 117.72 58.78C117.72 58.72 117.83 58.78 117.81 58.84C116.853 61.1741 115.639 63.3945 114.19 65.46C114.174 65.4832 114.151 65.4997 114.123 65.506C114.096 65.5123 114.068 65.5081 114.043 65.4941C114.019 65.4801 114.001 65.4574 113.993 65.4306C113.985 65.4038 113.988 65.375 114 65.35Z" fill="#A6A6A6"/>
<path d="M106.05 96.31C106.003 99.2886 105.668 102.256 105.05 105.17C105.05 105.49 105.14 105.81 105.19 106.17C106.109 102.955 106.639 99.6412 106.77 96.3C106.797 96.2529 106.812 96.1994 106.812 96.145C106.812 96.0906 106.797 96.0371 106.77 95.99C106.896 91.5108 106.561 87.0305 105.77 82.62C104.38 74.36 101.34 66.43 95.58 60.23C95.5318 60.1886 95.4747 60.1589 95.4131 60.1433C95.3515 60.1278 95.2871 60.1268 95.2251 60.1403C95.163 60.1539 95.105 60.1817 95.0555 60.2216C95.006 60.2614 94.9665 60.3122 94.94 60.37C92.62 66.28 93.43 73.37 95.41 79.23C96.4853 82.4372 98.025 85.4694 99.98 88.23C101.93 90.93 104.44 93.28 106.05 96.31Z" fill="#EBEBEB"/>
<path d="M97.33 73.8901C99.1 76.2701 101.11 78.5401 102.75 80.9901C102.75 81.0601 102.75 81.1301 102.64 81.0801C100.548 78.9525 98.728 76.5745 97.22 74.0001C97.17 73.8901 97.28 73.8201 97.33 73.8901Z" fill="#A6A6A6"/>
<path d="M103 81.54L103.07 81.62C103.13 81.62 103.07 81.75 102.99 81.7L102.92 81.62C102.87 81.57 103 81.49 103 81.54Z" fill="#A6A6A6"/>
<path d="M86.83 77.76C87.4766 82.7088 89.469 87.3853 92.59 91.28C93.8794 92.8061 95.4735 94.0459 97.27 94.92C99.27 95.92 101.41 97.08 103.5 97.92C104.495 100.453 105.235 103.08 105.71 105.76C105.78 105.53 105.85 105.3 105.91 105.07C104.57 93.5 97.1 83.64 87.54 77.3C87.4645 77.2542 87.3776 77.2307 87.2893 77.232C87.2011 77.2333 87.1149 77.2595 87.0408 77.3075C86.9667 77.3555 86.9077 77.4234 86.8704 77.5034C86.8331 77.5835 86.8191 77.6724 86.83 77.76Z" fill="#EBEBEB"/>
<path d="M90.13 81.17C90.07 81.11 90.13 80.99 90.23 81.04C95.4807 84.9426 99.6685 90.1 102.41 96.04C102.48 96.2 102.26 96.33 102.17 96.18C101.72 95.4 101.27 94.64 100.81 93.9C98.5938 93.2966 96.5737 92.1246 94.95 90.5C94.95 90.5 94.95 90.39 95.01 90.43C95.8451 91.1897 96.7724 91.8414 97.77 92.37C98.66 92.82 99.62 93.11 100.54 93.47C99.74 92.18 98.89 90.95 98.01 89.76C95.6575 88.8622 93.4504 87.6222 91.46 86.08C91.4 86.08 91.46 85.93 91.52 85.97C93.4907 87.164 95.5236 88.2522 97.61 89.23C96.2782 87.4786 94.8423 85.8089 93.31 84.23C92.57 83.84 91.82 83.45 91.1 83.03C91.0893 83.0253 91.0802 83.0176 91.0738 83.0078C91.0674 82.9981 91.064 82.9867 91.064 82.975C91.064 82.9633 91.0674 82.9519 91.0738 82.9421C91.0802 82.9323 91.0893 82.9246 91.1 82.92C91.6963 83.1312 92.2667 83.4096 92.8 83.75C92 82.87 91.08 82 90.13 81.17Z" fill="#A6A6A6"/>
<path d="M90.34 85.15C90.4681 85.2286 90.5886 85.319 90.7 85.42C90.7 85.42 90.7 85.49 90.7 85.48C90.5647 85.4165 90.4343 85.3429 90.31 85.26C90.21 85.22 90.27 85.11 90.34 85.15Z" fill="#A6A6A6"/>
<path d="M117.66 117.45H97.98L98.95 104.55L99.32 100.34H116.14L116.52 104.55L117.66 117.45Z" fill="#DBDBDB"/>
<path d="M116.52 104.55H98.95L99.32 100.34H116.14L116.52 104.55Z" fill="#C7C7C7"/>
<path d="M117.48 96.8901H97.98V101.2H117.48V96.8901Z" fill="#DBDBDB"/>
<path d="M165.47 117.42V70.5901H153.68V117.42H165.47Z" fill="#C7C7C7"/>
<path d="M165.47 73.2301V68.0801H153.68V73.2301H165.47Z" fill="#DBDBDB"/>
<path d="M165.47 81.7401V79.8301H153.68V81.7401H165.47Z" fill="#DBDBDB"/>
<path d="M165.47 111.28V106.13H153.68V111.28H165.47Z" fill="#DBDBDB"/>
<path d="M173.72 117.42V62.79H165.48V117.42H173.72Z" fill="#DBDBDB"/>
<path d="M172.03 88.9402V67.9302H167.08V88.9402H172.03Z" fill="#EBEBEB"/>
<path d="M232.403 111.502L193.552 73.0959L187.759 78.956L226.61 117.362L232.403 111.502Z" fill="#C7C7C7"/>
<path d="M222.141 103.642L207.199 88.8718L203.719 92.3921L218.661 107.163L222.141 103.642Z" fill="#DBDBDB"/>
<path d="M187.7 117.43V75.9402H173.7V117.43H187.7Z" fill="#A6A6A6"/>
<path d="M187.7 113.03V109.16H173.7V113.03H187.7Z" fill="#C7C7C7"/>
<path d="M187.71 106.62V105.12H173.71V106.62H187.71Z" fill="#C7C7C7"/>
<path d="M138.377 117.45L153.756 81.6211L144.87 77.807L129.491 113.636L138.377 117.45Z" fill="#A6A6A6"/>
<path d="M139.996 113.656L141.428 110.32L132.542 106.506L131.11 109.842L139.996 113.656Z" fill="#C7C7C7"/>
<path d="M149.153 92.3401L150.585 89.0044L141.699 85.1903L140.267 88.526L149.153 92.3401Z" fill="#C7C7C7"/>
<path d="M147.611 95.9353L148.167 94.6396L139.281 90.8256L138.725 92.1213L147.611 95.9353Z" fill="#C7C7C7"/>
<path d="M382.29 457C428.748 457 466.41 450.226 466.41 441.87C466.41 433.514 428.748 426.74 382.29 426.74C335.832 426.74 298.17 433.514 298.17 441.87C298.17 450.226 335.832 457 382.29 457Z" fill="#EBEBEB"/>
<path d="M288.32 247.39C285.99 272.32 287.4 302.63 273.64 324.63C262.84 341.86 243.8 351.82 224.78 357.27C182.93 369.27 127.42 363.83 105.24 320.86C96.39 303.7 99 270.87 119 261.5C129.24 256.7 140.61 256.84 151.62 255.45C166.14 253.64 177.34 247.19 185.62 235.05C201.81 211.41 201.87 192.46 208.11 165.32C209.29 160.32 211.18 155.43 216.81 151.83C221.937 148.013 228.009 145.669 234.37 145.05C239.939 143.49 245.808 143.339 251.45 144.61C263.45 147.61 273.56 160.42 282 168.72C290.44 177.02 293.9 185.13 293 197.18C291.66 213.94 289.87 230.66 288.32 247.39Z" fill="#263238"/>
<path d="M289.76 259.49C290.42 236.49 290.63 213.55 290.99 190.56C290.99 190.42 290.77 190.39 290.77 190.56C289.92 209.46 288.82 228.33 288.23 247.25C287.64 265.79 288.31 284.89 286.1 303.32C281.1 344.68 236.39 355.58 201.6 348.68C200.01 348.37 199.69 350.92 201.3 351.19C232.04 356.28 270.3 350.86 284.3 318.63C292 301 289.22 278.28 289.76 259.49Z" fill="#263238"/>
<path d="M210.39 163.43C210.45 162.98 209.79 162.92 209.71 163.35C205.52 185.89 202.71 212.57 187.09 230.53C179.372 239.372 169.157 245.669 157.79 248.59C148.79 250.88 139.72 249.93 130.56 250.44C94.78 252.44 87.91 299.44 110.67 321.28C111.14 321.74 111.95 320.94 111.49 320.45C95.65 303.78 93.37 277.16 110.49 260.24C124.26 246.65 145.98 254.59 163.02 248.59C198.36 236.17 206.51 196.47 210.39 163.43Z" fill="#263238"/>
<path d="M365.69 202.45C362.69 199.11 342.15 171.79 324.74 162.88C315.52 158.17 288.74 148.07 285.14 153.32C281.88 158.11 288.54 162.69 288.54 162.69C288.54 162.69 276.54 158.36 272.07 165.08C267.6 171.8 279.27 178.93 279.27 178.93C279.27 178.93 266.6 175.38 262.64 182.4C258.68 189.42 271.59 194.63 271.59 194.63C271.59 194.63 260.16 190.85 259.33 198C258.33 206.61 280.19 211.2 289.33 218.14C291.4 219.71 329.07 253.07 329.07 253.07L365.69 202.45Z" fill="#EB9481"/>
<path d="M271.65 195.09C287.72 198.51 294.16 202.78 305.74 214.09C305.96 214.31 306.34 214.02 306.13 213.77C295.79 201.68 288.49 195.16 271.77 194.33C271 194.27 270.88 194.93 271.65 195.09Z" fill="#263238"/>
<path d="M279.26 179.4C295.64 184.4 302.67 188.98 315.67 199.91C315.85 200.06 316.13 199.77 315.96 199.6C304.11 187.81 296.67 181.47 279.65 178.6C278.87 178.49 278.51 179.18 279.26 179.4Z" fill="#263238"/>
<path d="M289.16 163.24C304.67 169.24 312.59 173.91 323.84 186.14C323.894 186.197 323.967 186.232 324.045 186.238C324.123 186.243 324.201 186.218 324.262 186.169C324.323 186.119 324.362 186.049 324.373 185.971C324.384 185.893 324.365 185.814 324.32 185.75C314.05 172.16 304.21 166.25 289.39 162.75C288.38 162.55 288.18 162.86 289.16 163.24Z" fill="#263238"/>
<path d="M331 266.17C331 266.17 311.61 259.26 303.76 254.35C295.91 249.44 273.4 220.35 279.41 215.14C287.16 208.4 303.46 222.63 310.53 230.64C310.53 230.64 328.45 215.04 342.36 222.72C356.27 230.4 331 266.17 331 266.17Z" fill="#EB9481"/>
<path d="M282.18 214C293.69 213 302.29 224.08 309.73 231.33C309.839 231.434 309.97 231.511 310.114 231.557C310.257 231.603 310.409 231.615 310.558 231.594C310.707 231.573 310.849 231.518 310.974 231.435C311.099 231.351 311.204 231.24 311.28 231.11C319.28 225.11 332.2 218.87 342.22 222.11C342.278 222.131 342.341 222.13 342.397 222.105C342.454 222.081 342.499 222.036 342.523 221.98C342.548 221.924 342.549 221.86 342.528 221.803C342.507 221.745 342.465 221.698 342.41 221.67C332.13 216.73 318.89 221.78 310.61 228.96C303.09 221.39 293.97 210.62 282.17 213.89C282.1 213.89 282.11 214 282.18 214Z" fill="#263238"/>
<path d="M270.06 276C287.44 295.73 340.15 347.18 381.34 365.36C397.34 372.43 415.17 367.91 423.06 359.95C450.94 331.82 374.54 206.41 361.4 197.95C354.31 193.4 312.85 250.54 322.14 261.95C325.95 266.64 338.43 280.95 338.43 280.95C337.34 281.73 318.43 267.35 284.97 255.95C252.92 245.14 259.29 263.78 270.06 276Z" fill="#EB9481"/>
<path d="M392.78 352.16C390.86 349.95 389.09 347.61 387.3 345.3C385.51 342.99 383.61 340.76 381.81 338.45C378.23 333.88 374.55 329.38 370.97 324.81C363.803 315.663 356.813 306.393 350 297C348.087 294.333 346.183 291.687 344.29 289.06C342.37 286.37 340.29 283.78 338.43 281.06C338.22 280.77 337.79 281.06 337.98 281.4C339.53 283.89 340.98 286.45 342.54 288.93C344.1 291.41 345.73 293.84 347.38 296.26C350.647 301.06 354.003 305.797 357.45 310.47C364.34 319.83 371.54 328.95 379.15 337.76C381.29 340.23 383.53 342.62 385.72 345.06C387.91 347.5 390.38 349.82 392.62 352.28C392.7 352.36 392.86 352.25 392.78 352.16Z" fill="#263238"/>
<path d="M335.05 277.79L304.61 315.79C304.61 315.79 284.18 295.6 267.13 274.79C250.08 253.98 254.86 240.06 291.13 255.58C319.67 267.69 335.05 277.79 335.05 277.79Z" fill="#455A64"/>
<path d="M285.93 272.07C285.932 272.488 285.81 272.897 285.579 273.245C285.349 273.593 285.02 273.865 284.634 274.027C284.249 274.188 283.824 274.231 283.415 274.151C283.005 274.07 282.628 273.87 282.332 273.576C282.035 273.281 281.834 272.905 281.751 272.495C281.669 272.086 281.71 271.661 281.87 271.275C282.029 270.889 282.3 270.559 282.647 270.326C282.994 270.094 283.402 269.97 283.82 269.97C284.377 269.973 284.911 270.194 285.306 270.587C285.7 270.98 285.925 271.513 285.93 272.07ZM305.2 270C304.782 269.998 304.373 270.12 304.024 270.351C303.675 270.583 303.404 270.912 303.243 271.298C303.082 271.684 303.039 272.109 303.12 272.519C303.201 272.929 303.402 273.306 303.698 273.602C303.994 273.898 304.371 274.099 304.781 274.18C305.191 274.261 305.616 274.218 306.002 274.057C306.388 273.897 306.718 273.625 306.949 273.276C307.18 272.927 307.302 272.518 307.3 272.1C307.3 271.824 307.246 271.551 307.14 271.296C307.035 271.042 306.88 270.81 306.685 270.615C306.49 270.42 306.258 270.265 306.004 270.16C305.749 270.054 305.476 270 305.2 270ZM328 273.58C327.611 273.964 327.087 274.18 326.54 274.18C325.982 274.177 325.448 273.954 325.054 273.558C324.661 273.163 324.44 272.628 324.44 272.07C324.424 271.92 324.424 271.77 324.44 271.62L328 273.58ZM273.09 254.77C272.673 254.77 272.265 254.894 271.918 255.126C271.571 255.357 271.3 255.687 271.141 256.073C270.981 256.458 270.939 256.882 271.021 257.292C271.102 257.701 271.303 258.077 271.598 258.372C271.893 258.667 272.269 258.868 272.678 258.949C273.088 259.031 273.512 258.989 273.897 258.829C274.283 258.67 274.613 258.399 274.844 258.052C275.076 257.705 275.2 257.297 275.2 256.88C275.2 256.327 274.983 255.797 274.596 255.402C274.209 255.007 273.683 254.78 273.13 254.77H273.09ZM292.51 256.1C292.418 256.35 292.37 256.614 292.37 256.88C292.37 257.156 292.424 257.429 292.53 257.684C292.635 257.938 292.79 258.17 292.985 258.365C293.18 258.56 293.412 258.715 293.666 258.82C293.921 258.926 294.194 258.98 294.47 258.98C294.866 258.978 295.254 258.865 295.589 258.655C295.925 258.445 296.195 258.145 296.37 257.79L292.51 256.1ZM305.16 301.85C304.742 301.848 304.333 301.97 303.984 302.201C303.636 302.433 303.363 302.762 303.203 303.148C303.042 303.534 302.999 303.959 303.08 304.369C303.161 304.779 303.362 305.156 303.658 305.452C303.954 305.748 304.331 305.949 304.741 306.03C305.151 306.111 305.576 306.068 305.962 305.907C306.348 305.747 306.677 305.475 306.909 305.126C307.14 304.778 307.262 304.368 307.26 303.95C307.26 303.4 307.044 302.872 306.659 302.479C306.274 302.086 305.75 301.861 305.2 301.85H305.16ZM294.47 286.66C294.055 286.66 293.649 286.783 293.303 287.014C292.958 287.245 292.689 287.573 292.53 287.956C292.371 288.34 292.329 288.762 292.41 289.17C292.491 289.577 292.691 289.951 292.985 290.245C293.279 290.539 293.653 290.739 294.06 290.82C294.468 290.901 294.89 290.859 295.274 290.7C295.657 290.541 295.985 290.272 296.216 289.927C296.447 289.581 296.57 289.175 296.57 288.76C296.57 288.21 296.354 287.682 295.969 287.289C295.584 286.896 295.06 286.67 294.51 286.66H294.47ZM315.85 286.66C315.435 286.66 315.029 286.783 314.683 287.014C314.338 287.245 314.069 287.573 313.91 287.956C313.751 288.34 313.709 288.762 313.79 289.17C313.871 289.577 314.071 289.951 314.365 290.245C314.659 290.539 315.033 290.739 315.44 290.82C315.848 290.901 316.27 290.859 316.654 290.7C317.037 290.541 317.365 290.272 317.596 289.927C317.827 289.581 317.95 289.175 317.95 288.76C317.95 288.21 317.734 287.682 317.349 287.289C316.964 286.896 316.44 286.67 315.89 286.66H315.85Z" fill="white"/>
<path d="M324.41 274.7C322.491 277.472 320.403 280.123 318.16 282.64C316 285.21 313.8 287.74 311.59 290.26C309.38 292.78 307.13 295.35 304.85 297.83C302.57 300.31 300.03 302.83 297.62 305.28C297.48 305.42 297.23 305.2 297.36 305.04C299.46 302.41 301.47 299.7 303.63 297.12C305.79 294.54 308 292.02 310.21 289.5C312.42 286.98 314.67 284.42 316.95 281.93C319.207 279.305 321.625 276.824 324.19 274.5C324.218 274.477 324.253 274.464 324.289 274.465C324.326 274.466 324.361 274.479 324.387 274.504C324.414 274.528 324.431 274.562 324.436 274.598C324.44 274.634 324.431 274.67 324.41 274.7Z" fill="#263238"/>
<path opacity="0.1" d="M321.71 294.42L304.61 315.75C304.61 315.75 284.17 295.57 267.14 274.75C258.9 264.68 255.75 256.23 258.8 251.95L321.71 294.42Z" fill="black"/>
<path d="M318.25 415L308 352.19C308 352.19 322.11 327.55 313.92 309.87C309.79 300.87 284.75 265.08 269.49 254C255.17 243.61 236.49 246.63 228.75 254.77C199 286.15 181.43 330.09 170.72 415H318.25Z" fill="#EB9481"/>
<path d="M318.25 395.14L308 352.19C308 352.19 322.11 327.55 313.92 309.87C309.79 300.87 281.81 260.05 266.55 248.97C252.23 238.57 230.55 247.62 222.85 255.76C193.04 287.14 180.08 328.82 167.85 395.14H318.25Z" fill="#455A64"/>
<path d="M221.79 272.07C221.792 272.488 221.67 272.898 221.439 273.246C221.207 273.595 220.878 273.867 220.492 274.027C220.106 274.188 219.681 274.231 219.271 274.15C218.861 274.069 218.484 273.868 218.188 273.572C217.892 273.276 217.691 272.899 217.61 272.489C217.529 272.079 217.572 271.654 217.733 271.268C217.893 270.882 218.165 270.553 218.514 270.321C218.863 270.09 219.272 269.968 219.69 269.97C220.246 269.973 220.779 270.195 221.172 270.588C221.565 270.981 221.787 271.514 221.79 272.07ZM241.06 269.97C240.642 269.97 240.234 270.094 239.887 270.326C239.54 270.559 239.269 270.889 239.11 271.275C238.95 271.661 238.909 272.086 238.991 272.495C239.074 272.905 239.275 273.281 239.572 273.576C239.868 273.87 240.245 274.07 240.655 274.151C241.064 274.231 241.489 274.188 241.874 274.027C242.26 273.865 242.589 273.593 242.819 273.245C243.05 272.897 243.172 272.488 243.17 272.07C243.162 271.517 242.936 270.989 242.541 270.601C242.146 270.213 241.614 269.997 241.06 270V269.97ZM262.44 269.97C262.022 269.97 261.614 270.094 261.267 270.326C260.92 270.559 260.649 270.889 260.49 271.275C260.33 271.661 260.289 272.086 260.371 272.495C260.454 272.905 260.655 273.281 260.952 273.576C261.248 273.87 261.625 274.07 262.035 274.151C262.444 274.231 262.869 274.188 263.254 274.027C263.64 273.865 263.969 273.593 264.199 273.245C264.43 272.897 264.552 272.488 264.55 272.07C264.542 271.517 264.316 270.989 263.921 270.601C263.526 270.213 262.994 269.997 262.44 270V269.97ZM283.82 269.97C283.402 269.97 282.994 270.094 282.647 270.326C282.3 270.559 282.029 270.889 281.87 271.275C281.71 271.661 281.669 272.086 281.751 272.495C281.834 272.905 282.035 273.281 282.332 273.576C282.628 273.87 283.005 274.07 283.415 274.151C283.824 274.231 284.249 274.188 284.634 274.027C285.02 273.865 285.349 273.593 285.579 273.245C285.81 272.897 285.932 272.488 285.93 272.07C285.922 271.517 285.696 270.989 285.301 270.601C284.906 270.213 284.374 269.997 283.82 270V269.97ZM230.38 254.77C229.962 254.768 229.553 254.89 229.205 255.121C228.857 255.351 228.585 255.68 228.423 256.066C228.262 256.451 228.219 256.876 228.299 257.286C228.38 257.695 228.58 258.072 228.874 258.368C229.169 258.665 229.545 258.867 229.955 258.949C230.364 259.031 230.789 258.99 231.175 258.83C231.561 258.671 231.891 258.401 232.124 258.053C232.356 257.706 232.48 257.298 232.48 256.88C232.48 256.322 232.259 255.787 231.866 255.392C231.472 254.996 230.938 254.773 230.38 254.77ZM251.75 254.77C251.333 254.77 250.925 254.894 250.578 255.126C250.231 255.357 249.96 255.687 249.801 256.073C249.641 256.458 249.599 256.882 249.681 257.292C249.762 257.701 249.963 258.077 250.258 258.372C250.553 258.667 250.929 258.868 251.338 258.95C251.748 259.031 252.172 258.989 252.557 258.829C252.943 258.67 253.273 258.399 253.504 258.052C253.736 257.705 253.86 257.297 253.86 256.88C253.86 256.32 253.638 255.784 253.242 255.388C252.846 254.992 252.31 254.77 251.75 254.77ZM273.19 254.77H273.13C272.713 254.77 272.305 254.894 271.958 255.126C271.611 255.357 271.34 255.687 271.181 256.073C271.021 256.458 270.979 256.882 271.061 257.292C271.142 257.701 271.343 258.077 271.638 258.372C271.933 258.667 272.309 258.868 272.718 258.95C273.128 259.031 273.552 258.989 273.937 258.829C274.323 258.67 274.653 258.399 274.884 258.052C275.116 257.705 275.24 257.297 275.24 256.88C274.54 256.13 273.86 255.44 273.19 254.77ZM198.31 301.85C197.892 301.848 197.483 301.97 197.134 302.201C196.785 302.433 196.513 302.762 196.353 303.148C196.192 303.534 196.149 303.959 196.23 304.369C196.311 304.779 196.512 305.156 196.808 305.452C197.104 305.748 197.481 305.949 197.891 306.03C198.301 306.111 198.726 306.068 199.112 305.907C199.498 305.747 199.827 305.475 200.059 305.126C200.29 304.778 200.412 304.368 200.41 303.95C200.407 303.394 200.185 302.861 199.792 302.468C199.399 302.075 198.866 301.853 198.31 301.85ZM219.69 301.85C219.272 301.848 218.863 301.97 218.514 302.201C218.165 302.433 217.893 302.762 217.733 303.148C217.572 303.534 217.529 303.959 217.61 304.369C217.691 304.779 217.892 305.156 218.188 305.452C218.484 305.748 218.861 305.949 219.271 306.03C219.681 306.111 220.106 306.068 220.492 305.907C220.878 305.747 221.207 305.475 221.439 305.126C221.67 304.778 221.792 304.368 221.79 303.95C221.79 303.393 221.569 302.859 221.175 302.465C220.781 302.071 220.247 301.85 219.69 301.85ZM241.06 301.85C240.642 301.85 240.234 301.974 239.887 302.206C239.54 302.439 239.269 302.769 239.11 303.155C238.95 303.541 238.909 303.966 238.991 304.375C239.074 304.785 239.275 305.161 239.572 305.456C239.868 305.75 240.245 305.95 240.655 306.031C241.064 306.111 241.489 306.068 241.874 305.907C242.26 305.745 242.589 305.473 242.819 305.125C243.05 304.777 243.172 304.368 243.17 303.95C243.17 303.673 243.115 303.4 243.009 303.144C242.903 302.889 242.747 302.657 242.551 302.462C242.355 302.266 242.123 302.112 241.867 302.007C241.611 301.902 241.337 301.849 241.06 301.85ZM262.44 301.85C262.022 301.85 261.614 301.974 261.267 302.206C260.92 302.439 260.649 302.769 260.49 303.155C260.33 303.541 260.289 303.966 260.371 304.375C260.454 304.785 260.655 305.161 260.952 305.456C261.248 305.75 261.625 305.95 262.035 306.031C262.444 306.111 262.869 306.068 263.254 305.907C263.64 305.745 263.969 305.473 264.199 305.125C264.43 304.777 264.552 304.368 264.55 303.95C264.55 303.673 264.495 303.4 264.389 303.144C264.283 302.889 264.127 302.657 263.931 302.462C263.735 302.266 263.503 302.112 263.247 302.007C262.991 301.902 262.717 301.849 262.44 301.85ZM283.82 301.85C283.402 301.85 282.994 301.974 282.647 302.206C282.3 302.439 282.029 302.769 281.87 303.155C281.71 303.541 281.669 303.966 281.751 304.375C281.834 304.785 282.035 305.161 282.332 305.456C282.628 305.75 283.005 305.95 283.415 306.031C283.824 306.111 284.249 306.068 284.634 305.907C285.02 305.745 285.349 305.473 285.579 305.125C285.81 304.777 285.932 304.368 285.93 303.95C285.93 303.673 285.875 303.4 285.769 303.144C285.663 302.889 285.507 302.657 285.311 302.462C285.115 302.266 284.883 302.112 284.627 302.007C284.371 301.902 284.097 301.849 283.82 301.85ZM305.2 301.85C304.782 301.848 304.372 301.97 304.024 302.201C303.675 302.433 303.403 302.762 303.243 303.148C303.082 303.534 303.039 303.959 303.12 304.369C303.201 304.779 303.402 305.156 303.698 305.452C303.994 305.748 304.371 305.949 304.781 306.03C305.191 306.111 305.616 306.068 306.002 305.907C306.388 305.747 306.717 305.475 306.949 305.126C307.18 304.778 307.302 304.368 307.3 303.95C307.3 303.393 307.079 302.859 306.685 302.465C306.291 302.071 305.757 301.85 305.2 301.85ZM209 286.66C208.585 286.66 208.179 286.783 207.833 287.014C207.488 287.245 207.219 287.573 207.06 287.956C206.901 288.34 206.859 288.762 206.94 289.17C207.021 289.577 207.221 289.951 207.515 290.245C207.809 290.539 208.183 290.739 208.59 290.82C208.998 290.901 209.42 290.859 209.804 290.7C210.187 290.541 210.515 290.272 210.746 289.927C210.977 289.581 211.1 289.175 211.1 288.76C211.097 288.204 210.875 287.671 210.482 287.278C210.089 286.885 209.556 286.663 209 286.66ZM230.38 286.66C229.965 286.66 229.559 286.783 229.213 287.014C228.868 287.245 228.599 287.573 228.44 287.956C228.281 288.34 228.239 288.762 228.32 289.17C228.401 289.577 228.601 289.951 228.895 290.245C229.189 290.539 229.563 290.739 229.97 290.82C230.378 290.901 230.8 290.859 231.184 290.7C231.567 290.541 231.895 290.272 232.126 289.927C232.357 289.581 232.48 289.175 232.48 288.76C232.48 288.203 232.259 287.669 231.865 287.275C231.471 286.881 230.937 286.66 230.38 286.66ZM251.75 286.66C251.335 286.662 250.93 286.787 250.586 287.019C250.242 287.251 249.974 287.579 249.817 287.963C249.66 288.347 249.619 288.769 249.702 289.176C249.784 289.583 249.985 289.956 250.279 290.248C250.573 290.541 250.947 290.74 251.354 290.82C251.761 290.901 252.183 290.858 252.566 290.699C252.949 290.54 253.276 290.271 253.507 289.926C253.737 289.581 253.86 289.175 253.86 288.76C253.86 288.483 253.805 288.21 253.699 287.954C253.593 287.699 253.437 287.467 253.241 287.272C253.045 287.076 252.813 286.922 252.557 286.817C252.301 286.712 252.027 286.659 251.75 286.66ZM273.13 286.66C272.715 286.662 272.31 286.787 271.966 287.019C271.622 287.251 271.354 287.579 271.197 287.963C271.04 288.347 270.999 288.769 271.082 289.176C271.164 289.583 271.365 289.956 271.659 290.248C271.953 290.541 272.327 290.74 272.734 290.82C273.141 290.901 273.563 290.858 273.946 290.699C274.329 290.54 274.656 290.271 274.887 289.926C275.117 289.581 275.24 289.175 275.24 288.76C275.24 288.483 275.185 288.21 275.079 287.954C274.973 287.699 274.817 287.467 274.621 287.272C274.425 287.076 274.193 286.922 273.937 286.817C273.681 286.712 273.407 286.659 273.13 286.66ZM294.51 286.66C294.095 286.66 293.689 286.783 293.343 287.014C292.998 287.245 292.729 287.573 292.57 287.956C292.411 288.34 292.369 288.762 292.45 289.17C292.531 289.577 292.731 289.951 293.025 290.245C293.319 290.539 293.693 290.739 294.1 290.82C294.508 290.901 294.93 290.859 295.314 290.7C295.697 290.541 296.025 290.272 296.256 289.927C296.487 289.581 296.61 289.175 296.61 288.76C296.61 288.203 296.389 287.669 295.995 287.275C295.601 286.881 295.067 286.66 294.51 286.66ZM198.31 333.73C197.892 333.728 197.483 333.85 197.135 334.081C196.787 334.311 196.515 334.64 196.353 335.026C196.192 335.411 196.149 335.836 196.229 336.246C196.31 336.655 196.51 337.032 196.804 337.328C197.099 337.625 197.475 337.826 197.885 337.909C198.294 337.991 198.719 337.95 199.105 337.79C199.491 337.631 199.821 337.361 200.054 337.013C200.286 336.666 200.41 336.258 200.41 335.84C200.41 335.282 200.189 334.747 199.796 334.352C199.402 333.956 198.868 333.733 198.31 333.73ZM219.69 333.73C219.272 333.728 218.863 333.85 218.515 334.081C218.167 334.311 217.895 334.64 217.734 335.026C217.572 335.411 217.529 335.836 217.609 336.246C217.69 336.655 217.89 337.032 218.184 337.328C218.479 337.625 218.855 337.826 219.265 337.909C219.674 337.991 220.099 337.95 220.485 337.79C220.871 337.631 221.201 337.361 221.434 337.013C221.666 336.666 221.79 336.258 221.79 335.84C221.791 335.563 221.738 335.289 221.633 335.033C221.528 334.777 221.374 334.545 221.178 334.349C220.983 334.153 220.751 333.997 220.496 333.891C220.241 333.785 219.967 333.73 219.69 333.73ZM241.06 333.73C240.643 333.73 240.235 333.854 239.888 334.086C239.541 334.317 239.27 334.647 239.111 335.033C238.951 335.418 238.909 335.842 238.991 336.252C239.072 336.661 239.273 337.037 239.568 337.332C239.863 337.627 240.239 337.828 240.648 337.909C241.058 337.991 241.482 337.949 241.867 337.789C242.253 337.63 242.583 337.359 242.814 337.012C243.046 336.665 243.17 336.257 243.17 335.84C243.171 335.563 243.118 335.288 243.012 335.031C242.907 334.774 242.751 334.541 242.555 334.345C242.359 334.149 242.126 333.994 241.869 333.888C241.612 333.782 241.337 333.729 241.06 333.73ZM262.44 333.73C262.023 333.73 261.615 333.854 261.268 334.086C260.921 334.317 260.65 334.647 260.491 335.033C260.331 335.418 260.289 335.842 260.371 336.252C260.452 336.661 260.653 337.037 260.948 337.332C261.243 337.627 261.619 337.828 262.028 337.909C262.438 337.991 262.862 337.949 263.247 337.789C263.633 337.63 263.963 337.359 264.194 337.012C264.426 336.665 264.55 336.257 264.55 335.84C264.551 335.563 264.498 335.288 264.392 335.031C264.287 334.774 264.131 334.541 263.935 334.345C263.739 334.149 263.506 333.994 263.249 333.888C262.992 333.782 262.717 333.729 262.44 333.73ZM283.82 333.73C283.403 333.73 282.995 333.854 282.648 334.086C282.301 334.317 282.03 334.647 281.871 335.033C281.711 335.418 281.669 335.842 281.751 336.252C281.832 336.661 282.033 337.037 282.328 337.332C282.623 337.627 282.999 337.828 283.408 337.909C283.818 337.991 284.242 337.949 284.627 337.789C285.013 337.63 285.343 337.359 285.574 337.012C285.806 336.665 285.93 336.257 285.93 335.84C285.931 335.563 285.878 335.288 285.772 335.031C285.667 334.774 285.511 334.541 285.315 334.345C285.119 334.149 284.886 333.994 284.629 333.888C284.372 333.782 284.097 333.729 283.82 333.73ZM305.2 333.73C304.782 333.728 304.373 333.85 304.025 334.081C303.677 334.311 303.405 334.64 303.243 335.026C303.082 335.411 303.039 335.836 303.119 336.246C303.2 336.655 303.4 337.032 303.694 337.328C303.989 337.625 304.365 337.826 304.775 337.909C305.184 337.991 305.609 337.95 305.995 337.79C306.381 337.631 306.711 337.361 306.944 337.013C307.176 336.666 307.3 336.258 307.3 335.84C307.301 335.563 307.248 335.289 307.143 335.033C307.038 334.777 306.884 334.545 306.688 334.349C306.493 334.153 306.261 333.997 306.006 333.891C305.751 333.785 305.477 333.73 305.2 333.73ZM187.62 318.54C187.19 318.538 186.771 318.671 186.42 318.92C186.15 319.7 185.88 320.48 185.62 321.26C185.735 321.632 185.951 321.964 186.243 322.22C186.536 322.476 186.894 322.646 187.277 322.711C187.66 322.775 188.054 322.732 188.415 322.586C188.775 322.44 189.088 322.197 189.318 321.884C189.549 321.571 189.687 321.2 189.719 320.812C189.751 320.425 189.675 320.036 189.499 319.689C189.323 319.342 189.054 319.051 188.722 318.849C188.39 318.646 188.009 318.539 187.62 318.54ZM209 318.54C208.585 318.54 208.179 318.663 207.833 318.894C207.488 319.125 207.219 319.453 207.06 319.836C206.901 320.22 206.859 320.642 206.94 321.05C207.021 321.457 207.221 321.831 207.515 322.125C207.809 322.419 208.183 322.619 208.59 322.7C208.998 322.781 209.42 322.739 209.804 322.58C210.187 322.421 210.515 322.152 210.746 321.807C210.977 321.461 211.1 321.055 211.1 320.64C211.097 320.084 210.875 319.551 210.482 319.158C210.089 318.765 209.556 318.543 209 318.54ZM230.38 318.54C229.965 318.54 229.559 318.663 229.213 318.894C228.868 319.125 228.599 319.453 228.44 319.836C228.281 320.22 228.239 320.642 228.32 321.05C228.401 321.457 228.601 321.831 228.895 322.125C229.189 322.419 229.563 322.619 229.97 322.7C230.378 322.781 230.8 322.739 231.184 322.58C231.567 322.421 231.895 322.152 232.126 321.807C232.357 321.461 232.48 321.055 232.48 320.64C232.48 320.083 232.259 319.549 231.865 319.155C231.471 318.761 230.937 318.54 230.38 318.54ZM251.75 318.54C251.335 318.542 250.93 318.667 250.586 318.899C250.242 319.131 249.974 319.459 249.817 319.843C249.66 320.227 249.619 320.649 249.702 321.056C249.784 321.463 249.985 321.836 250.279 322.128C250.573 322.421 250.947 322.62 251.354 322.7C251.761 322.781 252.183 322.738 252.566 322.579C252.949 322.42 253.276 322.151 253.507 321.806C253.737 321.461 253.86 321.055 253.86 320.64C253.86 320.363 253.805 320.09 253.699 319.834C253.593 319.579 253.437 319.347 253.241 319.152C253.045 318.956 252.813 318.802 252.557 318.697C252.301 318.592 252.027 318.539 251.75 318.54ZM273.13 318.54C272.715 318.542 272.31 318.667 271.966 318.899C271.622 319.131 271.354 319.459 271.197 319.843C271.04 320.227 270.999 320.649 271.082 321.056C271.164 321.463 271.365 321.836 271.659 322.128C271.953 322.421 272.327 322.62 272.734 322.7C273.141 322.781 273.563 322.738 273.946 322.579C274.329 322.42 274.656 322.151 274.887 321.806C275.117 321.461 275.24 321.055 275.24 320.64C275.24 320.363 275.185 320.09 275.079 319.834C274.973 319.579 274.817 319.347 274.621 319.152C274.425 318.956 274.193 318.802 273.937 318.697C273.681 318.592 273.407 318.539 273.13 318.54ZM294.51 318.54C294.095 318.54 293.689 318.663 293.343 318.894C292.998 319.125 292.729 319.453 292.57 319.836C292.411 320.22 292.369 320.642 292.45 321.05C292.531 321.457 292.731 321.831 293.025 322.125C293.319 322.419 293.693 322.619 294.1 322.7C294.508 322.781 294.93 322.739 295.314 322.58C295.697 322.421 296.025 322.152 296.256 321.807C296.487 321.461 296.61 321.055 296.61 320.64C296.61 320.083 296.389 319.549 295.995 319.155C295.601 318.761 295.067 318.54 294.51 318.54ZM316.29 318.54C316.157 318.525 316.023 318.525 315.89 318.54C315.588 318.54 315.29 318.606 315.016 318.731C314.742 318.857 314.498 319.041 314.301 319.269C314.104 319.498 313.959 319.766 313.875 320.056C313.791 320.345 313.77 320.65 313.815 320.948C313.859 321.247 313.967 321.532 314.131 321.785C314.296 322.038 314.513 322.252 314.768 322.414C315.023 322.575 315.309 322.68 315.608 322.721C315.907 322.762 316.211 322.737 316.5 322.65C316.505 321.291 316.435 319.932 316.29 318.58V318.54ZM176.93 365.54C176.512 365.538 176.103 365.66 175.755 365.891C175.407 366.121 175.135 366.45 174.973 366.836C174.812 367.221 174.769 367.646 174.849 368.056C174.93 368.465 175.13 368.842 175.424 369.138C175.719 369.435 176.095 369.636 176.505 369.719C176.914 369.801 177.339 369.76 177.725 369.6C178.111 369.441 178.441 369.171 178.674 368.823C178.906 368.476 179.03 368.068 179.03 367.65C179.012 367.104 178.783 366.587 178.391 366.207C178 365.826 177.476 365.612 176.93 365.61V365.54ZM198.31 365.54C197.892 365.538 197.483 365.66 197.135 365.891C196.787 366.121 196.515 366.45 196.353 366.836C196.192 367.221 196.149 367.646 196.229 368.056C196.31 368.465 196.51 368.842 196.804 369.138C197.099 369.435 197.475 369.636 197.885 369.719C198.294 369.801 198.719 369.76 199.105 369.6C199.491 369.441 199.821 369.171 200.054 368.823C200.286 368.476 200.41 368.068 200.41 367.65C200.389 367.105 200.16 366.589 199.769 366.209C199.378 365.829 198.855 365.615 198.31 365.61V365.54ZM219.69 365.54C219.272 365.538 218.863 365.66 218.515 365.891C218.167 366.121 217.895 366.45 217.734 366.836C217.572 367.221 217.529 367.646 217.609 368.056C217.69 368.465 217.89 368.842 218.184 369.138C218.479 369.435 218.855 369.636 219.265 369.719C219.674 369.801 220.099 369.76 220.485 369.6C220.871 369.441 221.201 369.171 221.434 368.823C221.666 368.476 221.79 368.068 221.79 367.65C221.772 367.104 221.543 366.587 221.151 366.207C220.76 365.826 220.236 365.612 219.69 365.61V365.54ZM241.06 365.54C240.643 365.54 240.235 365.664 239.888 365.896C239.541 366.127 239.27 366.457 239.111 366.843C238.951 367.228 238.909 367.652 238.991 368.062C239.072 368.471 239.273 368.847 239.568 369.142C239.863 369.437 240.239 369.638 240.648 369.719C241.058 369.801 241.482 369.759 241.867 369.599C242.253 369.44 242.583 369.169 242.814 368.822C243.046 368.475 243.17 368.067 243.17 367.65C243.152 367.103 242.922 366.584 242.528 366.203C242.134 365.822 241.608 365.61 241.06 365.61V365.54ZM262.44 365.54C262.023 365.54 261.615 365.664 261.268 365.896C260.921 366.127 260.65 366.457 260.491 366.843C260.331 367.228 260.289 367.652 260.371 368.062C260.452 368.471 260.653 368.847 260.948 369.142C261.243 369.437 261.619 369.638 262.028 369.719C262.438 369.801 262.862 369.759 263.247 369.599C263.633 369.44 263.963 369.169 264.194 368.822C264.426 368.475 264.55 368.067 264.55 367.65C264.532 367.103 264.302 366.584 263.908 366.203C263.514 365.822 262.988 365.61 262.44 365.61V365.54ZM283.82 365.54C283.403 365.54 282.995 365.664 282.648 365.896C282.301 366.127 282.03 366.457 281.871 366.843C281.711 367.228 281.669 367.652 281.751 368.062C281.832 368.471 282.033 368.847 282.328 369.142C282.623 369.437 282.999 369.638 283.408 369.719C283.818 369.801 284.242 369.759 284.627 369.599C285.013 369.44 285.343 369.169 285.574 368.822C285.806 368.475 285.93 368.067 285.93 367.65C285.912 367.103 285.682 366.584 285.288 366.203C284.894 365.822 284.368 365.61 283.82 365.61V365.54ZM305.2 365.54C304.782 365.538 304.373 365.66 304.025 365.891C303.677 366.121 303.405 366.45 303.243 366.836C303.082 367.221 303.039 367.646 303.119 368.056C303.2 368.465 303.4 368.842 303.694 369.138C303.989 369.435 304.365 369.636 304.775 369.719C305.184 369.801 305.609 369.76 305.995 369.6C306.381 369.441 306.711 369.171 306.944 368.823C307.176 368.476 307.3 368.068 307.3 367.65C307.282 367.104 307.053 366.587 306.661 366.207C306.27 365.826 305.746 365.612 305.2 365.61V365.54ZM187.62 350.42C187.202 350.418 186.793 350.54 186.444 350.771C186.095 351.003 185.823 351.332 185.663 351.718C185.502 352.104 185.459 352.529 185.54 352.939C185.621 353.349 185.822 353.726 186.118 354.022C186.414 354.318 186.791 354.519 187.201 354.6C187.611 354.681 188.036 354.638 188.422 354.477C188.808 354.317 189.137 354.045 189.369 353.696C189.6 353.348 189.722 352.938 189.72 352.52C189.72 351.963 189.499 351.429 189.105 351.035C188.711 350.641 188.177 350.42 187.62 350.42ZM209 350.42C208.582 350.418 208.173 350.54 207.824 350.771C207.475 351.003 207.203 351.332 207.043 351.718C206.882 352.104 206.839 352.529 206.92 352.939C207.001 353.349 207.202 353.726 207.498 354.022C207.794 354.318 208.171 354.519 208.581 354.6C208.991 354.681 209.416 354.638 209.802 354.477C210.188 354.317 210.517 354.045 210.749 353.696C210.98 353.348 211.102 352.938 211.1 352.52C211.097 351.964 210.875 351.431 210.482 351.038C210.089 350.645 209.556 350.423 209 350.42ZM230.38 350.42C229.962 350.418 229.553 350.54 229.204 350.771C228.855 351.003 228.583 351.332 228.423 351.718C228.262 352.104 228.219 352.529 228.3 352.939C228.381 353.349 228.582 353.726 228.878 354.022C229.174 354.318 229.551 354.519 229.961 354.6C230.371 354.681 230.796 354.638 231.182 354.477C231.568 354.317 231.897 354.045 232.129 353.696C232.36 353.348 232.482 352.938 232.48 352.52C232.48 351.963 232.259 351.429 231.865 351.035C231.471 350.641 230.937 350.42 230.38 350.42ZM251.75 350.42C251.332 350.42 250.924 350.544 250.577 350.776C250.23 351.009 249.959 351.339 249.8 351.725C249.64 352.111 249.599 352.536 249.681 352.945C249.764 353.355 249.965 353.731 250.262 354.026C250.558 354.32 250.935 354.52 251.345 354.601C251.754 354.681 252.179 354.638 252.564 354.477C252.95 354.315 253.279 354.043 253.509 353.695C253.74 353.347 253.862 352.938 253.86 352.52C253.86 352.243 253.805 351.97 253.699 351.714C253.593 351.459 253.437 351.227 253.241 351.032C253.045 350.836 252.813 350.682 252.557 350.577C252.301 350.472 252.027 350.419 251.75 350.42ZM273.13 350.42C272.712 350.42 272.304 350.544 271.957 350.776C271.61 351.009 271.339 351.339 271.18 351.725C271.02 352.111 270.979 352.536 271.061 352.945C271.144 353.355 271.345 353.731 271.642 354.026C271.938 354.32 272.315 354.52 272.725 354.601C273.134 354.681 273.559 354.638 273.944 354.477C274.33 354.315 274.659 354.043 274.889 353.695C275.12 353.347 275.242 352.938 275.24 352.52C275.24 352.243 275.185 351.97 275.079 351.714C274.973 351.459 274.817 351.227 274.621 351.032C274.425 350.836 274.193 350.682 273.937 350.577C273.681 350.472 273.407 350.419 273.13 350.42ZM294.51 350.42C294.092 350.418 293.683 350.54 293.334 350.771C292.985 351.003 292.713 351.332 292.553 351.718C292.392 352.104 292.349 352.529 292.43 352.939C292.511 353.349 292.712 353.726 293.008 354.022C293.304 354.318 293.681 354.519 294.091 354.6C294.501 354.681 294.926 354.638 295.312 354.477C295.698 354.317 296.027 354.045 296.259 353.696C296.49 353.348 296.612 352.938 296.61 352.52C296.61 351.963 296.389 351.429 295.995 351.035C295.601 350.641 295.067 350.42 294.51 350.42ZM187.62 382.3C187.202 382.298 186.793 382.42 186.444 382.651C186.095 382.883 185.823 383.212 185.663 383.598C185.502 383.984 185.459 384.409 185.54 384.819C185.621 385.229 185.822 385.606 186.118 385.902C186.414 386.198 186.791 386.399 187.201 386.48C187.611 386.561 188.036 386.518 188.422 386.357C188.808 386.197 189.137 385.925 189.369 385.576C189.6 385.228 189.722 384.818 189.72 384.4C189.72 384.124 189.666 383.851 189.56 383.596C189.455 383.342 189.3 383.11 189.105 382.915C188.91 382.72 188.678 382.565 188.424 382.46C188.169 382.354 187.896 382.3 187.62 382.3ZM209 382.3C208.582 382.298 208.173 382.42 207.824 382.651C207.475 382.883 207.203 383.212 207.043 383.598C206.882 383.984 206.839 384.409 206.92 384.819C207.001 385.229 207.202 385.606 207.498 385.902C207.794 386.198 208.171 386.399 208.581 386.48C208.991 386.561 209.416 386.518 209.802 386.357C210.188 386.197 210.517 385.925 210.749 385.576C210.98 385.228 211.102 384.818 211.1 384.4C211.097 383.844 210.875 383.311 210.482 382.918C210.089 382.525 209.556 382.303 209 382.3ZM230.38 382.3C229.962 382.298 229.553 382.42 229.204 382.651C228.855 382.883 228.583 383.212 228.423 383.598C228.262 383.984 228.219 384.409 228.3 384.819C228.381 385.229 228.582 385.606 228.878 385.902C229.174 386.198 229.551 386.399 229.961 386.48C230.371 386.561 230.796 386.518 231.182 386.357C231.568 386.197 231.897 385.925 232.129 385.576C232.36 385.228 232.482 384.818 232.48 384.4C232.48 384.124 232.426 383.851 232.32 383.596C232.215 383.342 232.06 383.11 231.865 382.915C231.67 382.72 231.438 382.565 231.184 382.46C230.929 382.354 230.656 382.3 230.38 382.3ZM251.75 382.3C251.332 382.3 250.924 382.424 250.577 382.656C250.23 382.889 249.959 383.219 249.8 383.605C249.64 383.991 249.599 384.416 249.681 384.825C249.764 385.235 249.965 385.611 250.262 385.906C250.558 386.2 250.935 386.4 251.345 386.481C251.754 386.561 252.179 386.518 252.564 386.357C252.95 386.195 253.279 385.923 253.509 385.575C253.74 385.227 253.862 384.818 253.86 384.4C253.86 384.123 253.805 383.85 253.699 383.594C253.593 383.339 253.437 383.107 253.241 382.912C253.045 382.716 252.813 382.562 252.557 382.457C252.301 382.352 252.027 382.299 251.75 382.3ZM273.13 382.3C272.712 382.3 272.304 382.424 271.957 382.656C271.61 382.889 271.339 383.219 271.18 383.605C271.02 383.991 270.979 384.416 271.061 384.825C271.144 385.235 271.345 385.611 271.642 385.906C271.938 386.2 272.315 386.4 272.725 386.481C273.134 386.561 273.559 386.518 273.944 386.357C274.33 386.195 274.659 385.923 274.889 385.575C275.12 385.227 275.242 384.818 275.24 384.4C275.24 384.123 275.185 383.85 275.079 383.594C274.973 383.339 274.817 383.107 274.621 382.912C274.425 382.716 274.193 382.562 273.937 382.457C273.681 382.352 273.407 382.299 273.13 382.3ZM294.51 382.3C294.092 382.298 293.683 382.42 293.334 382.651C292.985 382.883 292.713 383.212 292.553 383.598C292.392 383.984 292.349 384.409 292.43 384.819C292.511 385.229 292.712 385.606 293.008 385.902C293.304 386.198 293.681 386.399 294.091 386.48C294.501 386.561 294.926 386.518 295.312 386.357C295.698 386.197 296.027 385.925 296.259 385.576C296.49 385.228 296.612 384.818 296.61 384.4C296.61 384.124 296.556 383.851 296.45 383.596C296.345 383.342 296.19 383.11 295.995 382.915C295.8 382.72 295.568 382.565 295.314 382.46C295.059 382.354 294.786 382.3 294.51 382.3ZM315.22 382.42C314.8 382.558 314.435 382.827 314.178 383.186C313.921 383.546 313.785 383.978 313.79 384.42C313.789 384.697 313.842 384.971 313.947 385.227C314.052 385.483 314.206 385.715 314.402 385.911C314.597 386.108 314.829 386.263 315.084 386.369C315.339 386.475 315.613 386.53 315.89 386.53H316.19L315.22 382.42Z" fill="white"/>
<path d="M283 343C275.726 343.651 268.51 344.838 261.41 346.55C257.89 347.45 254.41 348.55 250.99 349.65C249.27 350.21 247.55 350.72 245.81 351.22C244.004 351.775 242.137 352.111 240.25 352.22C240.216 352.22 240.182 352.234 240.158 352.258C240.134 352.282 240.12 352.316 240.12 352.35C240.12 352.384 240.134 352.418 240.158 352.442C240.182 352.466 240.216 352.48 240.25 352.48C242.037 352.567 243.828 352.533 245.61 352.38C247.334 352.162 249.041 351.828 250.72 351.38C254.29 350.5 257.82 349.45 261.39 348.53C268.59 346.68 275.78 344.84 283.09 343.53C283.43 343.55 283.35 343 283 343Z" fill="#263238"/>
<path d="M301 349.46C295.021 348.832 289.012 348.542 283 348.59C280 348.59 277 348.84 274 349.13C272.57 349.26 271.14 349.43 269.71 349.61C268.28 349.79 266.59 350.22 265.02 350.4C264.86 350.4 264.86 350.67 265.02 350.66C266.5 350.54 268.02 350.66 269.51 350.66L274.01 350.55C277.01 350.47 280.01 350.43 283.01 350.33C289.01 350.13 295.01 349.99 301.01 349.99C301.31 350 301.29 349.49 301 349.46Z" fill="#263238"/>
<path d="M231.25 267.55C212.25 274.13 123.17 275.55 112.04 262.69C91.35 238.69 84.19 172.79 80.77 164.82C71.38 142.99 141.65 137.06 143.77 150.89C147.32 173.99 151.86 219.41 156.71 221.17C171.07 226.39 198.38 235.88 229.35 244.75C251 250.94 252.21 260.28 231.25 267.55Z" fill="#EB9481"/>
<path d="M82.82 172.67C87.62 179.09 138.82 166.5 142.19 158.97C143.059 156.355 143.59 153.64 143.77 150.89C143.77 150.89 152.02 134.5 163.77 123.3C173.59 113.87 189.25 101.01 184.38 95.5402C177.3 87.5402 155.54 101.43 143.54 110.17C142.6 102.17 141.05 95.3402 138.68 91.7002C130.84 79.6202 72.48 107.79 71.03 122.36C69.62 136.4 78 166.25 82.82 172.67Z" fill="#EB9481"/>
<path d="M147 112.7C142.51 118.7 138 109.98 138 109.98C138 109.98 141.45 124.08 134.43 128.47C127.67 132.69 122.61 121.97 122.24 121.21C122.41 121.95 125.24 134.99 117.74 138.68C109.94 142.5 106.74 130.87 106.51 130.12C106.45 130.88 105.51 140.89 99.21 142.39C88.39 145 90 119.31 83.72 112.78C83.72 112.78 71.43 122.14 71.02 122.34C71.02 122.34 72.02 97.9001 81.33 89.9301C82.6632 88.7502 84.3591 88.0605 86.1373 87.9751C87.9156 87.8896 89.6698 88.4135 91.11 89.4601C91.11 89.4601 90.57 81.5501 96.38 78.4601C99.38 76.8801 104.55 80.2601 104.55 80.2601C104.55 80.2601 104.39 73.9001 109.73 71.4701C113.99 69.5301 118.52 73.2201 118.52 73.2201C118.52 73.2201 121.19 67.0401 126.19 66.4601C136.26 65.2701 156.62 99.8701 147 112.7Z" fill="#EB9481"/>
<path d="M119.33 73.6902C119.319 73.6685 119.316 73.6438 119.321 73.62C119.325 73.5962 119.338 73.5747 119.356 73.5587C119.374 73.5427 119.397 73.5333 119.422 73.5317C119.446 73.5302 119.47 73.5367 119.49 73.5502C128.96 83.2902 136.38 96.9002 138.35 110.43C138.42 110.87 137.72 111.17 137.56 110.69C132.86 97.1402 127.61 85.4802 119.33 73.6902Z" fill="#263238"/>
<path d="M104.52 80.0002C104.43 79.8802 104.64 79.7202 104.76 79.8502C114.47 89.9402 122.4 105.49 122.84 121.35C122.84 121.9 122.32 122.35 122.26 121.78C121.17 111.29 112 90.6202 104.52 80.0002Z" fill="#263238"/>
<path d="M106.22 131.24C105.22 116.05 99.44 102.7 91.54 89.8502C91.44 89.6902 91.68 89.5602 91.81 89.6802C97.38 94.9102 101.57 103.62 104.25 110.68C106.856 117.186 107.717 124.259 106.75 131.2C106.71 131.48 106.24 131.56 106.22 131.24Z" fill="#263238"/>
<path d="M138.28 110.1C138.36 110.63 137.5 110.16 137.56 110.69C137.81 112.94 138.17 126.62 133.56 128.19C129.86 129.44 125.56 125.32 124.56 123.1L122 117.52L122.45 123.65C122.677 126.371 122.454 129.111 121.79 131.76C121.12 134.33 119.79 136.76 117.6 137.76C116.581 138.349 115.391 138.57 114.228 138.388C113.066 138.206 112.001 137.632 111.21 136.76C109.478 134.776 108.277 132.385 107.72 129.81L106 122.82L105.38 130.03C105.216 132.04 104.792 134.019 104.12 135.92C103.55 137.744 102.458 139.36 100.98 140.57C100.29 141.084 99.4713 141.395 98.6147 141.469C97.758 141.543 96.8977 141.377 96.13 140.99C94.5446 139.865 93.3131 138.311 92.58 136.51C90.79 132.78 89.78 128.63 88.58 124.56C87.99 122.56 87.4 120.46 86.72 118.43C86.133 116.355 85.1102 114.429 83.72 112.78C85.05 114.46 85.53 116.59 86.11 118.6C86.69 120.61 87.11 122.73 87.5 124.82C88.2761 129.06 89.4479 133.219 91 137.24C91.7955 139.434 93.2176 141.347 95.09 142.74C96.1888 143.392 97.4548 143.707 98.731 143.647C100.007 143.586 101.238 143.153 102.27 142.4C104.136 140.953 105.529 138.982 106.27 136.74C107.053 134.638 107.561 132.443 107.78 130.21L105.38 130.37C105.984 133.425 107.38 136.266 109.43 138.61C110.599 139.883 112.177 140.707 113.89 140.94C115.58 141.104 117.281 140.756 118.77 139.94C121.77 138.36 123.38 135.2 124.09 132.32C124.772 129.395 124.968 126.378 124.67 123.39L122.57 123.94C123.95 126.72 128.2 131.83 134.19 130.62C141.76 127.89 139 112.82 138.28 110.1Z" fill="#263238"/>
<path d="M138.06 110C139.012 111.211 140.149 112.264 141.43 113.12C141.934 113.481 142.525 113.701 143.143 113.755C143.76 113.81 144.381 113.698 144.94 113.43C146.081 112.68 146.978 111.613 147.52 110.36C148.19 109.01 148.83 107.56 149.43 106.03C149.65 107.682 149.517 109.363 149.04 110.96C148.826 111.855 148.438 112.699 147.897 113.444C147.357 114.188 146.675 114.819 145.89 115.3C144.972 115.737 143.943 115.883 142.94 115.72C142.003 115.526 141.137 115.076 140.44 114.42C139.197 113.237 138.364 111.689 138.06 110Z" fill="#263238"/>
<path d="M167.24 223.47L177.92 278.83C177.92 278.83 216.75 278.49 234.68 274.16C251.86 270 259.16 254 229.23 243C192.34 229.56 167.24 223.47 167.24 223.47Z" fill="#455A64"/>
<path d="M179 240.19C179 240.606 178.877 241.012 178.646 241.357C178.415 241.702 178.087 241.971 177.704 242.13C177.32 242.289 176.898 242.331 176.49 242.25C176.083 242.169 175.709 241.969 175.415 241.675C175.121 241.381 174.921 241.007 174.84 240.6C174.759 240.193 174.801 239.77 174.96 239.387C175.119 239.003 175.388 238.675 175.733 238.444C176.079 238.213 176.485 238.09 176.9 238.09C177.456 238.093 177.989 238.315 178.382 238.708C178.775 239.101 178.997 239.634 179 240.19ZM198.28 238.09C197.862 238.088 197.453 238.211 197.104 238.442C196.756 238.673 196.484 239.002 196.323 239.388C196.162 239.774 196.119 240.199 196.2 240.609C196.281 241.02 196.482 241.396 196.778 241.692C197.074 241.988 197.451 242.189 197.861 242.27C198.271 242.351 198.696 242.309 199.082 242.148C199.468 241.987 199.797 241.715 200.029 241.366C200.26 241.018 200.382 240.608 200.38 240.19C200.378 239.639 200.16 239.111 199.773 238.719C199.386 238.326 198.861 238.101 198.31 238.09H198.28ZM217.91 239.01C217.679 239.361 217.554 239.771 217.55 240.19C217.526 240.747 217.725 241.291 218.101 241.701C218.478 242.112 219.003 242.356 219.56 242.38C220.117 242.404 220.661 242.206 221.071 241.829C221.482 241.452 221.726 240.927 221.75 240.37L217.91 239.01ZM167.78 223.61L167.21 223.47L167.77 226.39C168.115 226.009 168.306 225.514 168.306 225C168.306 224.486 168.115 223.991 167.77 223.61H167.78ZM176.93 270C176.692 270.001 176.456 270.038 176.23 270.11L177.02 274.2C177.554 274.154 178.05 273.906 178.408 273.507C178.765 273.109 178.958 272.589 178.947 272.053C178.935 271.517 178.72 271.006 178.346 270.623C177.971 270.24 177.465 270.014 176.93 269.99V270ZM198.31 270C197.892 269.998 197.483 270.121 197.134 270.352C196.786 270.583 196.514 270.912 196.353 271.298C196.192 271.684 196.149 272.109 196.23 272.519C196.311 272.93 196.512 273.306 196.808 273.602C197.104 273.898 197.481 274.099 197.891 274.18C198.301 274.261 198.726 274.219 199.112 274.058C199.498 273.897 199.827 273.625 200.059 273.276C200.29 272.928 200.412 272.518 200.41 272.1C200.407 271.544 200.185 271.011 199.792 270.618C199.399 270.225 198.866 270.003 198.31 270ZM219.69 270C219.272 269.998 218.863 270.121 218.514 270.352C218.165 270.583 217.894 270.912 217.733 271.298C217.572 271.684 217.529 272.109 217.61 272.519C217.691 272.93 217.892 273.306 218.188 273.602C218.484 273.898 218.861 274.099 219.271 274.18C219.681 274.261 220.106 274.219 220.492 274.058C220.878 273.897 221.207 273.625 221.439 273.276C221.67 272.928 221.792 272.518 221.79 272.1C221.79 271.824 221.736 271.551 221.63 271.297C221.525 271.042 221.37 270.81 221.175 270.615C220.98 270.42 220.748 270.266 220.494 270.16C220.239 270.055 219.966 270 219.69 270ZM241.06 270C240.784 270 240.511 270.055 240.256 270.16C240.002 270.266 239.77 270.42 239.575 270.615C239.38 270.81 239.225 271.042 239.12 271.297C239.014 271.551 238.96 271.824 238.96 272.1C238.96 272.332 239.001 272.562 239.08 272.78C240.371 272.264 241.616 271.638 242.8 270.91C242.606 270.628 242.346 270.398 242.043 270.239C241.74 270.081 241.402 269.999 241.06 270ZM187.62 254.8C187.202 254.798 186.793 254.92 186.445 255.151C186.097 255.382 185.825 255.71 185.664 256.096C185.502 256.481 185.459 256.906 185.539 257.316C185.62 257.726 185.82 258.103 186.114 258.399C186.409 258.695 186.785 258.897 187.195 258.979C187.604 259.061 188.029 259.02 188.415 258.861C188.801 258.701 189.131 258.431 189.364 258.083C189.596 257.736 189.72 257.328 189.72 256.91C189.724 256.631 189.673 256.355 189.569 256.096C189.465 255.837 189.311 255.601 189.116 255.402C188.921 255.203 188.688 255.045 188.431 254.937C188.175 254.828 187.899 254.772 187.62 254.77V254.8ZM209 254.8C208.582 254.798 208.173 254.92 207.825 255.151C207.477 255.382 207.205 255.71 207.044 256.096C206.882 256.481 206.839 256.906 206.919 257.316C207 257.726 207.2 258.103 207.494 258.399C207.789 258.695 208.165 258.897 208.575 258.979C208.984 259.061 209.409 259.02 209.795 258.861C210.181 258.701 210.511 258.431 210.744 258.083C210.976 257.736 211.1 257.328 211.1 256.91C211.103 256.632 211.05 256.356 210.946 256.097C210.842 255.839 210.688 255.604 210.493 255.405C210.298 255.207 210.066 255.048 209.81 254.939C209.554 254.83 209.278 254.773 209 254.77V254.8ZM230.38 254.8C229.962 254.798 229.553 254.92 229.205 255.151C228.857 255.382 228.585 255.71 228.424 256.096C228.262 256.481 228.219 256.906 228.299 257.316C228.38 257.726 228.58 258.103 228.874 258.399C229.169 258.695 229.545 258.897 229.955 258.979C230.364 259.061 230.789 259.02 231.175 258.861C231.561 258.701 231.891 258.431 232.124 258.083C232.356 257.736 232.48 257.328 232.48 256.91C232.484 256.631 232.433 256.355 232.329 256.096C232.225 255.837 232.072 255.601 231.876 255.402C231.681 255.203 231.448 255.045 231.191 254.937C230.935 254.828 230.659 254.772 230.38 254.77V254.8Z" fill="white"/>
<path d="M179.3 231.12C180.363 234.32 181.225 237.583 181.88 240.89C182.64 244.15 183.33 247.44 184.02 250.72C184.71 254 185.41 257.34 186.02 260.66C186.63 263.98 187.08 267.49 187.62 270.91C187.62 271.1 187.33 271.17 187.28 270.97C186.43 267.72 185.48 264.48 184.72 261.2C183.96 257.92 183.27 254.65 182.58 251.37C181.89 248.09 181.21 244.74 180.58 241.37C179.842 238.006 179.315 234.6 179 231.17C178.993 231.13 179.003 231.09 179.026 231.057C179.05 231.024 179.085 231.002 179.125 230.995C179.165 230.989 179.206 230.998 179.238 231.021C179.271 231.045 179.293 231.08 179.3 231.12Z" fill="#263238"/>
<path d="M177.92 278.83C182.32 278.43 186.71 278.16 191.1 277.91L204.27 277.24L217.42 276.59L230.59 275.81C226.312 276.872 221.97 277.654 217.59 278.15C213.21 278.7 208.81 278.99 204.4 279.23C199.99 279.47 195.59 279.53 191.18 279.47C186.77 279.41 182.32 279.26 177.92 278.83Z" fill="#263238"/>
<path d="M214.39 277.62C216.308 277.78 218.215 278.054 220.1 278.44C221.97 278.82 223.82 279.2 225.7 279.76C223.764 279.944 221.811 279.829 219.91 279.42C217.996 279.076 216.139 278.47 214.39 277.62Z" fill="#263238"/>
<path d="M221.06 240.11C221.06 240.11 236.29 270.19 259.79 274.29C283.29 278.39 278.41 250.85 278.41 250.85C269.957 247.722 261.189 245.523 252.26 244.29C241.65 242.72 221.06 240.11 221.06 240.11Z" fill="#EB9481"/>
<path d="M280.15 434.92C274.15 434.92 270.02 434.16 269.05 431.92C267.4 428.11 271.87 424.13 276.6 419.92C280.79 416.19 285.13 412.32 285.6 408.39C286.31 402.87 283.38 397.93 279.68 391.68C277.38 387.918 275.277 384.04 273.38 380.06C270.38 373.62 271.98 358.96 273.66 343.43C275.37 327.59 277.14 311.21 273.42 305.61C270.04 300.53 260.36 294.54 250.99 288.74C239.87 281.85 228.37 274.74 225.6 268.28C220.54 256.48 226.6 223.45 226.9 222.04L227.9 222.23C227.83 222.57 221.59 256.37 226.53 267.88C229.17 274.04 240.53 281.08 251.53 287.88C261.42 294 270.76 299.79 274.26 305.05C278.18 310.95 276.47 326.77 274.66 343.53C273.07 358.24 271.43 373.45 274.3 379.63C276.179 383.581 278.265 387.429 280.55 391.16C284.35 397.58 287.36 402.65 286.6 408.5C286.05 412.81 281.6 416.8 277.25 420.66C272.9 424.52 268.59 428.37 269.95 431.52C271.59 435.32 287.13 433.81 302.16 432.37C311.73 431.44 321.63 430.48 328.81 430.77C347.45 431.53 376.81 433.06 377.14 433.08L377.09 434.08C376.79 434.08 347.4 432.53 328.76 431.77C321.66 431.48 311.76 432.44 302.25 433.36C293.91 434.17 286.11 434.92 280.15 434.92Z" fill="#263238"/>
<path d="M274.58 308.07C274.47 300.71 282.66 288.9 290.58 277.47C296.82 268.47 302.72 259.97 304.43 254C308.28 240.55 298.34 204.72 298.24 204.36L299.24 204.09C299.65 205.57 309.36 240.56 305.43 254.28C303.68 260.4 297.73 268.97 291.43 278.04C283.6 289.34 275.49 301.04 275.6 308.04L274.58 308.07Z" fill="#263238"/>
<path d="M368.004 430.735L367.637 435.721L378.617 436.53L378.984 431.543L368.004 430.735Z" fill="#FF2150"/>
<path d="M363.222 431.981L363.075 433.976L370.624 434.532L370.771 432.537L363.222 431.981Z" fill="#FF2150"/>
<path d="M273.25 196.93C273.96 206.88 281.61 214.45 290.34 213.83C299.07 213.21 305.57 204.64 304.87 194.69C304.17 184.74 296.51 177.17 287.78 177.79C279.05 178.41 272.55 187 273.25 196.93Z" fill="#FF2150"/>
<path d="M268.17 197.92C268.96 208.99 277.47 217.41 287.17 216.72C296.87 216.03 304.12 206.5 303.34 195.43C302.56 184.36 294.04 175.94 284.34 176.63C274.64 177.32 267.39 186.85 268.17 197.92Z" fill="#FF2150"/>
<path opacity="0.6" d="M268.17 197.92C268.96 208.99 277.47 217.41 287.17 216.72C296.87 216.03 304.12 206.5 303.34 195.43C302.56 184.36 294.04 175.94 284.34 176.63C274.64 177.32 267.39 186.85 268.17 197.92Z" fill="white"/>
<path d="M237.48 250.14C238.05 252.59 254.48 269.96 265.37 267.25C273.06 265.33 264.52 247.88 264.52 247.88L269.52 225.77L241.8 208.11C241.8 208.11 237.25 249.09 237.48 250.14Z" fill="#EB9481"/>
<path d="M240.2 222.51C242.426 228.005 245.759 232.984 249.991 237.137C254.223 241.29 259.264 244.528 264.8 246.65L269.51 225.78L241.78 208.11C241.78 208.11 241.07 214.62 240.2 222.51Z" fill="#263238"/>
<path d="M264.8 246.65C265.023 243.358 265.752 240.12 266.96 237.05C266.867 238.695 266.626 240.328 266.24 241.93C265.897 243.542 265.416 245.121 264.8 246.65Z" fill="#455A64"/>
<path d="M297.6 190.6C303.83 227.19 282.6 235.06 274.72 236.39C267.56 237.6 243.01 240.82 233.03 205.06C223.05 169.3 238.09 154.84 254.33 151.2C270.57 147.56 291.36 154 297.6 190.6Z" fill="#EB9481"/>
<path d="M233.37 202.42C242.2 201.77 240.98 187.87 240.98 187.87C240.98 187.87 250.9 186.14 250.3 169.94C250.3 169.94 255.92 179.29 269.64 180.15C272.54 180.33 262.31 173.69 262.31 173.69C262.31 173.69 274.7 183.17 295.75 177.44C297.24 177.04 292.16 154.74 274.75 148.44C257.34 142.14 242.57 147.74 233.07 159.19C230.226 160.993 227.872 163.471 226.218 166.404C224.564 169.337 223.661 172.634 223.59 176C223.18 187.71 229.94 202.67 233.37 202.42Z" fill="#263238"/>
<path d="M239.28 204.33C239.28 204.33 230.28 193.45 225.28 196.76C220.28 200.07 227.73 216.31 234.07 218.09C234.867 218.375 235.714 218.496 236.56 218.445C237.405 218.394 238.231 218.173 238.989 217.795C239.746 217.416 240.42 216.889 240.968 216.244C241.516 215.598 241.929 214.849 242.18 214.04L239.28 204.33Z" fill="#EB9481"/>
<path d="M227.51 201.36C227.492 201.366 227.477 201.378 227.466 201.393C227.455 201.408 227.45 201.426 227.45 201.445C227.45 201.464 227.455 201.482 227.466 201.497C227.477 201.512 227.492 201.524 227.51 201.53C231.96 202.92 234.51 206.73 236.51 210.75C235.09 209.26 233.27 208.53 231.26 210.23C231.15 210.32 231.26 210.48 231.4 210.45C232.138 210.15 232.951 210.084 233.728 210.263C234.505 210.442 235.208 210.857 235.74 211.45C236.604 212.452 237.362 213.541 238 214.7C238.24 215.07 238.92 214.81 238.73 214.38C238.732 214.347 238.732 214.313 238.73 214.28C238.36 208.77 233.46 201.43 227.51 201.36Z" fill="#263238"/>
<path d="M286.18 185.1C285.326 185.056 284.475 184.966 283.63 184.83C282.718 184.865 281.82 184.594 281.08 184.06C280.881 183.849 280.756 183.578 280.726 183.289C280.695 183 280.76 182.709 280.91 182.46C281.288 182.014 281.778 181.676 282.33 181.483C282.882 181.289 283.476 181.247 284.05 181.36C285.246 181.414 286.379 181.909 287.23 182.75C287.411 182.953 287.53 183.204 287.572 183.473C287.614 183.742 287.577 184.017 287.466 184.265C287.355 184.514 287.175 184.725 286.947 184.873C286.718 185.021 286.452 185.1 286.18 185.1Z" fill="#263238"/>
<path d="M260.77 187.36C261.597 187.144 262.411 186.884 263.21 186.58C264.108 186.424 264.93 185.978 265.55 185.31C265.701 185.06 265.766 184.767 265.736 184.477C265.705 184.186 265.58 183.913 265.38 183.7C264.919 183.342 264.372 183.114 263.793 183.038C263.215 182.963 262.627 183.043 262.09 183.27C260.932 183.564 259.923 184.276 259.26 185.27C259.122 185.506 259.056 185.777 259.07 186.049C259.083 186.322 259.175 186.585 259.335 186.806C259.495 187.028 259.716 187.198 259.97 187.296C260.225 187.394 260.503 187.417 260.77 187.36Z" fill="#263238"/>
<path d="M270.92 216.47C271.55 217.04 272.18 217.83 273.1 217.86C274.039 217.806 274.955 217.553 275.79 217.12C275.807 217.112 275.826 217.11 275.844 217.113C275.862 217.116 275.879 217.125 275.892 217.138C275.906 217.151 275.914 217.168 275.917 217.186C275.921 217.204 275.918 217.223 275.91 217.24C275.569 217.752 275.097 218.162 274.542 218.428C273.988 218.693 273.372 218.805 272.76 218.75C272.239 218.635 271.764 218.368 271.394 217.984C271.024 217.6 270.776 217.115 270.68 216.59C270.63 216.45 270.82 216.39 270.92 216.47Z" fill="#263238"/>
<path d="M280.54 206.33C280.54 206.33 281.43 210.04 281.6 211.81C281.6 211.98 281.2 212.1 280.6 212.2C280.6 212.2 280.6 212.2 280.53 212.2C279.036 212.627 277.453 212.635 275.954 212.224C274.455 211.814 273.098 210.999 272.03 209.87C272.012 209.854 271.998 209.835 271.987 209.814C271.977 209.792 271.971 209.769 271.97 209.746C271.968 209.722 271.972 209.698 271.979 209.676C271.987 209.653 271.999 209.633 272.015 209.615C272.031 209.597 272.05 209.583 272.071 209.572C272.093 209.562 272.116 209.556 272.139 209.555C272.163 209.553 272.187 209.557 272.209 209.564C272.232 209.572 272.252 209.584 272.27 209.6C274.686 210.919 277.464 211.424 280.19 211.04C280.26 210.54 278.45 204.74 278.73 204.69C280.117 204.674 281.5 204.849 282.84 205.21C281.21 197.43 278.35 189.98 276.84 182.21C276.826 182.152 276.833 182.091 276.862 182.039C276.89 181.986 276.937 181.946 276.993 181.926C277.049 181.907 277.11 181.908 277.165 181.931C277.22 181.954 277.265 181.996 277.29 182.05C280.84 189.64 282.92 198.55 284.81 206.53C285.06 207.54 281.27 206.57 280.54 206.33Z" fill="#263238"/>
<path d="M279.32 211.36C278.548 212.723 277.439 213.866 276.1 214.68C275.354 215.095 274.499 215.269 273.65 215.18C271.8 214.97 271.52 213.33 271.65 211.88C271.729 211.113 271.897 210.358 272.15 209.63C274.293 210.959 276.806 211.566 279.32 211.36Z" fill="#263238"/>
<path d="M276.1 214.68C275.354 215.095 274.499 215.269 273.65 215.18C271.8 214.97 271.52 213.33 271.65 211.88C273.59 211.81 275.67 212.84 276.1 214.68Z" fill="#FF9CBD"/>
<path d="M263.74 195C263.087 195.608 262.304 196.06 261.45 196.32C260.45 196.51 259.45 195.6 258.73 194.84C258.66 194.76 258.6 194.84 258.6 194.95C258.567 195.682 258.826 196.396 259.319 196.938C259.811 197.479 260.499 197.804 261.23 197.84C262.77 197.92 263.75 196.2 264.23 195.49C264.42 195.21 264 194.75 263.74 195Z" fill="#263238"/>
<path d="M262.63 199.43C262.36 198.348 262.434 197.209 262.84 196.17C263.067 195.582 263.486 195.088 264.03 194.77C264.607 194.456 265.279 194.363 265.92 194.51C266.551 194.681 267.096 195.08 267.45 195.63C267.766 196.121 267.987 196.667 268.1 197.24C268.338 198.315 268.303 199.432 268 200.49C267.888 199.468 267.659 198.461 267.32 197.49C266.97 196.57 266.43 195.7 265.67 195.55C265.257 195.462 264.827 195.512 264.446 195.693C264.064 195.873 263.753 196.175 263.56 196.55C263.094 197.452 262.779 198.426 262.63 199.43Z" fill="#263238"/>
<path d="M286.05 192.33C286.74 192.68 287.58 193.68 288.51 193.51C289.44 193.34 289.68 192.35 290.15 191.44C290.2 191.35 290.27 191.44 290.28 191.51C290.51 193.06 290.09 194.77 288.58 195.07C287.47 195.29 286.38 193.41 285.71 192.93C285.46 192.75 285.77 192.19 286.05 192.33Z" fill="#263238"/>
<path d="M288 196C287.909 194.899 287.483 193.853 286.78 193C286.373 192.524 285.822 192.194 285.21 192.06C284.562 191.917 283.883 192.034 283.321 192.388C282.76 192.742 282.36 193.304 282.21 193.95C282.065 194.515 282.028 195.102 282.1 195.68C282.216 196.774 282.601 197.821 283.22 198.73C282.999 197.719 282.898 196.685 282.92 195.65C282.882 195.21 282.948 194.767 283.113 194.357C283.278 193.946 283.537 193.581 283.87 193.29C284.235 193.078 284.66 192.992 285.079 193.044C285.498 193.096 285.888 193.285 286.19 193.58C286.928 194.277 287.54 195.095 288 196Z" fill="#263238"/>
<path d="M298.49 208.12C298.482 210.56 298.166 212.989 297.55 215.35C296.956 217.729 296.086 220.032 294.96 222.21C293.838 224.411 292.395 226.433 290.68 228.21C288.987 229.978 287.005 231.446 284.82 232.55C285.29 232.17 285.77 231.79 286.25 231.43L286.96 230.88L287.61 230.25L288.93 229.04L290.11 227.69C291.667 225.878 293.009 223.891 294.11 221.77C295.208 219.651 296.124 217.443 296.85 215.17C297.22 214.03 297.55 212.87 297.85 211.7C298.15 210.53 298.29 209.31 298.49 208.12Z" fill="#263238"/>
<path d="M225.45 195.79C225.45 195.79 221.45 174.32 226.45 161.65C231.96 147.55 254.35 140.99 265.7 146.16C265.7 146.16 248.13 141.42 235.12 161.61C229.63 170.12 232.76 195.52 232.76 195.52L225.45 195.79Z" fill="#FF2150"/>
<path opacity="0.6" d="M225.45 195.79C225.45 195.79 221.45 174.32 226.45 161.65C231.96 147.55 254.35 140.99 265.7 146.16C265.7 146.16 248.13 141.42 235.12 161.61C229.63 170.12 232.76 195.52 232.76 195.52L225.45 195.79Z" fill="white"/>
<path d="M247 204.36C248.39 215.36 241.69 225.29 232 226.51C222.31 227.73 213.38 219.8 212 208.79C210.62 197.78 217.3 187.86 227 186.64C236.7 185.42 245.59 193.35 247 204.36Z" fill="#FF2150"/>
<path opacity="0.6" d="M247 204.36C248.39 215.36 241.69 225.29 232 226.51C222.31 227.73 213.38 219.8 212 208.79C210.62 197.78 217.3 187.86 227 186.64C236.7 185.42 245.59 193.35 247 204.36Z" fill="white"/>
<path d="M241.81 204.38C243.06 214.28 237.04 223.19 228.36 224.29C219.68 225.39 211.62 218.29 210.36 208.36C209.1 198.43 215.13 189.55 223.81 188.45C232.49 187.35 240.56 194.49 241.81 204.38Z" fill="#FF2150"/>
<path d="M233.27 205.65C234.04 211.73 230.34 217.2 225.01 217.88C219.68 218.56 214.72 214.17 213.95 208.09C213.18 202.01 216.88 196.53 222.22 195.86C227.56 195.19 232.51 199.56 233.27 205.65Z" fill="#FF2150"/>
<path opacity="0.2" d="M233.27 205.65C234.04 211.73 230.34 217.2 225.01 217.88C219.68 218.56 214.72 214.17 213.95 208.09C213.18 202.01 216.88 196.53 222.22 195.86C227.56 195.19 232.51 199.56 233.27 205.65Z" fill="black"/>
<path d="M98.81 324C83.81 338.69 81.28 361.42 84.44 381.33C84.52 381.79 85.22 381.66 85.22 381.24C85.22 376.7 85.09 372.24 85.1 367.74L85.33 367.13C89.25 364.28 92.85 361.07 95.08 356.66C97.59 351.73 98.57 346.17 100.49 341.02C100.67 340.52 100.14 340.67 99.8 340.92C90.67 347.66 87.8 354.92 85.14 364.59C85.1936 359.524 85.7259 354.475 86.73 349.51C88.73 340.32 92.6 331.21 99.2 324.39C99.2378 324.336 99.2554 324.27 99.2497 324.205C99.2439 324.139 99.2153 324.078 99.1687 324.031C99.1221 323.985 99.0607 323.956 98.995 323.95C98.9294 323.945 98.8639 323.962 98.81 324Z" fill="#263238"/>
<path d="M101.63 325.69C104.21 325.78 105.83 329.9 107.84 331.11C108.051 331.281 108.296 331.406 108.559 331.477C108.822 331.548 109.096 331.562 109.365 331.52C109.634 331.477 109.891 331.379 110.119 331.231C110.347 331.083 110.542 330.888 110.69 330.66C112.69 327.88 109.95 324.44 107.38 322.52C109.22 323.28 110.74 324.61 112.73 324.98C112.983 325.064 113.251 325.093 113.516 325.065C113.781 325.036 114.037 324.95 114.266 324.814C114.495 324.677 114.691 324.492 114.842 324.272C114.993 324.052 115.095 323.803 115.14 323.54C116.02 319.74 111.26 318.06 107.99 317.98C109.57 316.88 114.11 313.88 111.7 312.41C109.29 310.94 103.93 315.21 102.2 316.62C99.65 318.69 96.6 321.79 96.49 325.03C96.34 328.81 99.64 326.48 101.63 325.69Z" fill="#FF2150"/>
<path opacity="0.2" d="M101.63 325.69C104.21 325.78 105.83 329.9 107.84 331.11C108.051 331.281 108.296 331.406 108.559 331.477C108.822 331.548 109.096 331.562 109.365 331.52C109.634 331.477 109.891 331.379 110.119 331.231C110.347 331.083 110.542 330.888 110.69 330.66C112.69 327.88 109.95 324.44 107.38 322.52C109.22 323.28 110.74 324.61 112.73 324.98C112.983 325.064 113.251 325.093 113.516 325.065C113.781 325.036 114.037 324.95 114.266 324.814C114.495 324.677 114.691 324.492 114.842 324.272C114.993 324.052 115.095 323.803 115.14 323.54C116.02 319.74 111.26 318.06 107.99 317.98C109.57 316.88 114.11 313.88 111.7 312.41C109.29 310.94 103.93 315.21 102.2 316.62C99.65 318.69 96.6 321.79 96.49 325.03C96.34 328.81 99.64 326.48 101.63 325.69Z" fill="black"/>
<path d="M100.88 326.33C104.18 324.82 110.52 326.98 111.06 325.74C112.16 323.19 107.06 321.45 104.35 321.11C106.87 320.43 111.7 319.34 111.55 316.91C111.37 313.91 104.15 316.49 100.49 319.3C95.89 322.83 95.92 326.24 96.68 326.92C97.72 327.86 100.34 326.57 100.88 326.33Z" fill="#FF2150"/>
<path opacity="0.1" d="M100.88 326.33C104.18 324.82 110.52 326.98 111.06 325.74C112.16 323.19 107.06 321.45 104.35 321.11C106.87 320.43 111.7 319.34 111.55 316.91C111.37 313.91 104.15 316.49 100.49 319.3C95.89 322.83 95.92 326.24 96.68 326.92C97.72 327.86 100.34 326.57 100.88 326.33Z" fill="black"/>
<path d="M64.63 322.52C80.18 336.63 83.57 359.25 81.16 379.27C81.1 379.73 80.39 379.63 80.38 379.2C80.21 374.68 80.17 370.2 79.99 365.71L79.73 365.11C75.73 362.42 71.99 359.34 69.59 355.02C66.9 350.19 65.7 344.67 63.59 339.59C63.39 339.11 63.92 339.23 64.28 339.47C73.66 345.86 76.84 352.99 79.83 362.56C79.5798 357.503 78.8566 352.481 77.67 347.56C75.35 338.45 71.1 329.5 64.24 322.93C64 322.68 64.36 322.27 64.63 322.52Z" fill="#263238"/>
<path d="M61.87 324.34C59.3 324.53 57.87 328.71 55.87 329.99C55.6663 330.17 55.4268 330.305 55.1672 330.386C54.9076 330.467 54.6339 330.492 54.3639 330.46C54.0938 330.428 53.8336 330.339 53.6003 330.2C53.367 330.06 53.1658 329.873 53.01 329.65C50.91 326.95 53.51 323.41 56.01 321.39C54.2 322.22 52.72 323.61 50.76 324.06C50.5099 324.153 50.2425 324.192 49.9761 324.173C49.7097 324.154 49.4505 324.078 49.2162 323.95C48.9818 323.822 48.7778 323.645 48.618 323.431C48.4582 323.217 48.3463 322.971 48.29 322.71C47.29 318.95 51.96 317.08 55.22 316.88C53.6 315.88 48.95 313.02 51.3 311.46C53.65 309.9 59.17 314 61 315.3C63.63 317.3 66.79 320.25 67 323.48C67.28 327.26 63.89 325.06 61.87 324.34Z" fill="#FF2150"/>
<path opacity="0.2" d="M61.87 324.34C59.3 324.53 57.87 328.71 55.87 329.99C55.6663 330.17 55.4268 330.305 55.1672 330.386C54.9076 330.467 54.6339 330.492 54.3639 330.46C54.0938 330.428 53.8336 330.339 53.6003 330.2C53.367 330.06 53.1658 329.873 53.01 329.65C50.91 326.95 53.51 323.41 56.01 321.39C54.2 322.22 52.72 323.61 50.76 324.06C50.5099 324.153 50.2425 324.192 49.9761 324.173C49.7097 324.154 49.4505 324.078 49.2162 323.95C48.9818 323.822 48.7778 323.645 48.618 323.431C48.4582 323.217 48.3463 322.971 48.29 322.71C47.29 318.95 51.96 317.08 55.22 316.88C53.6 315.88 48.95 313.02 51.3 311.46C53.65 309.9 59.17 314 61 315.3C63.63 317.3 66.79 320.25 67 323.48C67.28 327.26 63.89 325.06 61.87 324.34Z" fill="black"/>
<path d="M62.64 325C59.29 323.62 53.03 326 52.45 324.8C51.26 322.3 56.25 320.36 58.98 319.92C56.43 319.33 51.57 318.43 51.62 316C51.69 313 59.01 315.3 62.77 318C67.5 321.35 67.6 324.76 66.87 325.47C65.86 326.36 63.2 325.17 62.64 325Z" fill="#FF2150"/>
<path opacity="0.1" d="M62.64 325C59.29 323.62 53.03 326 52.45 324.8C51.26 322.3 56.25 320.36 58.98 319.92C56.43 319.33 51.57 318.43 51.62 316C51.69 313 59.01 315.3 62.77 318C67.5 321.35 67.6 324.76 66.87 325.47C65.86 326.36 63.2 325.17 62.64 325Z" fill="black"/>
<path d="M80.53 359.79C81.585 367.34 83.2029 374.801 85.37 382.11C85.3992 382.253 85.4841 382.379 85.606 382.459C85.7279 382.54 85.8768 382.569 86.02 382.54C86.1632 382.511 86.289 382.426 86.3696 382.304C86.4503 382.182 86.4792 382.033 86.45 381.89C85.45 375.01 83.57 368.26 82.55 361.39C81.4314 354.433 81.0293 347.379 81.35 340.34C82.01 328.75 85.15 316.42 92.71 307.34C92.88 307.12 92.53 306.82 92.36 307.02C77.22 324.67 79.63 346.31 79.64 348.25C77.5 340.94 75.29 332.57 67.18 325.12C66.83 324.8 66.56 324.96 66.62 325.5C68.07 339.05 71.84 346.13 79.69 353.38C79.92 355.54 80.19 357.68 80.53 359.79Z" fill="#263238"/>
<path d="M92.85 309.39C95.57 308.18 99.33 311.65 102.02 311.88C102.326 311.953 102.644 311.96 102.953 311.902C103.262 311.843 103.555 311.721 103.814 311.541C104.072 311.362 104.29 311.13 104.453 310.861C104.616 310.592 104.721 310.292 104.76 309.98C105.42 306.09 100.86 303.91 97.22 303.21C99.51 303.07 101.76 303.68 104.01 303.07C104.315 303.027 104.607 302.92 104.867 302.755C105.127 302.59 105.348 302.371 105.517 302.114C105.686 301.856 105.797 301.566 105.844 301.261C105.891 300.957 105.873 300.646 105.79 300.35C104.79 295.98 99 296.62 95.57 298.18C96.66 296.24 99.86 290.86 96.62 290.54C93.38 290.22 89.97 297.36 88.88 299.69C87.27 303.13 85.67 307.87 87.18 311.29C88.93 315.29 91.19 311.21 92.85 309.39Z" fill="#FF2150"/>
<path opacity="0.2" d="M92.85 309.39C95.57 308.18 99.33 311.65 102.02 311.88C102.326 311.953 102.644 311.96 102.953 311.902C103.262 311.843 103.555 311.721 103.814 311.541C104.072 311.362 104.29 311.13 104.453 310.861C104.616 310.592 104.721 310.292 104.76 309.98C105.42 306.09 100.86 303.91 97.22 303.21C99.51 303.07 101.76 303.68 104.01 303.07C104.315 303.027 104.607 302.92 104.867 302.755C105.127 302.59 105.348 302.371 105.517 302.114C105.686 301.856 105.797 301.566 105.844 301.261C105.891 300.957 105.873 300.646 105.79 300.35C104.79 295.98 99 296.62 95.57 298.18C96.66 296.24 99.86 290.86 96.62 290.54C93.38 290.22 89.97 297.36 88.88 299.69C87.27 303.13 85.67 307.87 87.18 311.29C88.93 315.29 91.19 311.21 92.85 309.39Z" fill="black"/>
<path d="M92.4 310.42C95.07 307.2 102.73 306.25 102.66 304.69C102.52 301.5 96.38 302.24 93.37 303.26C95.64 301.26 100.1 297.73 98.73 295.26C97.05 292.26 90.84 298.56 88.45 303.31C85.45 309.31 87.2 312.81 88.33 313.14C89.89 313.6 92 311 92.4 310.42Z" fill="#FF2150"/>
<path opacity="0.1" d="M92.4 310.42C95.07 307.2 102.73 306.25 102.66 304.69C102.52 301.5 96.38 302.24 93.37 303.26C95.64 301.26 100.1 297.73 98.73 295.26C97.05 292.26 90.84 298.56 88.45 303.31C85.45 309.31 87.2 312.81 88.33 313.14C89.89 313.6 92 311 92.4 310.42Z" fill="black"/>
<path d="M70.58 363.87L63.9 414.87H104.53C103.69 410.35 96.13 363.8 96.13 363.8L70.58 363.87Z" fill="#FF2150"/>
<path d="M30.43 414.88L85.32 414.64L140.22 414.55L250 414.38L359.78 414.55L414.68 414.64L469.57 414.88L414.68 415.13L359.78 415.21L250 415.38L140.22 415.21L85.32 415.13L30.43 414.88Z" fill="#263238"/>
<path d="M177.33 192.35C177.01 189.929 177.071 187.472 177.51 185.07C177.914 182.625 178.711 180.261 179.87 178.07C180.156 177.524 180.47 176.993 180.81 176.48L181.88 174.97C182.27 174.49 182.71 174.05 183.12 173.59C183.34 173.37 183.53 173.13 183.76 172.92L184.47 172.34C184.96 171.96 185.41 171.53 185.92 171.2L187.48 170.2C188.003 169.884 188.552 169.613 189.12 169.39L190.8 168.69C188.685 169.864 186.735 171.314 185 173C184.558 173.394 184.146 173.822 183.77 174.28C183.4 174.73 183 175.17 182.64 175.64L181.64 177.1C181.319 177.594 181.026 178.105 180.76 178.63C179.654 180.73 178.818 182.961 178.27 185.27C177.986 186.433 177.773 187.612 177.63 188.8C177.457 189.976 177.357 191.162 177.33 192.35Z" fill="#263238"/>
<path d="M167.38 194.67C166.93 191.107 167.021 187.496 167.65 183.96C168.227 180.388 169.379 176.934 171.06 173.73C171.926 172.132 172.93 170.613 174.06 169.19C175.193 167.782 176.459 166.486 177.84 165.32C180.605 163.012 183.771 161.232 187.18 160.07C185.574 160.832 184.02 161.7 182.53 162.67C181.044 163.621 179.645 164.702 178.35 165.9C175.769 168.283 173.615 171.091 171.98 174.2C170.347 177.32 169.156 180.652 168.44 184.1C168.065 185.829 167.795 187.579 167.63 189.34C167.431 191.109 167.348 192.89 167.38 194.67Z" fill="#263238"/>
<path d="M316.64 140.81C319.027 141.32 321.321 142.197 323.44 143.41C325.594 144.609 327.542 146.145 329.21 147.96C329.634 148.406 330.031 148.877 330.4 149.37L331.47 150.89C331.79 151.42 332.06 151.98 332.35 152.52C332.506 152.785 332.646 153.059 332.77 153.34L333.08 154.21C333.28 154.8 333.53 155.36 333.67 155.96L334.07 157.75C334.196 158.349 334.266 158.958 334.28 159.57C334.28 160.17 334.36 160.78 334.38 161.38C334.02 159.011 333.348 156.701 332.38 154.51C332.163 153.961 331.899 153.432 331.59 152.93C331.28 152.42 331.01 151.93 330.68 151.4L329.68 149.97C329.321 149.503 328.937 149.055 328.53 148.63C326.918 146.888 325.094 145.356 323.1 144.07C322.101 143.413 321.062 142.818 319.99 142.29C318.907 141.724 317.788 141.229 316.64 140.81Z" fill="#263238"/>
<path d="M317.78 130.66C321.286 131.425 324.657 132.713 327.78 134.48C330.949 136.222 333.818 138.461 336.28 141.11C337.502 142.447 338.603 143.889 339.57 145.42C340.523 146.958 341.324 148.586 341.96 150.28C343.22 153.653 343.844 157.23 343.8 160.83C343.619 159.061 343.315 157.307 342.89 155.58C342.494 153.868 341.945 152.194 341.25 150.58C339.863 147.351 337.935 144.381 335.55 141.8C333.15 139.22 330.404 136.986 327.39 135.16C324.364 133.309 321.141 131.803 317.78 130.67V130.66Z" fill="#263238"/>
<path d="M456.86 453.37L375.08 451.93C372.84 451.93 371.32 450.75 371.69 449.38L378 425C378.34 423.63 380.09 422.54 381.91 422.55L448.43 423.16C450.3 423.16 452.16 424.34 452.59 425.75L460.2 450.92C460.66 452.3 459.15 453.41 456.86 453.37Z" fill="#263238"/>
<path d="M459.29 447.6L451.63 422.42C451.273 421.639 450.696 420.979 449.969 420.521C449.243 420.063 448.399 419.826 447.54 419.84L382.68 419.33C380.91 419.33 379.19 420.41 378.85 421.77L372.55 446.19C372.19 447.56 373.67 448.7 375.86 448.73L456 450.08C458.23 450.12 459.7 449 459.29 447.6ZM378.66 447.22C376.59 447.22 375.17 446.17 375.47 444.95L380.73 423.08C381.02 421.86 382.63 420.87 384.34 420.89L445.49 421.41C449.05 421.41 449.49 422.47 449.89 423.73L451.22 428.24C451.29 428.5 450.95 428.71 450.45 428.71H450.24C449.07 428.71 449.19 429.17 449.35 429.71L452.19 440.13C452.35 440.72 452.48 441.13 453.75 441.2H454C454.54 441.2 455 441.42 455.12 441.69L456.4 446.2C456.75 447.46 456.47 448.47 452.54 448.4L378.66 447.22Z" fill="#455A64"/>
<path d="M452.46 448.44L378.6 447.22C376.53 447.22 375.1 446.17 375.41 444.95L380.68 423.08C380.96 421.86 382.58 420.88 384.29 420.89L445.43 421.41C448.99 421.41 449.43 422.47 449.84 423.73L451.16 428.24C451.24 428.5 450.9 428.71 450.4 428.71H450.18C449.01 428.71 449.18 429.17 449.3 429.71L452.13 440.13C452.29 440.72 452.42 441.19 453.69 441.2H453.93C454.47 441.2 454.93 441.42 455.05 441.69L456.32 446.2C456.68 447.5 456.39 448.51 452.46 448.44Z" fill="white"/>
<path d="M452.71 436.39L451.91 433.55C451.91 433.45 451.97 433.38 452.1 433.38C452.162 433.376 452.224 433.392 452.278 433.424C452.331 433.456 452.374 433.503 452.4 433.56L453.21 436.4C453.21 436.5 453.15 436.57 453.01 436.57C452.948 436.574 452.886 436.559 452.832 436.527C452.779 436.494 452.736 436.447 452.71 436.39Z" fill="white"/>
<path d="M449.54 427.44H449.47C449.528 427.389 449.569 427.322 449.589 427.247C449.608 427.172 449.605 427.093 449.58 427.02C449.516 426.844 449.392 426.695 449.23 426.6L449.31 426.66C449.361 426.698 449.408 426.742 449.45 426.79C449.499 426.842 449.542 426.899 449.58 426.96V427.04C449.582 427.063 449.582 427.087 449.58 427.11C449.58 427.11 449.58 427.11 449.58 427.17C449.59 427.223 449.59 427.277 449.58 427.33V427.43C449.563 427.467 449.539 427.501 449.51 427.53L449.54 427.44Z" fill="#A6A6A6"/>
<path d="M449.05 426.67L449.12 426.6C449.232 426.671 449.322 426.771 449.38 426.89C449.417 426.957 449.432 427.034 449.421 427.11C449.41 427.186 449.375 427.256 449.32 427.31L449.2 427.24C449.239 427.206 449.267 427.161 449.281 427.112C449.295 427.062 449.295 427.01 449.28 426.96C449.241 426.839 449.159 426.736 449.05 426.67Z" fill="#A6A6A6"/>
<path d="M449.09 427.17L448.98 427.1C448.994 427.078 449.002 427.052 449.002 427.025C449.002 426.998 448.994 426.972 448.98 426.95C448.958 426.89 448.916 426.84 448.86 426.81L448.93 426.74C449.16 426.85 449.22 427.05 449.09 427.17Z" fill="#A6A6A6"/>
<path d="M448.88 427C448.859 427.001 448.839 426.995 448.821 426.984C448.804 426.974 448.789 426.959 448.78 426.94C448.78 426.94 448.78 426.88 448.84 426.88C448.861 426.88 448.881 426.885 448.899 426.896C448.916 426.906 448.931 426.922 448.94 426.94C448.94 426.94 448.92 427 448.88 427Z" fill="#A6A6A6"/>
<path d="M448.16 423.2C448.221 423.198 448.28 423.215 448.332 423.247C448.384 423.279 448.425 423.325 448.45 423.38C448.45 423.48 448.39 423.56 448.26 423.55C448.2 423.552 448.142 423.536 448.092 423.504C448.041 423.472 448.003 423.425 447.98 423.37C448 423.27 448 423.19 448.16 423.2Z" fill="#A6A6A6"/>
<path d="M448.32 423.76C448.381 423.758 448.44 423.775 448.492 423.807C448.544 423.839 448.585 423.885 448.61 423.94C448.61 424.04 448.55 424.12 448.42 424.12C448.361 424.122 448.302 424.106 448.252 424.074C448.202 424.042 448.163 423.995 448.14 423.94C448.11 423.84 448.19 423.76 448.32 423.76Z" fill="#A6A6A6"/>
<path d="M448.48 424.33C448.541 424.328 448.6 424.344 448.652 424.376C448.704 424.408 448.745 424.455 448.77 424.51C448.77 424.61 448.71 424.69 448.58 424.68C448.52 424.682 448.462 424.666 448.412 424.634C448.362 424.602 448.323 424.555 448.3 424.5C448.27 424.4 448.35 424.32 448.48 424.33Z" fill="#A6A6A6"/>
<path d="M448.64 424.89C448.701 424.888 448.761 424.904 448.812 424.936C448.864 424.968 448.905 425.015 448.93 425.07C448.93 425.17 448.87 425.25 448.74 425.25C448.68 425.254 448.621 425.239 448.57 425.206C448.52 425.174 448.481 425.126 448.46 425.07C448.43 425 448.51 424.89 448.64 424.89Z" fill="#A6A6A6"/>
<path d="M448.8 425.46C448.861 425.458 448.92 425.475 448.972 425.507C449.024 425.539 449.065 425.585 449.09 425.64C449.09 425.74 449.03 425.82 448.9 425.81C448.839 425.812 448.78 425.796 448.728 425.764C448.676 425.732 448.635 425.685 448.61 425.63C448.59 425.53 448.67 425.45 448.8 425.46Z" fill="#A6A6A6"/>
<path d="M454 446.45L453.61 444.99H454.61L455.01 446.45H454ZM453.74 445.06L454.09 446.37H454.89L454.54 445.06H453.74Z" fill="#A6A6A6"/>
<path d="M454.75 446.06L454.5 445.12L453.82 445.11L454.07 446.05L454.75 446.06Z" fill="#A6A6A6"/>
<path d="M454.28 446.58L454.25 446.45L454.8 446.46L454.83 446.59L454.28 446.58Z" fill="#A6A6A6"/>
<path d="M412.02 444.91L411.95 423.98L439.62 424.24L444.1 445.42L412.02 444.91Z" fill="#FF2150"/>
<path d="M417 432.13C415.27 432.13 413.85 431.13 413.83 429.86C413.81 428.59 415.14 427.63 416.83 427.65C418.52 427.67 419.93 428.65 420.01 429.93C420.09 431.21 418.75 432.16 417 432.13Z" fill="white"/>
<path d="M432.56 430.61L432.82 432.33L417.06 432.13L416.98 430.42L432.56 430.61Z" fill="white"/>
<path d="M422.09 439.46C420.27 439.46 418.75 438.46 418.69 437.17C418.63 435.88 420.01 434.94 421.77 434.97C423.53 435 425.06 435.97 425.18 437.26C425.3 438.55 423.91 439.48 422.09 439.46Z" fill="white"/>
<path d="M438.42 437.97L438.73 439.7L422.13 439.46L422.01 437.74L438.42 437.97Z" fill="white"/>
<path d="M438.7 439.7L430.47 430.58L432.56 430.61L440.92 439.73L438.7 439.7Z" fill="white"/>
<path d="M434.51 439.64L426.54 430.54L428.62 430.56L436.73 439.67L434.51 439.64Z" fill="white"/>
<path d="M382.6 432.32C382.3 432.32 382.1 432.14 382.14 431.93C382.187 431.808 382.274 431.704 382.386 431.636C382.498 431.567 382.629 431.537 382.76 431.55C383.06 431.55 383.26 431.73 383.22 431.94C383.17 432.061 383.083 432.162 382.972 432.231C382.86 432.299 382.73 432.33 382.6 432.32Z" fill="#DBDBDB"/>
<path d="M382.11 434.65C381.65 434.65 381.33 434.38 381.4 434.06C381.48 433.868 381.622 433.707 381.803 433.604C381.984 433.501 382.194 433.461 382.4 433.49C382.86 433.49 383.17 433.76 383.11 434.08C383.03 434.272 382.888 434.433 382.707 434.536C382.526 434.639 382.316 434.679 382.11 434.65Z" fill="#FF2150"/>
<path d="M381.7 436.59C381.39 436.59 381.18 436.41 381.22 436.2C381.274 436.078 381.364 435.976 381.479 435.908C381.594 435.839 381.727 435.809 381.86 435.82C382.17 435.82 382.38 436 382.33 436.21C382.28 436.42 382 436.59 381.7 436.59Z" fill="#DBDBDB"/>
<path d="M408.23 437.55L408.51 423.94L409.66 423.95L409.5 437.57L408.23 437.55Z" fill="#455A64"/>
<path d="M406.4 433.12L406.7 423.93H407.14L406.87 433.12H406.4Z" fill="#455A64"/>
<path d="M398.33 444.7L400.15 423.86H400.59L398.84 444.71L398.33 444.7Z" fill="#263238"/>
<path d="M400 428.71C399.52 428.71 399.16 428.42 399.19 428.07C399.243 427.876 399.364 427.706 399.531 427.593C399.698 427.479 399.899 427.429 400.1 427.45C400.57 427.45 400.93 427.74 400.9 428.09C400.87 428.44 400.45 428.71 400 428.71Z" fill="#263238"/>
<path d="M392.14 439.32L394.08 439.34L392.91 440.89L392.14 439.32Z" fill="#263238"/>
<path d="M392.02 440.22L393.97 440.24L392.79 441.79L392.02 440.22Z" fill="#263238"/>
<path d="M395.31 429.11L393.51 429.09L394.6 427.54L395.31 429.11Z" fill="#263238"/>
<path d="M395.42 428.21L393.63 428.19L394.71 426.64L395.42 428.21Z" fill="#263238"/>
<path d="M391.97 433.9L392.08 433.17L395.72 433.21L395.64 433.95L391.97 433.9Z" fill="#263238"/>
<path d="M391.79 435.21L391.89 434.48L395.57 434.53L395.49 435.26L391.79 435.21Z" fill="#263238"/>
<path d="M363 163.28C362.809 164.335 362.308 165.31 361.563 166.08C360.818 166.851 359.86 167.383 358.812 167.61C357.764 167.836 356.673 167.747 355.676 167.353C354.678 166.959 353.821 166.278 353.21 165.396C352.6 164.515 352.265 163.472 352.248 162.4C352.231 161.328 352.531 160.275 353.113 159.374C353.694 158.473 354.529 157.765 355.513 157.338C356.497 156.912 357.585 156.788 358.64 156.98C359.341 157.105 360.01 157.368 360.609 157.753C361.209 158.138 361.726 158.637 362.131 159.223C362.536 159.809 362.821 160.468 362.971 161.165C363.12 161.861 363.13 162.58 363 163.28Z" fill="#FF2150"/>
<path d="M367.902 136.407L363.829 135.665L358.949 162.464L363.022 163.206L367.902 136.407Z" fill="#FF2150"/>
<path d="M381.66 158.67C381.469 159.725 380.968 160.699 380.223 161.47C379.478 162.241 378.52 162.773 377.472 163C376.424 163.226 375.333 163.137 374.336 162.743C373.338 162.349 372.481 161.668 371.87 160.786C371.26 159.905 370.925 158.862 370.908 157.79C370.89 156.718 371.191 155.665 371.773 154.764C372.354 153.863 373.189 153.154 374.173 152.728C375.157 152.302 376.245 152.178 377.3 152.37C378 152.496 378.669 152.76 379.267 153.145C379.866 153.53 380.382 154.03 380.787 154.615C381.192 155.2 381.478 155.86 381.628 156.556C381.777 157.251 381.788 157.97 381.66 158.67Z" fill="#FF2150"/>
<path d="M386.576 131.796L382.503 131.054L377.623 157.854L381.696 158.595L386.576 131.796Z" fill="#FF2150"/>
<path d="M386.55 131.87L363.16 139.27L363.81 135.69L387.2 128.29L386.55 131.87Z" fill="#FF2150"/>
<path d="M385.31 138.63L361.93 146.02L362.58 142.44L385.97 135.04L385.31 138.63Z" fill="#FF2150"/>
<path d="M131.37 188.37C131.179 189.425 130.678 190.399 129.933 191.17C129.188 191.941 128.23 192.473 127.182 192.7C126.134 192.926 125.043 192.837 124.046 192.443C123.048 192.049 122.191 191.368 121.58 190.486C120.97 189.605 120.635 188.562 120.618 187.49C120.6 186.418 120.901 185.365 121.483 184.464C122.064 183.563 122.899 182.854 123.883 182.428C124.867 182.002 125.955 181.878 127.01 182.07C128.422 182.33 129.673 183.139 130.491 184.32C131.308 185.501 131.624 186.957 131.37 188.37Z" fill="#FF2150"/>
<path d="M136.267 161.505L132.194 160.764L127.314 187.563L131.387 188.305L136.267 161.505Z" fill="#FF2150"/>
<path d="M150 183.76C149.809 184.815 149.308 185.789 148.563 186.56C147.818 187.331 146.86 187.863 145.812 188.09C144.764 188.316 143.673 188.227 142.676 187.833C141.678 187.439 140.821 186.758 140.21 185.876C139.6 184.995 139.265 183.952 139.248 182.88C139.23 181.808 139.531 180.755 140.113 179.854C140.694 178.953 141.529 178.245 142.513 177.818C143.497 177.392 144.585 177.268 145.64 177.46C147.052 177.72 148.303 178.529 149.121 179.71C149.938 180.891 150.254 182.347 150 183.76Z" fill="#FF2150"/>
<path d="M154.94 156.895L150.867 156.153L145.987 182.952L150.06 183.694L154.94 156.895Z" fill="#FF2150"/>
<path d="M154.92 156.96L131.53 164.35L132.19 160.77L155.57 153.38L154.92 156.96Z" fill="#FF2150"/>
<path d="M153.69 163.71L130.3 171.11L130.96 167.52L154.34 160.13L153.69 163.71Z" fill="#FF2150"/>
<path d="M133.21 312.21C133.019 313.265 132.518 314.239 131.773 315.01C131.028 315.781 130.07 316.313 129.022 316.54C127.974 316.766 126.883 316.677 125.886 316.283C124.888 315.889 124.031 315.208 123.42 314.326C122.81 313.445 122.475 312.402 122.458 311.33C122.44 310.258 122.741 309.205 123.323 308.304C123.904 307.403 124.739 306.694 125.723 306.268C126.707 305.842 127.795 305.718 128.85 305.91C130.262 306.17 131.513 306.979 132.331 308.16C133.148 309.341 133.464 310.797 133.21 312.21Z" fill="#FF2150"/>
<path d="M138.121 285.342L134.048 284.6L129.168 311.399L133.241 312.141L138.121 285.342Z" fill="#FF2150"/>
<path d="M152.383 280.021L148.325 279.276L146.909 286.988L150.966 287.734L152.383 280.021Z" fill="#FF2150"/>
<path d="M153 282L133.38 288.19L134.03 284.61L153.65 278.42L153 282Z" fill="#FF2150"/>
<path d="M151.77 288.75L132.15 294.94L132.8 291.36L152.42 285.17L151.77 288.75Z" fill="#FF2150"/>
<path d="M309.78 117.59C309.589 118.645 309.088 119.619 308.343 120.39C307.598 121.161 306.64 121.693 305.592 121.92C304.544 122.146 303.453 122.057 302.456 121.663C301.458 121.269 300.601 120.588 299.99 119.706C299.38 118.825 299.045 117.782 299.028 116.71C299.01 115.638 299.311 114.585 299.893 113.684C300.474 112.783 301.309 112.074 302.293 111.648C303.277 111.222 304.365 111.097 305.42 111.29C306.832 111.55 308.083 112.359 308.901 113.54C309.718 114.721 310.034 116.177 309.78 117.59Z" fill="#FF2150"/>
<path d="M314.68 90.7119L310.607 89.9702L305.727 116.77L309.8 117.511L314.68 90.7119Z" fill="#FF2150"/>
<path d="M329.739 86.3771L325.666 85.6348L324.255 93.3772L328.328 94.1196L329.739 86.3771Z" fill="#FF2150"/>
<path d="M329.56 87.38L309.94 93.57L310.6 89.99L330.22 83.8L329.56 87.38Z" fill="#FF2150"/>
<path d="M328.33 94.1401L308.71 100.33L309.37 96.7401L328.99 90.5601L328.33 94.1401Z" fill="#FF2150"/>
</svg>
