<svg width="18" height="19" viewBox="0 0 18 19" fill="none" xmlns="http://www.w3.org/2000/svg">
<path fill-rule="evenodd" clip-rule="evenodd" d="M16.23 12.3848L13.69 12.0948C13.08 12.0248 12.48 12.2348 12.05 12.6648L10.21 14.5048C7.38004 13.0648 5.06004 10.7548 3.62004 7.91477L5.47004 6.06477C5.90004 5.63477 6.11004 5.03477 6.04004 4.42477L5.75004 1.90477C5.63004 0.894766 4.78004 0.134766 3.76004 0.134766H2.03004C0.900041 0.134766 -0.0399593 1.07477 0.0300407 2.20477C0.560041 10.7448 7.39004 17.5648 15.92 18.0948C17.05 18.1648 17.99 17.2248 17.99 16.0948V14.3648C18 13.3548 17.24 12.5048 16.23 12.3848Z" fill="white"/>
</svg>
