<svg width="18" height="18" viewBox="0 0 18 18" fill="none" xmlns="http://www.w3.org/2000/svg">
<path d="M12.9092 0.825195C15.8174 0.825195 17.7647 2.8669 17.7647 5.90371V12.9133C17.7647 15.9406 15.8174 17.9823 12.9092 17.9823H5.47159C2.56346 17.9823 0.607544 15.9406 0.607544 12.9133V5.90371C0.607544 2.8669 2.56346 0.825195 5.47159 0.825195H12.9092ZM12.772 6.83019C12.4803 6.53852 11.9999 6.53852 11.7082 6.83019L8.16527 10.3731L6.66402 8.87189C6.37234 8.58022 5.89194 8.58022 5.60027 8.87189C5.3086 9.16357 5.3086 9.63539 5.60027 9.93564L7.64197 11.9688C7.78781 12.1146 7.97654 12.1832 8.16527 12.1832C8.36257 12.1832 8.5513 12.1146 8.69714 11.9688L12.772 7.89394C13.0636 7.60227 13.0636 7.13045 12.772 6.83019Z" fill="#29CC6A"/>
</svg>
