<svg width="132" height="132" viewBox="0 0 132 132" fill="none" xmlns="http://www.w3.org/2000/svg">
<path d="M66 13.9219C37.2359 13.9219 13.9219 37.241 13.9219 66C13.9219 94.759 37.2359 118.078 66 118.078C94.7641 118.078 118.078 94.7641 118.078 66C118.078 37.2359 94.759 13.9219 66 13.9219ZM66 93.5718C50.7684 93.5718 38.4282 81.2316 38.4282 66C38.4282 50.7684 50.7684 38.4282 66 38.4282C68.1166 38.4282 70.1804 38.668 72.1579 39.123V31.6155H88.7636L78.2525 41.2977C87.3314 45.8081 93.5705 55.1796 93.5705 66.0013C93.5705 81.2329 81.2264 93.5731 65.9987 93.5731L66 93.5718Z" fill="#FF2150"/>
<path d="M78.2537 41.2964V65.6597C78.2537 72.426 72.7714 77.9135 65.9999 77.9135C59.2285 77.9135 53.7461 72.426 53.7461 65.6597C53.7461 58.8934 59.2336 53.4059 65.9999 53.4059C68.2455 53.4059 70.3531 54.0091 72.1629 55.0675V39.1218C74.3028 39.6052 76.3382 40.3425 78.2537 41.2951V41.2964Z" fill="#FF2150"/>
</svg>
